<?xml version="1.0" encoding="utf-8" standalone="no"?>
<!DOCTYPE svg PUBLIC "-//W3C//DTD SVG 1.1//EN"
  "http://www.w3.org/Graphics/SVG/1.1/DTD/svg11.dtd">
<svg xmlns:xlink="http://www.w3.org/1999/xlink" width="231.585756pt" height="193.350497pt" viewBox="0 0 231.585756 193.350497" xmlns="http://www.w3.org/2000/svg" version="1.1">
 <metadata>
  <rdf:RDF xmlns:dc="http://purl.org/dc/elements/1.1/" xmlns:cc="http://creativecommons.org/ns#" xmlns:rdf="http://www.w3.org/1999/02/22-rdf-syntax-ns#">
   <cc:Work>
    <dc:type rdf:resource="http://purl.org/dc/dcmitype/StillImage"/>
    <dc:date>2024-06-13T16:19:49.942181</dc:date>
    <dc:format>image/svg+xml</dc:format>
    <dc:creator>
     <cc:Agent>
      <dc:title>Matplotlib v3.8.4, https://matplotlib.org/</dc:title>
     </cc:Agent>
    </dc:creator>
   </cc:Work>
  </rdf:RDF>
 </metadata>
 <defs>
  <style type="text/css">*{stroke-linejoin: round; stroke-linecap: butt}</style>
 </defs>
 <g id="figure_1">
  <g id="patch_1">
   <path d="M 0 193.350497 
L 231.585756 193.350497 
L 231.585756 0 
L 0 0 
L 0 193.350497 
z
" style="fill: none"/>
  </g>
  <g id="axes_1">
   <g id="patch_2">
    <path d="M 32.685756 163.43218 
L 227.985756 163.43218 
L 227.985756 17.90218 
L 32.685756 17.90218 
L 32.685756 163.43218 
z
" style="fill: none"/>
   </g>
   <g id="matplotlib.axis_1">
    <g id="xtick_1">
     <g id="line2d_1">
      <defs>
       <path id="m9f0140ca3a" d="M 0 0 
L 0 -3 
" style="stroke: #000000; stroke-width: 0.5"/>
      </defs>
      <g>
       <use xlink:href="#m9f0140ca3a" x="77.85322" y="163.43218" style="stroke: #000000; stroke-width: 0.5"/>
      </g>
     </g>
     <g id="line2d_2">
      <defs>
       <path id="m8720ec0ea1" d="M 0 0 
L 0 3 
" style="stroke: #000000; stroke-width: 0.5"/>
      </defs>
      <g>
       <use xlink:href="#m8720ec0ea1" x="77.85322" y="17.90218" style="stroke: #000000; stroke-width: 0.5"/>
      </g>
     </g>
     <g id="text_1">
      <!-- $\mathdefault{10}$ -->
      <g transform="translate(72.871885 173.850678) scale(0.1 -0.1)">
       <defs>
        <path id="CMR17-31" d="M 1702 4083 
C 1702 4217 1696 4224 1606 4224 
C 1357 3927 979 3833 621 3820 
C 602 3820 570 3820 563 3808 
C 557 3795 557 3782 557 3648 
C 755 3648 1088 3686 1344 3839 
L 1344 467 
C 1344 243 1331 166 781 166 
L 589 166 
L 589 0 
C 896 6 1216 12 1523 12 
C 1830 12 2150 6 2458 0 
L 2458 166 
L 2266 166 
C 1715 166 1702 236 1702 467 
L 1702 4083 
z
" transform="scale(0.015625)"/>
        <path id="CMR17-30" d="M 2688 2038 
C 2688 2430 2682 3099 2413 3613 
C 2176 4063 1798 4224 1466 4224 
C 1158 4224 768 4082 525 3620 
C 269 3137 243 2539 243 2038 
C 243 1671 250 1112 448 623 
C 723 -39 1216 -128 1466 -128 
C 1760 -128 2208 -7 2470 604 
C 2662 1048 2688 1568 2688 2038 
z
M 1466 -26 
C 1056 -26 813 328 723 816 
C 653 1196 653 1749 653 2109 
C 653 2604 653 3015 736 3407 
C 858 3954 1216 4121 1466 4121 
C 1728 4121 2067 3947 2189 3420 
C 2272 3054 2278 2623 2278 2109 
C 2278 1691 2278 1176 2202 797 
C 2067 96 1690 -26 1466 -26 
z
" transform="scale(0.015625)"/>
       </defs>
       <use xlink:href="#CMR17-31" transform="scale(0.996264)"/>
       <use xlink:href="#CMR17-30" transform="translate(45.690477 0) scale(0.996264)"/>
      </g>
     </g>
    </g>
    <g id="xtick_2">
     <g id="line2d_3">
      <g>
       <use xlink:href="#m9f0140ca3a" x="133.117437" y="163.43218" style="stroke: #000000; stroke-width: 0.5"/>
      </g>
     </g>
     <g id="line2d_4">
      <g>
       <use xlink:href="#m8720ec0ea1" x="133.117437" y="17.90218" style="stroke: #000000; stroke-width: 0.5"/>
      </g>
     </g>
     <g id="text_2">
      <!-- $\mathdefault{20}$ -->
      <g transform="translate(128.136102 173.850678) scale(0.1 -0.1)">
       <defs>
        <path id="CMR17-32" d="M 2669 990 
L 2554 990 
C 2490 537 2438 460 2413 422 
C 2381 371 1920 371 1830 371 
L 602 371 
C 832 620 1280 1073 1824 1596 
C 2214 1966 2669 2400 2669 3033 
C 2669 3788 2067 4224 1395 4224 
C 691 4224 262 3603 262 3027 
C 262 2777 448 2745 525 2745 
C 589 2745 781 2783 781 3007 
C 781 3206 614 3264 525 3264 
C 486 3264 448 3257 422 3244 
C 544 3788 915 4057 1306 4057 
C 1862 4057 2227 3616 2227 3033 
C 2227 2477 1901 1998 1536 1583 
L 262 147 
L 262 0 
L 2515 0 
L 2669 990 
z
" transform="scale(0.015625)"/>
       </defs>
       <use xlink:href="#CMR17-32" transform="scale(0.996264)"/>
       <use xlink:href="#CMR17-30" transform="translate(45.690477 0) scale(0.996264)"/>
      </g>
     </g>
    </g>
    <g id="xtick_3">
     <g id="line2d_5">
      <g>
       <use xlink:href="#m9f0140ca3a" x="188.381655" y="163.43218" style="stroke: #000000; stroke-width: 0.5"/>
      </g>
     </g>
     <g id="line2d_6">
      <g>
       <use xlink:href="#m8720ec0ea1" x="188.381655" y="17.90218" style="stroke: #000000; stroke-width: 0.5"/>
      </g>
     </g>
     <g id="text_3">
      <!-- $\mathdefault{30}$ -->
      <g transform="translate(183.40032 173.850678) scale(0.1 -0.1)">
       <defs>
        <path id="CMR17-33" d="M 1414 2176 
C 1984 2176 2234 1673 2234 1094 
C 2234 322 1824 25 1453 25 
C 1114 25 563 193 390 691 
C 422 678 454 678 486 678 
C 640 678 755 780 755 947 
C 755 1132 614 1216 486 1216 
C 378 1216 211 1164 211 927 
C 211 335 787 -128 1466 -128 
C 2176 -128 2720 432 2720 1087 
C 2720 1718 2208 2176 1600 2246 
C 2086 2347 2554 2776 2554 3353 
C 2554 3856 2048 4224 1472 4224 
C 890 4224 378 3862 378 3347 
C 378 3123 544 3084 627 3084 
C 762 3084 877 3167 877 3334 
C 877 3500 762 3584 627 3584 
C 602 3584 570 3584 544 3571 
C 730 3999 1235 4076 1459 4076 
C 1683 4076 2106 3966 2106 3347 
C 2106 3167 2080 2851 1862 2574 
C 1670 2329 1453 2316 1242 2297 
C 1210 2297 1062 2284 1037 2284 
C 992 2278 966 2272 966 2227 
C 966 2182 973 2176 1101 2176 
L 1414 2176 
z
" transform="scale(0.015625)"/>
       </defs>
       <use xlink:href="#CMR17-33" transform="scale(0.996264)"/>
       <use xlink:href="#CMR17-30" transform="translate(45.690477 0) scale(0.996264)"/>
      </g>
     </g>
    </g>
    <g id="xtick_4">
     <g id="line2d_7">
      <defs>
       <path id="ma63ce809f2" d="M 0 0 
L 0 -1.5 
" style="stroke: #000000; stroke-width: 0.5"/>
      </defs>
      <g>
       <use xlink:href="#ma63ce809f2" x="33.641846" y="163.43218" style="stroke: #000000; stroke-width: 0.5"/>
      </g>
     </g>
     <g id="line2d_8">
      <defs>
       <path id="m3e8ac890ba" d="M 0 0 
L 0 1.5 
" style="stroke: #000000; stroke-width: 0.5"/>
      </defs>
      <g>
       <use xlink:href="#m3e8ac890ba" x="33.641846" y="17.90218" style="stroke: #000000; stroke-width: 0.5"/>
      </g>
     </g>
    </g>
    <g id="xtick_5">
     <g id="line2d_9">
      <g>
       <use xlink:href="#ma63ce809f2" x="44.694689" y="163.43218" style="stroke: #000000; stroke-width: 0.5"/>
      </g>
     </g>
     <g id="line2d_10">
      <g>
       <use xlink:href="#m3e8ac890ba" x="44.694689" y="17.90218" style="stroke: #000000; stroke-width: 0.5"/>
      </g>
     </g>
    </g>
    <g id="xtick_6">
     <g id="line2d_11">
      <g>
       <use xlink:href="#ma63ce809f2" x="55.747533" y="163.43218" style="stroke: #000000; stroke-width: 0.5"/>
      </g>
     </g>
     <g id="line2d_12">
      <g>
       <use xlink:href="#m3e8ac890ba" x="55.747533" y="17.90218" style="stroke: #000000; stroke-width: 0.5"/>
      </g>
     </g>
    </g>
    <g id="xtick_7">
     <g id="line2d_13">
      <g>
       <use xlink:href="#ma63ce809f2" x="66.800376" y="163.43218" style="stroke: #000000; stroke-width: 0.5"/>
      </g>
     </g>
     <g id="line2d_14">
      <g>
       <use xlink:href="#m3e8ac890ba" x="66.800376" y="17.90218" style="stroke: #000000; stroke-width: 0.5"/>
      </g>
     </g>
    </g>
    <g id="xtick_8">
     <g id="line2d_15">
      <g>
       <use xlink:href="#ma63ce809f2" x="88.906063" y="163.43218" style="stroke: #000000; stroke-width: 0.5"/>
      </g>
     </g>
     <g id="line2d_16">
      <g>
       <use xlink:href="#m3e8ac890ba" x="88.906063" y="17.90218" style="stroke: #000000; stroke-width: 0.5"/>
      </g>
     </g>
    </g>
    <g id="xtick_9">
     <g id="line2d_17">
      <g>
       <use xlink:href="#ma63ce809f2" x="99.958907" y="163.43218" style="stroke: #000000; stroke-width: 0.5"/>
      </g>
     </g>
     <g id="line2d_18">
      <g>
       <use xlink:href="#m3e8ac890ba" x="99.958907" y="17.90218" style="stroke: #000000; stroke-width: 0.5"/>
      </g>
     </g>
    </g>
    <g id="xtick_10">
     <g id="line2d_19">
      <g>
       <use xlink:href="#ma63ce809f2" x="111.01175" y="163.43218" style="stroke: #000000; stroke-width: 0.5"/>
      </g>
     </g>
     <g id="line2d_20">
      <g>
       <use xlink:href="#m3e8ac890ba" x="111.01175" y="17.90218" style="stroke: #000000; stroke-width: 0.5"/>
      </g>
     </g>
    </g>
    <g id="xtick_11">
     <g id="line2d_21">
      <g>
       <use xlink:href="#ma63ce809f2" x="122.064594" y="163.43218" style="stroke: #000000; stroke-width: 0.5"/>
      </g>
     </g>
     <g id="line2d_22">
      <g>
       <use xlink:href="#m3e8ac890ba" x="122.064594" y="17.90218" style="stroke: #000000; stroke-width: 0.5"/>
      </g>
     </g>
    </g>
    <g id="xtick_12">
     <g id="line2d_23">
      <g>
       <use xlink:href="#ma63ce809f2" x="144.170281" y="163.43218" style="stroke: #000000; stroke-width: 0.5"/>
      </g>
     </g>
     <g id="line2d_24">
      <g>
       <use xlink:href="#m3e8ac890ba" x="144.170281" y="17.90218" style="stroke: #000000; stroke-width: 0.5"/>
      </g>
     </g>
    </g>
    <g id="xtick_13">
     <g id="line2d_25">
      <g>
       <use xlink:href="#ma63ce809f2" x="155.223124" y="163.43218" style="stroke: #000000; stroke-width: 0.5"/>
      </g>
     </g>
     <g id="line2d_26">
      <g>
       <use xlink:href="#m3e8ac890ba" x="155.223124" y="17.90218" style="stroke: #000000; stroke-width: 0.5"/>
      </g>
     </g>
    </g>
    <g id="xtick_14">
     <g id="line2d_27">
      <g>
       <use xlink:href="#ma63ce809f2" x="166.275968" y="163.43218" style="stroke: #000000; stroke-width: 0.5"/>
      </g>
     </g>
     <g id="line2d_28">
      <g>
       <use xlink:href="#m3e8ac890ba" x="166.275968" y="17.90218" style="stroke: #000000; stroke-width: 0.5"/>
      </g>
     </g>
    </g>
    <g id="xtick_15">
     <g id="line2d_29">
      <g>
       <use xlink:href="#ma63ce809f2" x="177.328811" y="163.43218" style="stroke: #000000; stroke-width: 0.5"/>
      </g>
     </g>
     <g id="line2d_30">
      <g>
       <use xlink:href="#m3e8ac890ba" x="177.328811" y="17.90218" style="stroke: #000000; stroke-width: 0.5"/>
      </g>
     </g>
    </g>
    <g id="xtick_16">
     <g id="line2d_31">
      <g>
       <use xlink:href="#ma63ce809f2" x="199.434498" y="163.43218" style="stroke: #000000; stroke-width: 0.5"/>
      </g>
     </g>
     <g id="line2d_32">
      <g>
       <use xlink:href="#m3e8ac890ba" x="199.434498" y="17.90218" style="stroke: #000000; stroke-width: 0.5"/>
      </g>
     </g>
    </g>
    <g id="xtick_17">
     <g id="line2d_33">
      <g>
       <use xlink:href="#ma63ce809f2" x="210.487342" y="163.43218" style="stroke: #000000; stroke-width: 0.5"/>
      </g>
     </g>
     <g id="line2d_34">
      <g>
       <use xlink:href="#m3e8ac890ba" x="210.487342" y="17.90218" style="stroke: #000000; stroke-width: 0.5"/>
      </g>
     </g>
    </g>
    <g id="xtick_18">
     <g id="line2d_35">
      <g>
       <use xlink:href="#ma63ce809f2" x="221.540185" y="163.43218" style="stroke: #000000; stroke-width: 0.5"/>
      </g>
     </g>
     <g id="line2d_36">
      <g>
       <use xlink:href="#m3e8ac890ba" x="221.540185" y="17.90218" style="stroke: #000000; stroke-width: 0.5"/>
      </g>
     </g>
    </g>
    <g id="text_4">
     <!-- Tree Height (m) -->
     <g transform="translate(95.037521 187.259837) scale(0.1 -0.1)">
      <defs>
       <path id="CMR17-54" d="M 3981 4332 
L 288 4332 
L 179 2924 
L 294 2924 
C 378 3981 467 4166 1453 4166 
C 1568 4166 1754 4166 1805 4159 
C 1926 4140 1926 4064 1926 3917 
L 1926 465 
C 1926 236 1907 166 1376 166 
L 1197 166 
L 1197 0 
C 1504 6 1824 12 2138 12 
C 2451 12 2771 6 3078 0 
L 3078 166 
L 2899 166 
C 2368 166 2349 236 2349 465 
L 2349 3917 
C 2349 4057 2349 4134 2464 4159 
C 2515 4166 2701 4166 2816 4166 
C 3795 4166 3891 3981 3974 2924 
L 4090 2924 
L 3981 4332 
z
" transform="scale(0.015625)"/>
       <path id="CMR17-72" d="M 960 1517 
C 960 2134 1222 2713 1702 2713 
C 1747 2713 1792 2707 1837 2687 
C 1837 2687 1696 2642 1696 2475 
C 1696 2321 1818 2257 1914 2257 
C 1990 2257 2131 2302 2131 2482 
C 2131 2687 1926 2816 1709 2816 
C 1222 2816 1011 2340 947 2115 
L 941 2115 
L 941 2816 
L 198 2745 
L 198 2578 
C 576 2578 634 2540 634 2231 
L 634 443 
C 634 198 608 166 198 166 
L 198 0 
C 352 12 646 12 813 12 
C 998 12 1325 12 1498 0 
L 1498 166 
C 1037 166 960 166 960 455 
L 960 1517 
z
" transform="scale(0.015625)"/>
       <path id="CMR17-65" d="M 2438 1503 
C 2464 1529 2464 1542 2464 1606 
C 2464 2251 2118 2816 1389 2816 
C 710 2816 173 2175 173 1394 
C 173 554 781 -64 1459 -64 
C 2176 -64 2458 619 2458 755 
C 2458 800 2419 800 2406 800 
C 2362 800 2355 787 2330 709 
C 2189 270 1837 51 1504 51 
C 1229 51 954 206 781 490 
C 582 819 582 1200 582 1503 
L 2438 1503 
z
M 589 1600 
C 634 2511 1126 2713 1382 2713 
C 1818 2713 2112 2308 2118 1600 
L 589 1600 
z
" transform="scale(0.015625)"/>
       <path id="CMR17-48" d="M 3590 3898 
C 3590 4185 3661 4185 4102 4185 
L 4102 4352 
C 3917 4339 3578 4339 3379 4339 
C 3181 4339 2842 4339 2656 4352 
L 2656 4185 
C 3098 4185 3168 4185 3168 3898 
L 3168 2342 
L 1261 2342 
L 1261 3898 
C 1261 4185 1331 4185 1773 4185 
L 1773 4352 
C 1587 4339 1248 4339 1050 4339 
C 851 4339 512 4339 326 4352 
L 326 4185 
C 768 4185 838 4185 838 3898 
L 838 452 
C 838 166 768 166 326 166 
L 326 0 
C 512 12 851 12 1050 12 
C 1248 12 1587 12 1773 0 
L 1773 166 
C 1331 166 1261 166 1261 452 
L 1261 2176 
L 3168 2176 
L 3168 452 
C 3168 166 3098 166 2656 166 
L 2656 0 
C 2842 12 3181 12 3379 12 
C 3578 12 3917 12 4102 0 
L 4102 166 
C 3661 166 3590 166 3590 452 
L 3590 3898 
z
" transform="scale(0.015625)"/>
       <path id="CMR17-69" d="M 992 3961 
C 992 4102 877 4224 730 4224 
C 589 4224 467 4108 467 3961 
C 467 3820 582 3699 730 3699 
C 870 3699 992 3814 992 3961 
z
M 243 2745 
L 243 2579 
C 602 2579 653 2540 653 2231 
L 653 443 
C 653 198 627 166 218 166 
L 218 0 
C 371 12 646 12 806 12 
C 960 12 1222 12 1370 0 
L 1370 166 
C 992 166 979 205 979 436 
L 979 2816 
L 243 2745 
z
" transform="scale(0.015625)"/>
       <path id="CMR17-67" d="M 710 1165 
C 832 1068 1043 960 1299 960 
C 1805 960 2240 1359 2240 1895 
C 2240 2063 2189 2321 1997 2521 
C 2176 2713 2438 2777 2586 2777 
C 2611 2777 2650 2777 2682 2758 
C 2656 2751 2598 2726 2598 2623 
C 2598 2540 2656 2483 2739 2483 
C 2835 2483 2886 2547 2886 2630 
C 2886 2751 2790 2880 2586 2880 
C 2330 2880 2106 2758 1926 2591 
C 1734 2764 1504 2828 1299 2828 
C 794 2828 358 2431 358 1895 
C 358 1527 570 1294 634 1230 
C 442 1004 442 742 442 710 
C 442 544 506 300 723 166 
C 390 82 128 -184 128 -517 
C 128 -996 736 -1344 1466 -1344 
C 2170 -1344 2803 -1009 2803 -510 
C 2803 384 1856 384 1363 384 
C 1216 384 954 384 922 390 
C 723 422 589 601 589 825 
C 589 883 589 1024 710 1165 
z
M 1299 1068 
C 736 1068 736 1766 736 1895 
C 736 2024 736 2719 1299 2719 
C 1862 2719 1862 2024 1862 1895 
C 1862 1766 1862 1068 1299 1068 
z
M 1466 -1236 
C 826 -1236 384 -883 384 -517 
C 384 -311 493 -118 634 -11 
C 794 102 858 102 1293 102 
C 1818 102 2547 102 2547 -517 
C 2547 -883 2106 -1236 1466 -1236 
z
" transform="scale(0.015625)"/>
       <path id="CMR17-68" d="M 2656 1954 
C 2656 2282 2592 2816 1837 2816 
C 1312 2816 1056 2392 979 2179 
L 973 2179 
L 973 4416 
L 211 4345 
L 211 4179 
C 589 4179 646 4141 646 3843 
L 646 443 
C 646 198 621 166 211 166 
L 211 0 
C 365 12 646 12 813 12 
C 979 12 1267 12 1421 0 
L 1421 166 
C 1011 166 986 192 986 443 
L 986 1678 
C 986 2269 1344 2713 1792 2713 
C 2266 2713 2317 2289 2317 1980 
L 2317 443 
C 2317 198 2291 166 1882 166 
L 1882 0 
C 2035 12 2317 12 2483 12 
C 2650 12 2938 12 3091 0 
L 3091 166 
C 2682 166 2656 192 2656 443 
L 2656 1954 
z
" transform="scale(0.015625)"/>
       <path id="CMR17-74" d="M 966 2585 
L 1862 2585 
L 1862 2752 
L 966 2752 
L 966 3968 
L 851 3968 
C 838 3292 614 2700 70 2687 
L 70 2585 
L 627 2585 
L 627 778 
C 627 655 627 -64 1370 -64 
C 1747 -64 1965 308 1965 784 
L 1965 1151 
L 1850 1151 
L 1850 790 
C 1850 347 1677 51 1408 51 
C 1222 51 966 179 966 765 
L 966 2585 
z
" transform="scale(0.015625)"/>
       <path id="CMR17-28" d="M 1958 -1562 
C 1958 -1556 1958 -1543 1939 -1524 
C 1645 -1223 858 -403 858 1596 
C 858 3595 1632 4408 1946 4729 
C 1946 4735 1958 4748 1958 4767 
C 1958 4787 1939 4800 1914 4800 
C 1843 4800 1299 4325 986 3620 
C 666 2909 576 2218 576 1603 
C 576 1141 621 360 1005 -467 
C 1312 -1133 1837 -1600 1914 -1600 
C 1946 -1600 1958 -1588 1958 -1562 
z
" transform="scale(0.015625)"/>
       <path id="CMR17-6d" d="M 4326 1954 
C 4326 2276 4269 2816 3507 2816 
C 3072 2816 2771 2520 2656 2173 
L 2650 2173 
C 2573 2700 2195 2816 1837 2816 
C 1331 2816 1069 2424 973 2166 
L 966 2166 
L 966 2816 
L 211 2745 
L 211 2578 
C 589 2578 646 2540 646 2231 
L 646 443 
C 646 198 621 166 211 166 
L 211 0 
C 365 12 646 12 813 12 
C 979 12 1267 12 1421 0 
L 1421 166 
C 1011 166 986 192 986 443 
L 986 1678 
C 986 2269 1344 2713 1792 2713 
C 2266 2713 2317 2289 2317 1980 
L 2317 443 
C 2317 198 2291 166 1882 166 
L 1882 0 
C 2035 12 2317 12 2483 12 
C 2650 12 2938 12 3091 0 
L 3091 166 
C 2682 166 2656 192 2656 443 
L 2656 1678 
C 2656 2269 3014 2713 3462 2713 
C 3936 2713 3987 2289 3987 1980 
L 3987 443 
C 3987 198 3962 166 3552 166 
L 3552 0 
C 3706 12 3987 12 4154 12 
C 4320 12 4608 12 4762 0 
L 4762 166 
C 4352 166 4326 192 4326 443 
L 4326 1954 
z
" transform="scale(0.015625)"/>
       <path id="CMR17-29" d="M 1683 1596 
C 1683 2057 1638 2839 1254 3665 
C 947 4332 422 4800 346 4800 
C 326 4800 301 4793 301 4761 
C 301 4748 307 4742 314 4729 
C 621 4408 1402 3595 1402 1603 
C 1402 -396 627 -1210 314 -1530 
C 307 -1543 301 -1549 301 -1562 
C 301 -1594 326 -1600 346 -1600 
C 416 -1600 960 -1127 1274 -422 
C 1594 289 1683 981 1683 1596 
z
" transform="scale(0.015625)"/>
      </defs>
      <use xlink:href="#CMR17-54" transform="scale(0.996264)"/>
      <use xlink:href="#CMR17-72" transform="translate(58.702625 0) scale(0.996264)"/>
      <use xlink:href="#CMR17-65" transform="translate(93.983393 0) scale(0.996264)"/>
      <use xlink:href="#CMR17-65" transform="translate(134.469053 0) scale(0.996264)"/>
      <use xlink:href="#CMR17-48" transform="translate(205.03068 0) scale(0.996264)"/>
      <use xlink:href="#CMR17-65" transform="translate(274.10311 0) scale(0.996264)"/>
      <use xlink:href="#CMR17-69" transform="translate(314.588771 0) scale(0.996264)"/>
      <use xlink:href="#CMR17-67" transform="translate(339.459829 0) scale(0.996264)"/>
      <use xlink:href="#CMR17-68" transform="translate(385.150306 0) scale(0.996264)"/>
      <use xlink:href="#CMR17-74" transform="translate(433.443222 0) scale(0.996264)"/>
      <use xlink:href="#CMR17-28" transform="translate(498.799956 0) scale(0.996264)"/>
      <use xlink:href="#CMR17-6d" transform="translate(534.080724 0) scale(0.996264)"/>
      <use xlink:href="#CMR17-29" transform="translate(611.000314 0) scale(0.996264)"/>
     </g>
    </g>
   </g>
   <g id="matplotlib.axis_2">
    <g id="ytick_1">
     <g id="line2d_37">
      <defs>
       <path id="m8ae20a7e9a" d="M 0 0 
L 3 0 
" style="stroke: #000000; stroke-width: 0.5"/>
      </defs>
      <g>
       <use xlink:href="#m8ae20a7e9a" x="32.685756" y="163.43218" style="stroke: #000000; stroke-width: 0.5"/>
      </g>
     </g>
     <g id="line2d_38">
      <defs>
       <path id="m7a7f079b8b" d="M 0 0 
L -3 0 
" style="stroke: #000000; stroke-width: 0.5"/>
      </defs>
      <g>
       <use xlink:href="#m7a7f079b8b" x="227.985756" y="163.43218" style="stroke: #000000; stroke-width: 0.5"/>
      </g>
     </g>
     <g id="text_5">
      <!-- $\mathdefault{0.0}$ -->
      <g transform="translate(16.455677 166.891429) scale(0.1 -0.1)">
       <defs>
        <path id="CMMI12-3a" d="M 1178 307 
C 1178 492 1024 620 870 620 
C 685 620 557 467 557 313 
C 557 128 710 0 864 0 
C 1050 0 1178 153 1178 307 
z
" transform="scale(0.015625)"/>
       </defs>
       <use xlink:href="#CMR17-30" transform="scale(0.996264)"/>
       <use xlink:href="#CMMI12-3a" transform="translate(45.690477 0) scale(0.996264)"/>
       <use xlink:href="#CMR17-30" transform="translate(72.787654 0) scale(0.996264)"/>
      </g>
     </g>
    </g>
    <g id="ytick_2">
     <g id="line2d_39">
      <g>
       <use xlink:href="#m8ae20a7e9a" x="32.685756" y="127.04968" style="stroke: #000000; stroke-width: 0.5"/>
      </g>
     </g>
     <g id="line2d_40">
      <g>
       <use xlink:href="#m7a7f079b8b" x="227.985756" y="127.04968" style="stroke: #000000; stroke-width: 0.5"/>
      </g>
     </g>
     <g id="text_6">
      <!-- $\mathdefault{0.1}$ -->
      <g transform="translate(16.455677 130.508929) scale(0.1 -0.1)">
       <use xlink:href="#CMR17-30" transform="scale(0.996264)"/>
       <use xlink:href="#CMMI12-3a" transform="translate(45.690477 0) scale(0.996264)"/>
       <use xlink:href="#CMR17-31" transform="translate(72.787654 0) scale(0.996264)"/>
      </g>
     </g>
    </g>
    <g id="ytick_3">
     <g id="line2d_41">
      <g>
       <use xlink:href="#m8ae20a7e9a" x="32.685756" y="90.66718" style="stroke: #000000; stroke-width: 0.5"/>
      </g>
     </g>
     <g id="line2d_42">
      <g>
       <use xlink:href="#m7a7f079b8b" x="227.985756" y="90.66718" style="stroke: #000000; stroke-width: 0.5"/>
      </g>
     </g>
     <g id="text_7">
      <!-- $\mathdefault{0.2}$ -->
      <g transform="translate(16.455677 94.126429) scale(0.1 -0.1)">
       <use xlink:href="#CMR17-30" transform="scale(0.996264)"/>
       <use xlink:href="#CMMI12-3a" transform="translate(45.690477 0) scale(0.996264)"/>
       <use xlink:href="#CMR17-32" transform="translate(72.787654 0) scale(0.996264)"/>
      </g>
     </g>
    </g>
    <g id="ytick_4">
     <g id="line2d_43">
      <g>
       <use xlink:href="#m8ae20a7e9a" x="32.685756" y="54.28468" style="stroke: #000000; stroke-width: 0.5"/>
      </g>
     </g>
     <g id="line2d_44">
      <g>
       <use xlink:href="#m7a7f079b8b" x="227.985756" y="54.28468" style="stroke: #000000; stroke-width: 0.5"/>
      </g>
     </g>
     <g id="text_8">
      <!-- $\mathdefault{0.3}$ -->
      <g transform="translate(16.455677 57.743929) scale(0.1 -0.1)">
       <use xlink:href="#CMR17-30" transform="scale(0.996264)"/>
       <use xlink:href="#CMMI12-3a" transform="translate(45.690477 0) scale(0.996264)"/>
       <use xlink:href="#CMR17-33" transform="translate(72.787654 0) scale(0.996264)"/>
      </g>
     </g>
    </g>
    <g id="ytick_5">
     <g id="line2d_45">
      <g>
       <use xlink:href="#m8ae20a7e9a" x="32.685756" y="17.90218" style="stroke: #000000; stroke-width: 0.5"/>
      </g>
     </g>
     <g id="line2d_46">
      <g>
       <use xlink:href="#m7a7f079b8b" x="227.985756" y="17.90218" style="stroke: #000000; stroke-width: 0.5"/>
      </g>
     </g>
     <g id="text_9">
      <!-- $\mathdefault{0.4}$ -->
      <g transform="translate(16.455677 21.361429) scale(0.1 -0.1)">
       <defs>
        <path id="CMR17-34" d="M 2150 4147 
C 2150 4281 2144 4288 2029 4288 
L 128 1254 
L 128 1088 
L 1779 1088 
L 1779 460 
C 1779 230 1766 166 1318 166 
L 1197 166 
L 1197 0 
C 1402 12 1747 12 1965 12 
C 2182 12 2528 12 2733 0 
L 2733 166 
L 2611 166 
C 2163 166 2150 230 2150 460 
L 2150 1088 
L 2803 1088 
L 2803 1254 
L 2150 1254 
L 2150 4147 
z
M 1798 3723 
L 1798 1254 
L 256 1254 
L 1798 3723 
z
" transform="scale(0.015625)"/>
       </defs>
       <use xlink:href="#CMR17-30" transform="scale(0.996264)"/>
       <use xlink:href="#CMMI12-3a" transform="translate(45.690477 0) scale(0.996264)"/>
       <use xlink:href="#CMR17-34" transform="translate(72.787654 0) scale(0.996264)"/>
      </g>
     </g>
    </g>
    <g id="ytick_6">
     <g id="line2d_47">
      <defs>
       <path id="mef1ad63d1d" d="M 0 0 
L 1.5 0 
" style="stroke: #000000; stroke-width: 0.5"/>
      </defs>
      <g>
       <use xlink:href="#mef1ad63d1d" x="32.685756" y="156.15568" style="stroke: #000000; stroke-width: 0.5"/>
      </g>
     </g>
     <g id="line2d_48">
      <defs>
       <path id="mb4cbe6ec66" d="M 0 0 
L -1.5 0 
" style="stroke: #000000; stroke-width: 0.5"/>
      </defs>
      <g>
       <use xlink:href="#mb4cbe6ec66" x="227.985756" y="156.15568" style="stroke: #000000; stroke-width: 0.5"/>
      </g>
     </g>
    </g>
    <g id="ytick_7">
     <g id="line2d_49">
      <g>
       <use xlink:href="#mef1ad63d1d" x="32.685756" y="148.87918" style="stroke: #000000; stroke-width: 0.5"/>
      </g>
     </g>
     <g id="line2d_50">
      <g>
       <use xlink:href="#mb4cbe6ec66" x="227.985756" y="148.87918" style="stroke: #000000; stroke-width: 0.5"/>
      </g>
     </g>
    </g>
    <g id="ytick_8">
     <g id="line2d_51">
      <g>
       <use xlink:href="#mef1ad63d1d" x="32.685756" y="141.60268" style="stroke: #000000; stroke-width: 0.5"/>
      </g>
     </g>
     <g id="line2d_52">
      <g>
       <use xlink:href="#mb4cbe6ec66" x="227.985756" y="141.60268" style="stroke: #000000; stroke-width: 0.5"/>
      </g>
     </g>
    </g>
    <g id="ytick_9">
     <g id="line2d_53">
      <g>
       <use xlink:href="#mef1ad63d1d" x="32.685756" y="134.32618" style="stroke: #000000; stroke-width: 0.5"/>
      </g>
     </g>
     <g id="line2d_54">
      <g>
       <use xlink:href="#mb4cbe6ec66" x="227.985756" y="134.32618" style="stroke: #000000; stroke-width: 0.5"/>
      </g>
     </g>
    </g>
    <g id="ytick_10">
     <g id="line2d_55">
      <g>
       <use xlink:href="#mef1ad63d1d" x="32.685756" y="119.77318" style="stroke: #000000; stroke-width: 0.5"/>
      </g>
     </g>
     <g id="line2d_56">
      <g>
       <use xlink:href="#mb4cbe6ec66" x="227.985756" y="119.77318" style="stroke: #000000; stroke-width: 0.5"/>
      </g>
     </g>
    </g>
    <g id="ytick_11">
     <g id="line2d_57">
      <g>
       <use xlink:href="#mef1ad63d1d" x="32.685756" y="112.49668" style="stroke: #000000; stroke-width: 0.5"/>
      </g>
     </g>
     <g id="line2d_58">
      <g>
       <use xlink:href="#mb4cbe6ec66" x="227.985756" y="112.49668" style="stroke: #000000; stroke-width: 0.5"/>
      </g>
     </g>
    </g>
    <g id="ytick_12">
     <g id="line2d_59">
      <g>
       <use xlink:href="#mef1ad63d1d" x="32.685756" y="105.22018" style="stroke: #000000; stroke-width: 0.5"/>
      </g>
     </g>
     <g id="line2d_60">
      <g>
       <use xlink:href="#mb4cbe6ec66" x="227.985756" y="105.22018" style="stroke: #000000; stroke-width: 0.5"/>
      </g>
     </g>
    </g>
    <g id="ytick_13">
     <g id="line2d_61">
      <g>
       <use xlink:href="#mef1ad63d1d" x="32.685756" y="97.94368" style="stroke: #000000; stroke-width: 0.5"/>
      </g>
     </g>
     <g id="line2d_62">
      <g>
       <use xlink:href="#mb4cbe6ec66" x="227.985756" y="97.94368" style="stroke: #000000; stroke-width: 0.5"/>
      </g>
     </g>
    </g>
    <g id="ytick_14">
     <g id="line2d_63">
      <g>
       <use xlink:href="#mef1ad63d1d" x="32.685756" y="83.39068" style="stroke: #000000; stroke-width: 0.5"/>
      </g>
     </g>
     <g id="line2d_64">
      <g>
       <use xlink:href="#mb4cbe6ec66" x="227.985756" y="83.39068" style="stroke: #000000; stroke-width: 0.5"/>
      </g>
     </g>
    </g>
    <g id="ytick_15">
     <g id="line2d_65">
      <g>
       <use xlink:href="#mef1ad63d1d" x="32.685756" y="76.11418" style="stroke: #000000; stroke-width: 0.5"/>
      </g>
     </g>
     <g id="line2d_66">
      <g>
       <use xlink:href="#mb4cbe6ec66" x="227.985756" y="76.11418" style="stroke: #000000; stroke-width: 0.5"/>
      </g>
     </g>
    </g>
    <g id="ytick_16">
     <g id="line2d_67">
      <g>
       <use xlink:href="#mef1ad63d1d" x="32.685756" y="68.83768" style="stroke: #000000; stroke-width: 0.5"/>
      </g>
     </g>
     <g id="line2d_68">
      <g>
       <use xlink:href="#mb4cbe6ec66" x="227.985756" y="68.83768" style="stroke: #000000; stroke-width: 0.5"/>
      </g>
     </g>
    </g>
    <g id="ytick_17">
     <g id="line2d_69">
      <g>
       <use xlink:href="#mef1ad63d1d" x="32.685756" y="61.56118" style="stroke: #000000; stroke-width: 0.5"/>
      </g>
     </g>
     <g id="line2d_70">
      <g>
       <use xlink:href="#mb4cbe6ec66" x="227.985756" y="61.56118" style="stroke: #000000; stroke-width: 0.5"/>
      </g>
     </g>
    </g>
    <g id="ytick_18">
     <g id="line2d_71">
      <g>
       <use xlink:href="#mef1ad63d1d" x="32.685756" y="47.00818" style="stroke: #000000; stroke-width: 0.5"/>
      </g>
     </g>
     <g id="line2d_72">
      <g>
       <use xlink:href="#mb4cbe6ec66" x="227.985756" y="47.00818" style="stroke: #000000; stroke-width: 0.5"/>
      </g>
     </g>
    </g>
    <g id="ytick_19">
     <g id="line2d_73">
      <g>
       <use xlink:href="#mef1ad63d1d" x="32.685756" y="39.73168" style="stroke: #000000; stroke-width: 0.5"/>
      </g>
     </g>
     <g id="line2d_74">
      <g>
       <use xlink:href="#mb4cbe6ec66" x="227.985756" y="39.73168" style="stroke: #000000; stroke-width: 0.5"/>
      </g>
     </g>
    </g>
    <g id="ytick_20">
     <g id="line2d_75">
      <g>
       <use xlink:href="#mef1ad63d1d" x="32.685756" y="32.45518" style="stroke: #000000; stroke-width: 0.5"/>
      </g>
     </g>
     <g id="line2d_76">
      <g>
       <use xlink:href="#mb4cbe6ec66" x="227.985756" y="32.45518" style="stroke: #000000; stroke-width: 0.5"/>
      </g>
     </g>
    </g>
    <g id="ytick_21">
     <g id="line2d_77">
      <g>
       <use xlink:href="#mef1ad63d1d" x="32.685756" y="25.17868" style="stroke: #000000; stroke-width: 0.5"/>
      </g>
     </g>
     <g id="line2d_78">
      <g>
       <use xlink:href="#mb4cbe6ec66" x="227.985756" y="25.17868" style="stroke: #000000; stroke-width: 0.5"/>
      </g>
     </g>
    </g>
    <g id="text_10">
     <!-- RMSE -->
     <g transform="translate(10.518498 105.057689) rotate(-90) scale(0.1 -0.1)">
      <defs>
       <path id="CMR17-52" d="M 2509 2156 
C 3117 2278 3629 2689 3629 3203 
C 3629 3806 2950 4352 2054 4352 
L 333 4352 
L 333 4185 
C 774 4185 845 4185 845 3896 
L 845 428 
C 845 140 774 140 333 140 
L 333 -26 
C 518 -13 851 -13 1050 -13 
C 1248 -13 1581 -13 1766 -26 
L 1766 140 
C 1325 140 1254 140 1254 428 
L 1254 2112 
L 2003 2112 
C 2368 2112 2573 1964 2662 1881 
C 2918 1632 2918 1459 2918 1024 
C 2918 595 2918 377 3110 160 
C 3354 -103 3680 -128 3821 -128 
C 4294 -128 4365 403 4365 512 
C 4365 550 4365 595 4307 595 
C 4256 595 4250 556 4250 531 
C 4218 115 4032 -26 3834 -26 
C 3482 -26 3443 377 3405 768 
C 3386 902 3373 998 3360 1139 
C 3322 1459 3270 1926 2509 2156 
z
M 1984 2214 
L 1254 2214 
L 1254 3935 
C 1254 4153 1267 4185 1523 4185 
L 1990 4185 
C 2522 4185 3142 3999 3142 3203 
C 3142 2374 2464 2214 1984 2214 
z
" transform="scale(0.015625)"/>
       <path id="CMR17-4d" d="M 1338 4249 
C 1299 4345 1293 4352 1158 4352 
L 339 4352 
L 339 4185 
C 781 4185 851 4185 851 3898 
L 851 624 
C 851 465 851 166 339 166 
L 339 0 
C 486 12 755 12 915 12 
C 1075 12 1344 12 1491 0 
L 1491 166 
C 979 166 979 465 979 624 
L 979 4159 
L 986 4159 
L 2490 102 
C 2515 38 2528 0 2579 0 
C 2630 0 2643 38 2669 102 
L 4186 4191 
L 4192 4191 
L 4192 453 
C 4192 166 4122 166 3680 166 
L 3680 0 
C 3853 12 4198 12 4384 12 
C 4570 12 4922 12 5094 0 
L 5094 166 
C 4653 166 4582 166 4582 453 
L 4582 3898 
C 4582 4185 4653 4185 5094 4185 
L 5094 4352 
L 4282 4352 
C 4147 4352 4141 4345 4102 4249 
L 2720 516 
L 1338 4249 
z
" transform="scale(0.015625)"/>
       <path id="CMR17-53" d="M 2803 4351 
C 2803 4467 2797 4473 2758 4473 
C 2720 4473 2707 4447 2682 4390 
L 2490 3965 
C 2246 4320 1875 4480 1472 4480 
C 819 4480 294 3958 294 3301 
C 294 3101 339 2817 557 2546 
C 794 2250 1018 2198 1530 2063 
C 1722 2011 2042 1927 2106 1901 
C 2470 1747 2662 1360 2662 999 
C 2662 534 2336 38 1779 38 
C 1094 38 454 425 410 1328 
C 403 1431 397 1437 352 1437 
C 301 1437 294 1431 294 1302 
L 294 0 
C 294 -116 301 -122 339 -122 
C 384 -122 397 -90 486 109 
C 493 128 493 141 614 386 
C 934 -39 1472 -128 1779 -128 
C 2477 -128 2970 457 2970 1141 
C 2970 1476 2848 1734 2778 1850 
C 2509 2263 2221 2340 1914 2417 
C 1869 2437 1856 2437 1498 2527 
C 1152 2617 1005 2662 845 2836 
C 666 3036 602 3243 602 3449 
C 602 3868 934 4326 1478 4326 
C 2157 4326 2579 3842 2675 3036 
C 2694 2920 2701 2914 2746 2914 
C 2803 2914 2803 2933 2803 3043 
L 2803 4351 
z
" transform="scale(0.015625)"/>
       <path id="CMR17-45" d="M 3885 1614 
L 3770 1614 
C 3629 676 3546 166 2419 166 
L 1530 166 
C 1274 166 1261 198 1261 415 
L 1261 2176 
L 1862 2176 
C 2464 2176 2522 1959 2522 1429 
L 2637 1429 
L 2637 3086 
L 2522 3086 
C 2522 2558 2464 2342 1862 2342 
L 1261 2342 
L 1261 3924 
C 1261 4141 1274 4172 1530 4172 
L 2406 4172 
C 3398 4172 3514 3778 3603 2933 
L 3718 2933 
L 3565 4339 
L 326 4339 
L 326 4172 
C 768 4172 838 4172 838 3886 
L 838 453 
C 838 166 768 166 326 166 
L 326 0 
L 3654 0 
L 3885 1614 
z
" transform="scale(0.015625)"/>
      </defs>
      <use xlink:href="#CMR17-52" transform="scale(0.996264)"/>
      <use xlink:href="#CMR17-4d" transform="translate(67.791102 0) scale(0.996264)"/>
      <use xlink:href="#CMR17-53" transform="translate(152.478043 0) scale(0.996264)"/>
      <use xlink:href="#CMR17-45" transform="translate(203.373412 0) scale(0.996264)"/>
     </g>
    </g>
   </g>
   <g id="line2d_79">
    <path d="M 41.563028 37.460648 
L 41.627566 37.274481 
L 42.014287 36.993165 
L 42.246147 37.621153 
L 42.981512 37.616372 
L 43.057023 36.570734 
L 43.092149 33.953076 
L 43.147129 33.976006 
L 43.589338 35.841783 
L 43.628892 35.4773 
L 43.929309 35.220871 
L 44.197163 35.371269 
L 44.211161 37.803144 
L 44.252481 37.704902 
L 44.399927 38.832234 
L 44.409093 38.653039 
L 44.994757 38.599224 
L 45.247534 40.016112 
L 45.689405 39.999041 
L 45.727908 39.639316 
L 45.781603 41.004077 
L 45.829534 40.111636 
L 45.965659 39.561274 
L 46.184892 39.497647 
L 46.186715 38.848063 
L 46.194323 38.8551 
L 46.352717 39.34049 
L 46.628802 39.478481 
L 46.632563 40.563334 
L 46.640447 40.560727 
L 46.960374 40.693946 
L 47.4579 40.744358 
L 48.010408 42.00071 
L 48.409741 41.93109 
L 49.04716 42.921946 
L 49.226396 41.98624 
L 49.613286 43.807529 
L 49.723922 43.549374 
L 49.871043 43.541699 
L 50.055157 41.579346 
L 50.33141 41.67992 
L 50.663319 40.368102 
L 51.068537 40.363129 
L 51.160622 40.872244 
L 51.49208 40.848382 
L 51.547398 40.321227 
L 51.602717 40.874004 
L 51.942318 39.628665 
L 52.376497 40.589085 
L 52.513153 40.57726 
L 52.667146 41.62649 
L 52.888801 40.48967 
L 53.333874 40.473681 
L 53.400065 39.114131 
L 53.540832 38.728312 
L 53.924057 38.648429 
L 53.971053 37.789359 
L 54.034356 38.092895 
L 54.227801 36.158424 
L 54.365928 34.089413 
L 54.543182 35.450763 
L 54.587032 35.430431 
L 54.633077 36.746585 
L 54.955425 36.950185 
L 54.97409 37.00725 
L 54.975405 38.127059 
L 55.13937 38.289723 
L 55.222685 41.295831 
L 55.360643 41.272548 
L 55.471279 41.27539 
L 55.609575 43.191233 
L 56.007132 43.077269 
L 56.017217 41.620136 
L 56.106764 41.92675 
L 56.284972 41.985854 
L 56.30004 41.88904 
L 56.495891 40.873841 
L 56.687099 40.557208 
L 56.825226 40.702885 
L 56.868316 39.823877 
L 57.20465 39.96996 
L 57.223083 39.054591 
L 57.405392 38.173275 
L 57.4994 38.239314 
L 58.072386 38.468745 
L 58.345127 37.753018 
L 58.759507 38.818544 
L 58.952839 37.948939 
L 59.450141 38.970424 
L 59.452226 38.22936 
L 59.648685 38.214882 
L 59.837031 38.718879 
L 60.06695 36.546551 
L 60.283329 37.032718 
L 60.389538 36.331965 
L 60.389876 37.907642 
L 60.692381 38.009063 
L 60.809619 39.465844 
L 61.163318 39.356034 
L 61.329273 39.795121 
L 61.702333 39.747856 
L 61.937098 41.011297 
L 61.992079 39.566972 
L 62.134881 41.129098 
L 62.810315 40.976927 
L 62.866155 41.899428 
L 62.876496 44.37993 
L 63.235811 44.348465 
L 63.42934 42.682391 
L 63.834558 42.639228 
L 63.871211 42.2041 
L 64.645096 42.255303 
L 64.976563 42.009748 
L 65.087199 41.303776 
L 65.170176 41.449397 
L 65.558321 41.378137 
L 65.687159 39.599393 
L 65.695109 39.788281 
L 66.413486 39.801969 
L 66.416612 40.026531 
L 66.514275 39.793559 
L 66.523936 39.591366 
L 66.895307 39.587393 
L 66.895565 39.575407 
L 66.965994 38.90758 
L 67.054568 39.474114 
L 67.312439 39.412277 
L 67.435861 39.645564 
L 67.766837 39.627741 
L 67.82136 38.174758 
L 68.292534 38.113382 
L 68.68236 38.053792 
L 69.121379 38.572487 
L 69.121548 40.748502 
L 69.176697 40.63393 
L 69.418482 40.994994 
L 69.644203 40.914475 
L 69.701883 39.98697 
L 69.784691 40.607728 
L 69.990601 39.212222 
L 70.342385 39.123447 
L 70.406431 39.196841 
L 70.642455 37.352819 
L 70.779575 37.293829 
L 70.945193 37.353056 
L 71.055829 36.008019 
L 71.276765 36.288383 
L 71.442492 38.348746 
L 72.047008 38.430258 
L 72.216162 39.070412 
L 72.409775 38.50608 
L 72.669364 38.533405 
L 72.750565 38.700946 
L 73.155896 38.678095 
L 73.542449 40.38861 
L 73.929508 39.92547 
L 74.150274 38.709108 
L 74.563453 38.675635 
L 74.679413 37.707384 
L 75.205073 37.527013 
L 75.421581 37.127712 
L 75.475155 35.37111 
L 75.495224 36.224272 
L 75.601112 36.230134 
L 75.608896 36.464282 
L 75.756289 36.44459 
L 75.837795 38.590852 
L 76.140043 38.643612 
L 76.360978 39.247085 
L 76.526933 38.842007 
L 76.747868 38.794042 
L 76.885995 38.978637 
L 76.887992 38.976686 
L 77.051781 38.945523 
L 77.632284 41.356779 
L 78.061601 41.335482 
L 78.087985 41.005353 
L 78.109894 41.101617 
L 78.129474 42.007346 
L 78.737299 40.84229 
L 78.792617 41.193482 
L 78.792617 41.190379 
L 78.909936 41.208555 
L 79.020826 43.126083 
L 79.234825 42.313782 
L 79.290144 42.758618 
L 79.290144 41.961526 
L 79.373121 42.102575 
L 79.456098 43.017121 
L 79.678409 42.861206 
L 79.732352 46.491029 
L 80.857093 46.653438 
L 80.920512 45.869381 
L 81.168938 46.095352 
L 81.500847 46.095023 
L 81.611146 47.376555 
L 82.374728 47.295899 
L 82.440244 47.150941 
L 82.877904 46.975248 
L 83.453174 46.321456 
L 83.553017 48.077741 
L 83.703751 48.109923 
L 83.794022 47.692791 
L 83.803298 48.783013 
L 83.960182 48.911355 
L 84.042785 47.456999 
L 84.20874 49.452763 
L 84.20874 49.451926 
L 84.360501 49.707291 
L 84.583555 49.681215 
L 84.978625 51.043079 
L 84.98252 51.040204 
L 85.22178 51.194154 
L 85.734876 51.140305 
L 85.866599 50.059259 
L 86.419106 50.259926 
L 86.474424 50.809897 
L 86.499717 50.446057 
L 86.501915 49.488855 
L 86.668154 50.126638 
L 86.95351 48.87089 
L 87.08225 48.793766 
L 87.151408 47.575084 
L 87.358503 47.811811 
L 87.898325 48.645635 
L 88.049475 48.651081 
L 88.439348 50.36616 
L 89.126999 50.36684 
L 89.127167 49.970969 
L 89.569207 50.332702 
L 89.679843 50.730502 
L 90.045694 50.84742 
L 90.453286 50.89969 
L 90.508604 50.778999 
L 90.562178 51.139395 
L 90.619409 53.07424 
L 90.729877 52.211005 
L 90.80341 52.278958 
L 90.840176 52.60874 
L 91.006131 52.602693 
L 91.061449 51.477975 
L 91.116767 51.716898 
L 91.180618 51.768757 
L 91.196245 53.167915 
L 91.282495 53.133444 
L 91.339547 52.633361 
L 91.558369 54.024703 
L 91.702267 54.840001 
L 92.210919 54.88904 
L 92.582146 56.95392 
L 92.967902 56.978024 
L 93.106198 57.031136 
L 93.106198 57.302317 
L 93.382452 56.893871 
L 93.603387 56.840869 
L 93.603629 55.835142 
L 94.543122 56.249855 
L 94.823317 55.708653 
L 94.874583 55.796715 
L 95.371882 55.828351 
L 95.416676 57.844274 
L 95.593155 57.902775 
L 96.274513 57.925852 
L 96.31139 58.970118 
L 96.659632 59.37847 
L 96.735163 59.670184 
L 96.869152 59.143137 
L 96.956209 60.997387 
L 97.269455 60.422635 
L 97.416631 60.428425 
L 97.544054 60.743218 
L 97.619352 59.090412 
L 97.693222 60.541004 
L 97.805956 60.377301 
L 98.217902 60.244614 
L 98.441494 62.340002 
L 98.770662 62.314001 
L 98.991851 62.967273 
L 99.461607 62.731798 
L 99.496545 63.562194 
L 99.737861 63.638136 
L 100.345797 62.640191 
L 100.456096 62.661415 
L 100.511414 63.995313 
L 100.511751 63.943496 
L 100.714246 63.885222 
L 101.592448 65.32737 
L 101.810211 67.935178 
L 102.224929 67.844891 
L 102.445527 67.294083 
L 102.954079 65.661009 
L 102.998371 63.866372 
L 103.44058 63.929428 
L 103.551216 64.391126 
L 103.82747 63.693347 
L 103.993087 64.31484 
L 104.379977 65.048328 
L 104.656399 64.989108 
L 104.766867 64.613565 
L 104.910559 65.325171 
L 105.009058 63.415047 
L 105.319543 63.431082 
L 105.347202 63.870695 
L 105.374692 63.868779 
L 105.595738 63.764907 
L 105.761582 65.189328 
L 105.920385 65.163063 
L 105.927537 62.060991 
L 106.401642 62.052653 
L 106.431941 61.758048 
L 106.535362 63.256227 
L 106.811953 64.39585 
L 107.032889 64.357561 
L 107.143188 63.788038 
L 107.47487 63.973167 
L 107.585396 63.972637 
L 107.590629 63.588528 
L 107.860806 64.470383 
L 107.86176 64.041752 
L 108.017069 64.165458 
L 108.082806 62.253842 
L 108.137903 62.256014 
L 108.333962 62.047724 
L 108.345093 62.129345 
L 108.446275 62.184917 
L 108.524793 62.043648 
L 108.580111 61.512721 
L 108.635266 62.014473 
L 108.690521 62.110321 
L 108.745897 60.489415 
L 108.83815 60.505425 
L 109.427424 61.096686 
L 109.751459 61.179563 
L 109.809961 62.937062 
L 109.851249 62.71934 
L 110.017035 62.503271 
L 110.090568 63.075997 
L 110.513797 63.112219 
L 110.810658 63.827214 
L 111.177705 63.895307 
L 111.256065 64.198299 
L 111.288004 66.096662 
L 112.065726 66.130915 
L 112.17242 66.660287 
L 112.260215 64.675858 
L 112.282719 66.865114 
L 112.338038 65.91329 
L 112.457982 65.909906 
L 112.627183 67.282861 
L 112.779909 65.283446 
L 113.001181 65.480182 
L 113.1491 65.444536 
L 113.222117 66.824411 
L 113.899606 66.837531 
L 113.948758 66.801394 
L 114.493423 66.74991 
L 114.619344 66.891291 
L 114.673039 66.804564 
L 114.686699 66.774451 
L 114.880313 67.136371 
L 114.897041 66.9063 
L 115.101249 67.902234 
L 115.212581 67.851494 
L 115.543457 68.205956 
L 115.543457 67.735863 
L 115.65384 69.938545 
L 115.930347 69.84122 
L 116.157533 69.899849 
L 116.280249 69.343099 
L 116.731617 69.24197 
L 116.94392 69.424676 
L 116.98038 69.451262 
L 117.201316 67.751262 
L 117.256634 67.808647 
L 117.477791 67.147689 
L 117.564647 67.765822 
L 117.698842 66.602538 
L 117.716941 66.713302 
L 117.756996 68.271076 
L 118.043411 66.691345 
L 118.085563 67.083143 
L 118.168709 66.7938 
L 118.361648 65.251325 
L 118.47492 65.019935 
L 118.582921 64.253471 
L 118.785421 64.250709 
L 118.803857 64.392567 
L 119.137811 63.37656 
L 119.356533 64.418318 
L 119.451495 66.76142 
L 119.522772 66.136097 
L 119.706603 66.129687 
L 119.76696 67.129816 
L 120.268439 67.527623 
L 120.351417 66.13545 
L 120.487889 66.173515 
L 120.62767 64.729776 
L 120.959073 61.316204 
L 121.033059 59.829216 
L 121.304643 57.293115 
L 121.567352 56.654519 
L 121.677704 55.238036 
L 122.241311 55.284185 
L 122.285529 55.408493 
L 122.327292 54.652497 
L 122.354677 54.812367 
L 122.451147 54.809675 
L 122.506802 55.176993 
L 122.51163 57.532718 
L 122.617101 57.067746 
L 122.644929 57.018678 
L 122.713086 56.616812 
L 122.986019 56.551184 
L 123.003991 55.889701 
L 123.169946 55.092544 
L 123.188382 55.156879 
L 123.280245 55.505805 
L 123.446199 55.162386 
L 123.55653 56.923439 
L 123.556836 56.906273 
L 123.76605 56.885987 
L 123.910332 56.570458 
L 123.938487 57.198265 
L 123.998707 56.598837 
L 124.109469 56.305841 
L 124.393471 56.467783 
L 124.468521 55.510703 
L 124.594695 56.040105 
L 124.6252 56.007789 
L 124.718075 55.696072 
L 124.883007 56.497074 
L 124.938441 56.883624 
L 124.993759 54.862358 
L 125.101128 54.245888 
L 125.159714 54.952981 
L 125.462952 55.223145 
L 125.712221 54.800618 
L 125.729824 54.827506 
L 125.822857 56.342789 
L 126.015965 55.274471 
L 126.320047 55.285773 
L 126.379307 54.262286 
L 126.398049 54.465177 
L 126.540982 54.659951 
L 126.575598 54.587654 
L 126.651618 52.965702 
L 126.738253 52.774333 
L 126.798905 51.617745 
L 126.817236 51.670444 
L 126.958504 51.73652 
L 127.038171 51.300904 
L 127.03834 50.308251 
L 127.157525 49.968637 
L 127.259275 49.259342 
L 127.287103 52.27566 
L 127.383825 53.157242 
L 127.388516 52.768286 
L 127.411316 52.326104 
L 127.447386 53.885445 
L 127.535697 53.87525 
L 127.812288 52.873942 
L 127.882849 50.951135 
L 128.051438 49.863334 
L 128.097428 49.946649 
L 128.112164 50.335253 
L 128.199178 50.222158 
L 128.254159 50.969484 
L 128.358566 50.885664 
L 128.530413 48.66162 
L 128.548965 48.665771 
L 128.640712 48.438963 
L 128.641049 48.610948 
L 128.855355 48.98227 
L 129.102252 50.126194 
L 129.105931 50.027778 
L 129.138576 51.052265 
L 129.196603 51.535771 
L 129.292651 51.526404 
L 129.461146 53.171957 
L 129.525297 52.792543 
L 129.691083 53.195608 
L 129.746401 53.076634 
L 129.884359 54.369012 
L 129.912082 54.334881 
L 130.080281 53.839961 
L 130.2161 55.07618 
L 130.24359 55.055586 
L 130.298908 55.882197 
L 130.354226 55.847155 
L 130.433009 55.537302 
L 130.503295 56.907971 
L 130.561501 55.190544 
L 130.56479 57.511048 
L 130.8133 65.326217 
L 130.850562 65.326638 
L 130.989711 65.152606 
L 131.164657 66.041615 
L 131.252567 66.008388 
L 131.303669 65.42501 
L 131.310341 66.105653 
L 131.40426 66.1054 
L 131.459578 66.791205 
L 131.459578 65.558561 
L 131.499286 66.453282 
L 131.524636 65.789903 
L 131.570215 67.194805 
L 131.625196 67.482043 
L 131.677942 66.23725 
L 131.680514 66.561274 
L 131.775961 66.550256 
L 131.938553 64.698998 
L 132.010747 61.446482 
L 132.029478 64.425556 
L 132.060426 64.775998 
L 132.122722 64.445978 
L 132.183226 63.895383 
L 132.315787 63.89173 
L 132.536934 65.113789 
L 132.700791 65.144525 
L 133.154235 70.44078 
L 133.255564 70.463498 
L 133.308922 71.586696 
L 133.366116 69.030475 
L 133.393691 68.878841 
L 133.412243 70.194444 
L 133.42428 69.852965 
L 133.54121 69.954934 
L 133.780581 71.303261 
L 133.898448 71.344603 
L 133.946536 71.766057 
L 133.974026 70.484158 
L 134.001738 71.117248 
L 134.084525 70.872729 
L 134.112754 70.872837 
L 134.11775 71.058958 
L 134.137756 71.02464 
L 134.250448 70.936465 
L 134.277939 71.755569 
L 134.348077 71.516071 
L 134.554361 72.146088 
L 134.642567 71.9142 
L 134.66466 71.932564 
L 134.828601 70.238814 
L 134.941251 73.259767 
L 134.941251 70.876719 
L 135.051719 68.750057 
L 135.272675 68.758352 
L 135.38114 67.203521 
L 135.291153 68.86157 
L 135.383312 67.271603 
L 135.43844 67.419881 
L 135.456992 67.057083 
L 135.466099 68.775464 
L 135.532274 68.914508 
L 135.540443 65.584274 
L 135.617855 67.15169 
L 135.770012 66.459799 
L 135.770181 66.705247 
L 136.001035 66.512665 
L 136.04265 65.12315 
L 136.123646 65.39157 
L 136.201858 65.489413 
L 136.21222 65.457391 
L 136.322856 66.093909 
L 136.377837 66.056431 
L 136.483572 68.07229 
L 136.488811 67.859994 
L 136.543792 66.096286 
L 136.709409 65.637445 
L 136.801662 64.263724 
L 136.820045 64.438625 
L 136.941149 63.968085 
L 136.996931 67.100033 
L 137.052913 65.825028 
L 137.065499 65.826202 
L 137.174797 66.782781 
L 137.206935 64.873112 
L 137.358808 64.878491 
L 137.497619 67.227057 
L 137.524709 65.985868 
L 137.566166 68.46526 
L 137.635346 68.81695 
L 137.676803 68.455689 
L 137.739046 68.503829 
L 137.805959 68.720269 
L 137.828759 68.614931 
L 138.063524 68.641835 
L 138.165359 66.861377 
L 138.201988 67.214768 
L 138.229479 67.149928 
L 138.377682 66.368438 
L 138.505564 69.205399 
L 138.643859 68.118009 
L 138.717508 69.40572 
L 138.802688 67.291527 
L 138.896143 67.657777 
L 139.002911 67.722142 
L 139.05824 71.016611 
L 139.114991 70.962283 
L 139.196366 70.563682 
L 139.211208 71.063213 
L 139.307003 70.864151 
L 139.362152 72.120675 
L 139.417639 71.254226 
L 139.507046 72.30389 
L 139.60575 77.917352 
L 139.617166 77.865006 
L 139.693893 77.853471 
L 139.758234 81.056349 
L 139.800661 79.341201 
L 139.915165 83.864949 
L 139.915165 82.234237 
L 140.025465 82.264666 
L 140.138304 82.706338 
L 140.158163 82.397151 
L 140.301718 82.115388 
L 140.19981 82.432886 
L 140.301887 82.275884 
L 140.357036 83.9834 
L 140.412355 83.361594 
L 140.467673 83.890683 
L 140.550481 83.729722 
L 140.662688 83.789061 
L 140.758842 83.685236 
L 140.823636 84.366803 
L 140.868129 84.055969 
L 140.983414 85.332979 
L 141.103157 88.264578 
L 141.193186 88.220888 
L 141.304276 90.002645 
L 141.314985 89.730215 
L 141.345859 89.7288 
L 141.462272 90.575888 
L 141.572519 90.810345 
L 141.572856 90.809458 
L 141.683324 88.583537 
L 141.720206 89.838944 
L 141.756329 90.257717 
L 141.851629 94.002374 
L 141.959746 94.119418 
L 141.959767 94.11729 
L 142.070214 96.598928 
L 142.236168 95.299294 
L 142.258515 96.68362 
L 142.364903 96.45935 
L 142.527453 95.675046 
L 142.531427 95.882831 
L 142.549072 95.825564 
L 142.65038 95.727873 
L 142.673601 95.943186 
L 142.678208 98.41741 
L 142.733357 98.020182 
L 142.90318 97.166205 
L 142.954461 97.257776 
L 143.132348 98.617724 
L 143.196299 98.622328 
L 143.230884 97.382114 
L 143.313861 98.028282 
L 143.341436 101.544474 
L 143.396501 100.907059 
L 143.507137 100.9385 
L 143.70833 101.929501 
L 143.72841 101.322971 
L 143.805516 102.059511 
L 143.838709 102.005098 
L 143.893859 102.074404 
L 143.905021 103.469207 
L 144.004664 102.265359 
L 144.114963 102.339729 
L 144.205824 102.404584 
L 144.207163 100.464644 
L 144.298942 100.835718 
L 144.389994 100.775397 
L 144.446534 104.356649 
L 144.446703 103.988736 
L 144.5782 103.926947 
L 144.582279 103.76584 
L 144.61232 105.80049 
L 144.66747 105.758884 
L 144.778106 107.577018 
L 144.778444 106.647833 
L 144.833424 106.869305 
L 144.993413 103.780037 
L 145.040699 104.208012 
L 145.109678 105.612454 
L 145.187627 105.278247 
L 145.288155 105.06975 
L 145.413759 100.748186 
L 145.441366 100.891041 
L 145.455649 100.946918 
L 145.468108 100.859126 
L 145.551886 100.857436 
L 145.634864 101.549797 
L 145.638669 101.477453 
L 145.690013 101.177046 
L 145.739766 101.22185 
L 145.7455 102.004753 
L 145.82814 101.68286 
L 145.922185 101.640881 
L 146.03533 101.476698 
L 146.417867 104.445787 
L 146.612914 97.365634 
L 146.657238 97.265518 
L 146.701488 97.174216 
L 146.767537 97.262966 
L 146.878174 96.36787 
L 146.933492 96.368037 
L 146.933492 96.237534 
L 146.961151 97.284427 
L 147.044128 97.160967 
L 147.099109 96.461449 
L 147.099246 96.637097 
L 147.254459 97.315723 
L 147.334127 95.66034 
L 147.371515 95.715045 
L 147.430849 95.765788 
L 147.430849 95.58839 
L 147.541907 96.483185 
L 147.596635 96.468943 
L 147.734931 97.357451 
L 147.873226 95.333932 
L 147.972057 93.71367 
L 148.038844 94.515571 
L 148.148837 95.416092 
L 148.17697 90.993363 
L 148.2403 91.003635 
L 148.466516 90.87888 
L 148.505496 90.9546 
L 148.517702 90.822558 
L 148.536033 91.257853 
L 148.591688 89.149567 
L 148.61901 89.267393 
L 148.630584 89.255317 
L 148.654712 89.036291 
L 148.701987 89.462426 
L 148.701987 89.379742 
L 148.833494 88.69846 
L 148.840536 88.706889 
L 148.922923 87.181299 
L 148.959805 87.90287 
L 149.119604 87.887162 
L 149.146662 86.683149 
L 149.226835 87.282306 
L 149.372573 86.429554 
L 149.39279 86.706161 
L 149.446253 86.638564 
L 149.482545 86.927013 
L 149.503426 86.540441 
L 149.505492 86.04066 
L 149.535238 86.222032 
L 149.641363 86.224868 
L 149.972956 85.732027 
L 149.984193 85.74933 
L 150.116649 89.007862 
L 150.249547 88.093622 
L 150.580898 87.806038 
L 150.801717 87.913255 
L 150.83511 91.132461 
L 150.912353 90.383715 
L 150.943986 90.380102 
L 151.188607 90.551408 
L 151.254434 90.145876 
L 151.376307 89.341932 
L 151.458989 89.379965 
L 151.575834 88.83876 
L 151.575834 89.220861 
L 151.603493 89.285888 
L 151.630815 89.264362 
L 151.79677 87.66617 
L 151.852088 87.650954 
L 152.023239 86.972185 
L 152.054851 85.734386 
L 152.183491 85.729926 
L 152.266468 84.499298 
L 152.294296 84.729637 
L 152.404595 84.73209 
L 152.459913 84.58872 
L 152.57055 84.899283 
L 152.680849 88.783747 
L 152.708592 88.784753 
L 152.736167 89.098056 
L 152.824573 88.651498 
L 152.846635 88.737509 
L 153.012421 88.803265 
L 153.049408 89.47153 
L 153.275098 89.324538 
L 153.455272 90.557125 
L 153.537606 90.555595 
L 153.620583 90.208044 
L 153.634329 90.260516 
L 153.648074 91.20673 
L 153.712668 89.396786 
L 153.717137 89.562836 
L 153.841519 89.570188 
L 154.013682 89.263742 
L 154.117773 88.77441 
L 154.117836 88.781116 
L 154.250471 90.573588 
L 154.270646 90.553983 
L 154.339836 92.062774 
L 154.431024 91.853732 
L 154.780916 91.753267 
L 154.884891 96.161421 
L 154.909872 95.832021 
L 154.965876 94.814123 
L 155.030333 94.969418 
L 155.112488 95.126074 
L 155.24156 94.915054 
L 155.333761 95.100205 
L 155.370527 94.93602 
L 155.44406 95.729502 
L 155.582187 95.72646 
L 155.661401 96.491246 
L 155.76079 96.433335 
L 155.83095 96.419527 
L 155.83095 96.481154 
L 156.052223 96.819964 
L 156.079882 96.794927 
L 156.107319 97.25959 
L 156.162522 94.869977 
L 156.168277 95.355123 
L 156.275603 95.361672 
L 156.383794 95.601719 
L 156.48506 96.705331 
L 156.494093 95.824652 
L 156.660048 95.764069 
L 156.687138 95.426739 
L 156.852207 95.350192 
L 156.915842 96.618986 
L 156.954158 96.338011 
L 157.074597 96.270083 
L 157.12766 96.787762 
L 157.157574 96.466688 
L 157.433196 96.794474 
L 157.516468 97.095698 
L 157.544296 97.091923 
L 157.691646 96.786928 
L 157.848208 96.696611 
L 157.931017 96.052106 
L 157.986335 95.85373 
L 158.063926 96.704969 
L 158.115302 96.553435 
L 158.179612 96.613857 
L 158.409992 96.926168 
L 158.502192 96.709671 
L 158.796882 96.846167 
L 158.870414 96.864823 
L 158.990274 93.889533 
L 159.069193 93.227485 
L 159.092309 93.854807 
L 159.202323 94.455107 
L 159.263987 94.596624 
L 159.533727 94.545438 
L 159.683027 90.956232 
L 159.699512 91.74445 
L 159.767416 91.740108 
L 159.776819 91.142148 
L 159.837639 91.151637 
L 159.902117 91.480639 
L 160.031084 89.684144 
L 160.224361 89.671768 
L 160.252357 89.828489 
L 160.307454 89.442174 
L 160.59312 90.082369 
L 160.8995 89.735274 
L 161.039629 90.024081 
L 161.044236 89.497115 
L 161.047588 90.837049 
L 161.215429 91.213791 
L 161.247072 91.173025 
L 161.615295 91.191924 
L 161.744377 91.957982 
L 161.802457 91.916524 
L 161.88222 92.034957 
L 162.075833 94.209122 
L 162.518042 94.321946 
L 162.727277 95.595385 
L 162.742255 95.155239 
L 162.766636 95.371088 
L 162.987571 95.730729 
L 163.015231 92.868891 
L 163.107315 93.195233 
L 163.932018 93.06019 
L 164.12092 92.931481 
L 164.32655 93.095046 
L 164.332579 93.085966 
L 164.438103 94.02035 
L 164.576704 92.898661 
L 164.618109 93.53547 
L 164.689228 94.829322 
L 164.728576 94.828422 
L 164.783842 94.832487 
L 164.811722 93.74288 
L 165.05998 93.932451 
L 165.170785 93.872501 
L 165.177942 94.377549 
L 166.510258 94.48942 
L 166.736612 94.518587 
L 166.800784 94.286841 
L 166.802703 94.919756 
L 166.861204 94.906706 
L 166.933556 94.759222 
L 167.1913 94.881249 
L 167.415556 91.517826 
L 167.436638 92.45659 
L 167.49184 92.454054 
L 167.837189 92.400724 
L 167.904323 92.609388 
L 168.119545 92.591848 
L 168.293163 92.592385 
L 168.376035 90.397961 
L 168.596971 91.768605 
L 168.598625 91.766345 
L 168.707607 91.80131 
L 168.92869 91.803681 
L 169.171793 94.093123 
L 169.237472 94.033078 
L 169.497314 94.037371 
L 169.702322 95.486374 
L 169.817565 95.543876 
L 169.85918 95.897383 
L 169.960361 95.894214 
L 169.978913 96.460108 
L 170.016765 95.90178 
L 170.244647 96.556533 
L 170.724697 96.952394 
L 170.918648 97.037185 
L 171.328137 97.839849 
L 171.650349 98.223668 
L 171.653258 98.382489 
L 172.382725 98.337222 
L 172.439466 94.711231 
L 172.742124 94.904108 
L 172.937551 95.039552 
L 173.073527 95.10801 
L 173.351604 95.203736 
L 173.503845 98.243069 
L 173.534835 98.227354 
L 173.612416 98.265567 
L 173.791209 98.990245 
L 173.98671 99.22505 
L 174.012756 99.315701 
L 174.013125 99.315179 
L 174.17871 97.966871 
L 174.234029 98.39691 
L 174.95249 98.50983 
L 175.077989 102.587546 
L 175.453274 102.647918 
L 175.72627 105.44576 
L 176.094198 105.497784 
L 176.251119 105.928819 
L 176.568882 106.071322 
L 176.776304 106.609507 
L 177.715701 106.639643 
L 177.743192 107.054905 
L 177.955505 107.32598 
L 178.890117 107.323598 
L 178.931689 107.850652 
L 179.560417 107.962807 
L 179.884748 107.979404 
L 180.239425 107.954981 
L 181.07919 107.801697 
L 181.142056 107.80907 
L 181.142056 108.002205 
L 181.676127 108.498128 
L 182.026135 107.786366 
L 182.523661 107.80843 
L 182.654557 105.148221 
L 183.26174 105.153603 
L 183.575244 104.171012 
L 183.629013 104.116722 
L 183.684331 104.529838 
L 184.285421 104.526052 
L 184.335089 107.993095 
L 184.402793 107.764249 
L 184.660737 107.427986 
L 184.734365 106.555706 
L 184.806907 106.601383 
L 185.093427 106.871736 
L 185.176236 106.778718 
L 185.99142 106.797396 
L 186.097366 106.487932 
L 186.350651 106.701933 
L 186.476614 108.096265 
L 186.736065 108.051211 
L 186.780874 106.527295 
L 187.35928 106.52805 
L 187.672922 101.220977 
L 187.964934 101.220207 
L 187.990085 97.092325 
L 188.030013 97.127429 
L 189.76326 97.051977 
L 190.095349 96.906848 
L 190.396911 97.056378 
L 190.466396 96.455206 
L 190.525951 96.462702 
L 190.709825 96.498065 
L 190.933396 96.747127 
L 191.36597 96.764042 
L 191.635941 98.815184 
L 191.698954 101.525466 
L 191.725032 101.343586 
L 192.913024 101.28898 
L 192.942939 100.78925 
L 192.973549 103.33328 
L 193.00533 103.296032 
L 193.279486 103.131196 
L 193.396805 102.532858 
L 193.465478 102.503137 
L 193.493696 101.114714 
L 193.554179 101.246934 
L 193.808055 101.126175 
L 193.963395 99.502503 
L 193.990885 99.560529 
L 194.253478 99.556421 
L 194.294714 98.359992 
L 194.819983 98.252152 
L 194.826371 98.247639 
L 195.455299 98.254099 
L 195.742832 98.86302 
L 195.989645 97.052022 
L 196.229164 97.036684 
L 196.3396 95.911962 
L 197.552141 95.938238 
L 197.648558 99.644562 
L 198.455257 99.493621 
L 198.58707 98.903596 
L 198.599466 98.906032 
L 199.047608 98.86001 
L 199.296371 98.056959 
L 199.296414 93.916878 
L 200.042324 93.908961 
L 200.2126 95.171245 
L 200.360129 95.171515 
L 200.512191 94.763602 
L 202.36847 94.821237 
L 202.473921 94.934423 
L 203.054466 94.892018 
L 203.192425 94.69206 
L 203.220084 95.031685 
L 203.302871 95.021365 
L 205.513427 95.048365 
L 205.668145 95.173051 
L 206.176908 95.012249 
L 207.890085 94.938804 
L 208.34469 94.867756 
L 208.458299 95.026194 
L 209.83457 95.011787 
L 209.916388 95.58739 
L 210.730645 95.570081 
L 211.042484 95.598153 
L 211.261122 97.871712 
L 211.482057 98.628649 
L 213.752675 98.668831 
L 214.127148 98.905367 
L 219.108483 98.906951 
L 219.108483 98.906951 
" clip-path="url(#pbdc75b23d9)" style="fill: none; stroke: #0c5da5; stroke-width: 2; stroke-linecap: square"/>
   </g>
   <g id="patch_3">
    <path d="M 32.685756 163.43218 
L 32.685756 17.90218 
" style="fill: none; stroke: #000000; stroke-width: 0.5; stroke-linejoin: miter; stroke-linecap: square"/>
   </g>
   <g id="patch_4">
    <path d="M 227.985756 163.43218 
L 227.985756 17.90218 
" style="fill: none; stroke: #000000; stroke-width: 0.5; stroke-linejoin: miter; stroke-linecap: square"/>
   </g>
   <g id="patch_5">
    <path d="M 32.685756 163.43218 
L 227.985756 163.43218 
" style="fill: none; stroke: #000000; stroke-width: 0.5; stroke-linejoin: miter; stroke-linecap: square"/>
   </g>
   <g id="patch_6">
    <path d="M 32.685756 17.90218 
L 227.985756 17.90218 
" style="fill: none; stroke: #000000; stroke-width: 0.5; stroke-linejoin: miter; stroke-linecap: square"/>
   </g>
   <g id="text_11">
    <!-- RMSE decreases with Height -->
    <g transform="translate(55.813897 11.90218) scale(0.12 -0.12)">
     <defs>
      <path id="CMR17-64" d="M 1869 4345 
L 1869 4179 
C 2246 4179 2304 4141 2304 3843 
L 2304 2371 
C 2278 2403 2016 2816 1498 2816 
C 845 2816 211 2228 211 1376 
C 211 529 806 -64 1434 -64 
C 1978 -64 2259 361 2291 406 
L 2291 -64 
L 3066 -13 
L 3066 154 
C 2688 154 2630 193 2630 503 
L 2630 4416 
L 1869 4345 
z
M 2291 762 
C 2291 568 2176 393 2029 264 
C 1811 70 1594 38 1472 38 
C 1286 38 621 135 621 1369 
C 621 2636 1363 2713 1530 2713 
C 1824 2713 2061 2545 2208 2313 
C 2291 2177 2291 2157 2291 2041 
L 2291 762 
z
" transform="scale(0.015625)"/>
      <path id="CMR17-63" d="M 2234 2240 
C 2112 2240 1933 2240 1933 2015 
C 1933 1836 2080 1785 2163 1785 
C 2208 1785 2394 1804 2394 2028 
C 2394 2476 1958 2816 1466 2816 
C 787 2816 211 2201 211 1379 
C 211 521 813 -64 1466 -64 
C 2259 -64 2458 676 2458 747 
C 2458 773 2451 792 2406 792 
C 2362 792 2355 786 2330 702 
C 2163 180 1798 51 1523 51 
C 1114 51 621 431 621 1385 
C 621 2358 1094 2700 1472 2700 
C 1722 2700 2093 2582 2234 2240 
z
" transform="scale(0.015625)"/>
      <path id="CMR17-61" d="M 2304 1656 
C 2304 2048 2304 2275 2035 2534 
C 1798 2751 1523 2816 1306 2816 
C 800 2816 435 2408 435 1977 
C 435 1740 627 1728 666 1728 
C 749 1728 896 1779 896 1958 
C 896 2118 774 2188 666 2188 
C 640 2188 608 2182 589 2176 
C 723 2594 1069 2713 1293 2713 
C 1613 2713 1965 2421 1965 1875 
L 1965 1632 
C 1587 1619 1133 1568 774 1373 
C 371 1147 256 822 256 576 
C 256 77 832 -64 1171 -64 
C 1523 -64 1850 135 1990 505 
C 2003 219 2182 -39 2464 -39 
C 2598 -39 2938 51 2938 563 
L 2938 926 
L 2822 926 
L 2822 557 
C 2822 161 2650 109 2566 109 
C 2304 109 2304 446 2304 732 
L 2304 1656 
z
M 1965 887 
C 1965 323 1568 38 1216 38 
C 896 38 646 278 646 576 
C 646 771 730 1114 1101 1322 
C 1408 1497 1760 1523 1965 1536 
L 1965 887 
z
" transform="scale(0.015625)"/>
      <path id="CMR17-73" d="M 1978 2688 
C 1978 2803 1971 2809 1933 2809 
C 1907 2809 1901 2803 1824 2707 
C 1805 2681 1747 2617 1728 2592 
C 1523 2809 1235 2816 1126 2816 
C 416 2816 160 2444 160 2073 
C 160 1497 813 1363 998 1324 
C 1402 1241 1542 1216 1677 1100 
C 1760 1024 1901 883 1901 652 
C 1901 384 1747 38 1158 38 
C 602 38 403 460 288 1024 
C 269 1113 269 1120 218 1120 
C 166 1120 160 1113 160 985 
L 160 64 
C 160 -52 166 -58 205 -58 
C 237 -58 243 -52 275 0 
C 314 57 410 211 448 275 
C 576 102 800 -64 1158 -64 
C 1792 -64 2131 281 2131 780 
C 2131 1107 1958 1280 1875 1356 
C 1683 1555 1459 1600 1190 1651 
C 838 1728 390 1817 390 2208 
C 390 2374 480 2726 1126 2726 
C 1811 2726 1850 2086 1862 1881 
C 1869 1849 1901 1843 1920 1843 
C 1978 1843 1978 1862 1978 1971 
L 1978 2688 
z
" transform="scale(0.015625)"/>
      <path id="CMR17-77" d="M 3725 2186 
C 3853 2566 4109 2579 4205 2585 
L 4205 2752 
C 4077 2745 3949 2739 3821 2739 
C 3699 2739 3424 2739 3315 2752 
L 3315 2585 
C 3514 2572 3622 2456 3622 2296 
C 3622 2251 3610 2193 3597 2148 
L 2995 398 
L 2342 2296 
C 2330 2341 2310 2392 2310 2418 
C 2310 2585 2528 2585 2630 2585 
L 2630 2752 
C 2483 2739 2214 2739 2061 2739 
C 1901 2739 1734 2739 1587 2752 
L 1587 2585 
C 1939 2585 1939 2572 2074 2167 
L 1485 443 
L 851 2302 
C 819 2386 819 2399 819 2418 
C 819 2585 1037 2585 1139 2585 
L 1139 2752 
C 986 2739 717 2739 557 2739 
C 416 2739 198 2739 64 2752 
L 64 2585 
C 346 2585 416 2566 486 2353 
L 1274 38 
C 1299 -45 1318 -64 1370 -64 
C 1414 -64 1440 -52 1472 44 
L 2131 1987 
L 2797 44 
C 2829 -52 2854 -64 2899 -64 
C 2950 -64 2970 -45 2995 38 
L 3725 2186 
z
" transform="scale(0.015625)"/>
     </defs>
     <use xlink:href="#CMR17-52" transform="scale(0.996264)"/>
     <use xlink:href="#CMR17-4d" transform="translate(67.791102 0) scale(0.996264)"/>
     <use xlink:href="#CMR17-53" transform="translate(152.478043 0) scale(0.996264)"/>
     <use xlink:href="#CMR17-45" transform="translate(203.373412 0) scale(0.996264)"/>
     <use xlink:href="#CMR17-64" transform="translate(296.035679 0) scale(0.996264)"/>
     <use xlink:href="#CMR17-65" transform="translate(346.931049 0) scale(0.996264)"/>
     <use xlink:href="#CMR17-63" transform="translate(387.416709 0) scale(0.996264)"/>
     <use xlink:href="#CMR17-72" transform="translate(427.90237 0) scale(0.996264)"/>
     <use xlink:href="#CMR17-65" transform="translate(463.183138 0) scale(0.996264)"/>
     <use xlink:href="#CMR17-61" transform="translate(503.668798 0) scale(0.996264)"/>
     <use xlink:href="#CMR17-73" transform="translate(549.359275 0) scale(0.996264)"/>
     <use xlink:href="#CMR17-65" transform="translate(585.160613 0) scale(0.996264)"/>
     <use xlink:href="#CMR17-73" transform="translate(625.646273 0) scale(0.996264)"/>
     <use xlink:href="#CMR17-77" transform="translate(691.523577 0) scale(0.996264)"/>
     <use xlink:href="#CMR17-69" transform="translate(758.033458 0) scale(0.996264)"/>
     <use xlink:href="#CMR17-74" transform="translate(782.904516 0) scale(0.996264)"/>
     <use xlink:href="#CMR17-68" transform="translate(818.185284 0) scale(0.996264)"/>
     <use xlink:href="#CMR17-48" transform="translate(899.15662 0) scale(0.996264)"/>
     <use xlink:href="#CMR17-65" transform="translate(968.22905 0) scale(0.996264)"/>
     <use xlink:href="#CMR17-69" transform="translate(1008.714711 0) scale(0.996264)"/>
     <use xlink:href="#CMR17-67" transform="translate(1033.585769 0) scale(0.996264)"/>
     <use xlink:href="#CMR17-68" transform="translate(1079.276246 0) scale(0.996264)"/>
     <use xlink:href="#CMR17-74" transform="translate(1127.569162 0) scale(0.996264)"/>
    </g>
   </g>
  </g>
 </g>
 <defs>
  <clipPath id="pbdc75b23d9">
   <rect x="32.685756" y="17.90218" width="195.3" height="145.53"/>
  </clipPath>
 </defs>
</svg>
