<?xml version="1.0" encoding="utf-8" standalone="no"?>
<!DOCTYPE svg PUBLIC "-//W3C//DTD SVG 1.1//EN"
  "http://www.w3.org/Graphics/SVG/1.1/DTD/svg11.dtd">
<svg xmlns:xlink="http://www.w3.org/1999/xlink" width="231.585756pt" height="192.243533pt" viewBox="0 0 231.585756 192.243533" xmlns="http://www.w3.org/2000/svg" version="1.1">
 <metadata>
  <rdf:RDF xmlns:dc="http://purl.org/dc/elements/1.1/" xmlns:cc="http://creativecommons.org/ns#" xmlns:rdf="http://www.w3.org/1999/02/22-rdf-syntax-ns#">
   <cc:Work>
    <dc:type rdf:resource="http://purl.org/dc/dcmitype/StillImage"/>
    <dc:date>2024-06-12T10:10:42.883057</dc:date>
    <dc:format>image/svg+xml</dc:format>
    <dc:creator>
     <cc:Agent>
      <dc:title>Matplotlib v3.8.4, https://matplotlib.org/</dc:title>
     </cc:Agent>
    </dc:creator>
   </cc:Work>
  </rdf:RDF>
 </metadata>
 <defs>
  <style type="text/css">*{stroke-linejoin: round; stroke-linecap: butt}</style>
 </defs>
 <g id="figure_1">
  <g id="patch_1">
   <path d="M 0 192.243533 
L 231.585756 192.243533 
L 231.585756 0 
L 0 0 
z
" style="fill: #ffffff"/>
  </g>
  <g id="axes_1">
   <g id="patch_2">
    <path d="M 32.685756 163.43218 
L 227.985756 163.43218 
L 227.985756 17.90218 
L 32.685756 17.90218 
z
" style="fill: #ffffff"/>
   </g>
   <g id="PolyCollection_1">
    <defs>
     <path id="mbf0a16df32" d="M 81.513033 -15.289157 
L 81.508478 -15.289157 
L 81.504037 -16.915425 
L 81.49408 -18.541693 
L 81.474454 -20.167961 
L 81.439519 -21.794229 
L 81.384269 -23.420497 
L 81.309188 -25.046765 
L 81.222692 -26.673033 
L 81.1351 -28.299301 
L 81.04696 -29.925569 
L 80.943054 -31.551837 
L 80.800894 -33.178105 
L 80.608988 -34.804373 
L 80.377143 -36.430641 
L 80.12649 -38.056909 
L 79.8681 -39.683176 
L 79.590331 -41.309444 
L 79.264984 -42.935712 
L 78.863825 -44.56198 
L 78.370837 -46.188248 
L 77.787394 -47.814516 
L 77.130188 -49.440784 
L 76.414214 -51.067052 
L 75.633386 -52.69332 
L 74.768845 -54.319588 
L 73.818744 -55.945856 
L 72.806124 -57.572124 
L 71.746082 -59.198392 
L 70.613984 -60.82466 
L 69.373614 -62.450928 
L 68.046106 -64.077196 
L 66.720192 -65.703464 
L 65.470789 -67.329732 
L 64.290433 -68.956 
L 63.120192 -70.582267 
L 61.92132 -72.208535 
L 60.701218 -73.834803 
L 59.49745 -75.461071 
L 58.341043 -77.087339 
L 57.207171 -78.713607 
L 56.019693 -80.339875 
L 54.757519 -81.966143 
L 53.543257 -83.592411 
L 52.562181 -85.218679 
L 51.892575 -86.844947 
L 51.449255 -88.471215 
L 51.077499 -90.097483 
L 50.702196 -91.723751 
L 50.419535 -93.350019 
L 50.418267 -94.976287 
L 50.775169 -96.602555 
L 51.372457 -98.228823 
L 52.050224 -99.855091 
L 52.778115 -101.481359 
L 53.631253 -103.107626 
L 54.659277 -104.733894 
L 55.842267 -106.360162 
L 57.152875 -107.98643 
L 58.611888 -109.612698 
L 60.250518 -111.238966 
L 62.01007 -112.865234 
L 63.713239 -114.491502 
L 65.178053 -116.11777 
L 66.367798 -117.744038 
L 67.416385 -119.370306 
L 68.497817 -120.996574 
L 69.678853 -122.622842 
L 70.904506 -124.24911 
L 72.082831 -125.875378 
L 73.14411 -127.501646 
L 74.060659 -129.127914 
L 74.856165 -130.754182 
L 75.582324 -132.38045 
L 76.282598 -134.006717 
L 76.981893 -135.632985 
L 77.677338 -137.259253 
L 78.33028 -138.885521 
L 78.895611 -140.511789 
L 79.358215 -142.138057 
L 79.732527 -143.764325 
L 80.043315 -145.390593 
L 80.311071 -147.016861 
L 80.544504 -148.643129 
L 80.74553 -150.269397 
L 80.918248 -151.895665 
L 81.066201 -153.521933 
L 81.187036 -155.148201 
L 81.277731 -156.774469 
L 81.340941 -158.400737 
L 81.382809 -160.027005 
L 81.409286 -161.653273 
L 81.426264 -163.279541 
L 81.439137 -164.905808 
L 81.450759 -166.532076 
L 81.461824 -168.158344 
L 81.473002 -169.784612 
L 81.484722 -171.41088 
L 81.495671 -173.037148 
L 81.503732 -174.663416 
L 81.508195 -176.289684 
L 81.513316 -176.289684 
L 81.513316 -176.289684 
L 81.517779 -174.663416 
L 81.52584 -173.037148 
L 81.536789 -171.41088 
L 81.548509 -169.784612 
L 81.559688 -168.158344 
L 81.570752 -166.532076 
L 81.582374 -164.905808 
L 81.595248 -163.279541 
L 81.612226 -161.653273 
L 81.638703 -160.027005 
L 81.680571 -158.400737 
L 81.743781 -156.774469 
L 81.834476 -155.148201 
L 81.95531 -153.521933 
L 82.103264 -151.895665 
L 82.275982 -150.269397 
L 82.477008 -148.643129 
L 82.71044 -147.016861 
L 82.978196 -145.390593 
L 83.288984 -143.764325 
L 83.663296 -142.138057 
L 84.1259 -140.511789 
L 84.691231 -138.885521 
L 85.344173 -137.259253 
L 86.039618 -135.632985 
L 86.738913 -134.006717 
L 87.439187 -132.38045 
L 88.165347 -130.754182 
L 88.960852 -129.127914 
L 89.877401 -127.501646 
L 90.93868 -125.875378 
L 92.117006 -124.24911 
L 93.342658 -122.622842 
L 94.523694 -120.996574 
L 95.605127 -119.370306 
L 96.653713 -117.744038 
L 97.843459 -116.11777 
L 99.308272 -114.491502 
L 101.011442 -112.865234 
L 102.770994 -111.238966 
L 104.409623 -109.612698 
L 105.868637 -107.98643 
L 107.179244 -106.360162 
L 108.362234 -104.733894 
L 109.390259 -103.107626 
L 110.243397 -101.481359 
L 110.971287 -99.855091 
L 111.649054 -98.228823 
L 112.246342 -96.602555 
L 112.603244 -94.976287 
L 112.601976 -93.350019 
L 112.319315 -91.723751 
L 111.944012 -90.097483 
L 111.572256 -88.471215 
L 111.128936 -86.844947 
L 110.459331 -85.218679 
L 109.478254 -83.592411 
L 108.263992 -81.966143 
L 107.001818 -80.339875 
L 105.81434 -78.713607 
L 104.680468 -77.087339 
L 103.524061 -75.461071 
L 102.320294 -73.834803 
L 101.100191 -72.208535 
L 99.90132 -70.582267 
L 98.731079 -68.956 
L 97.550723 -67.329732 
L 96.301319 -65.703464 
L 94.975405 -64.077196 
L 93.647897 -62.450928 
L 92.407527 -60.82466 
L 91.275429 -59.198392 
L 90.215387 -57.572124 
L 89.202767 -55.945856 
L 88.252667 -54.319588 
L 87.388126 -52.69332 
L 86.607297 -51.067052 
L 85.891324 -49.440784 
L 85.234117 -47.814516 
L 84.650674 -46.188248 
L 84.157687 -44.56198 
L 83.756527 -42.935712 
L 83.431181 -41.309444 
L 83.153411 -39.683176 
L 82.895021 -38.056909 
L 82.644368 -36.430641 
L 82.412523 -34.804373 
L 82.220617 -33.178105 
L 82.078457 -31.551837 
L 81.974551 -29.925569 
L 81.886411 -28.299301 
L 81.79882 -26.673033 
L 81.712323 -25.046765 
L 81.637242 -23.420497 
L 81.581993 -21.794229 
L 81.547058 -20.167961 
L 81.527431 -18.541693 
L 81.517475 -16.915425 
L 81.513033 -15.289157 
z
" style="stroke: #353535; stroke-width: 1.25"/>
    </defs>
    <g clip-path="url(#p3f177bdaf2)">
     <use xlink:href="#mbf0a16df32" x="0" y="192.243533" style="fill: #1f5c92; stroke: #353535; stroke-width: 1.25"/>
    </g>
   </g>
   <g id="PolyCollection_2">
    <defs>
     <path id="m5d4d23140b" d="M 179.161894 -28.673754 
L 179.159617 -28.673754 
L 179.156318 -30.241572 
L 179.150196 -31.809389 
L 179.143726 -33.377206 
L 179.137988 -34.945023 
L 179.130103 -36.512841 
L 179.119679 -38.080658 
L 179.108561 -39.648475 
L 179.092391 -41.216293 
L 179.065273 -42.78411 
L 179.033647 -44.351927 
L 179.007502 -45.919744 
L 178.981656 -47.487562 
L 178.942808 -49.055379 
L 178.881291 -50.623196 
L 178.800909 -52.191013 
L 178.715489 -53.758831 
L 178.602928 -55.326648 
L 178.417999 -56.894465 
L 178.154916 -58.462283 
L 177.830065 -60.0301 
L 177.477714 -61.597917 
L 177.114622 -63.165734 
L 176.659644 -64.733552 
L 176.036665 -66.301369 
L 175.291405 -67.869186 
L 174.526326 -69.437004 
L 173.70564 -71.004821 
L 172.641119 -72.572638 
L 171.350075 -74.140455 
L 170.083812 -75.708273 
L 168.856597 -77.27609 
L 167.401299 -78.843907 
L 165.591588 -80.411724 
L 163.595169 -81.979542 
L 161.658747 -83.547359 
L 159.818982 -85.115176 
L 157.868891 -86.682994 
L 155.591727 -88.250811 
L 153.129211 -89.818628 
L 150.876908 -91.386445 
L 148.943016 -92.954263 
L 147.171985 -94.52208 
L 145.47459 -96.089897 
L 143.910649 -97.657715 
L 142.629666 -99.225532 
L 141.699225 -100.793349 
L 141.179552 -102.361166 
L 140.910665 -103.928984 
L 140.480115 -105.496801 
L 140.100756 -107.064618 
L 140.497526 -108.632435 
L 141.711427 -110.200253 
L 143.221602 -111.76807 
L 144.759513 -113.335887 
L 146.311904 -114.903705 
L 148.110621 -116.471522 
L 150.360712 -118.039339 
L 152.726784 -119.607156 
L 154.832003 -121.174974 
L 156.806996 -122.742791 
L 158.840554 -124.310608 
L 160.85046 -125.878426 
L 162.725503 -127.446243 
L 164.46593 -129.01406 
L 166.10041 -130.581877 
L 167.608762 -132.149695 
L 169.005689 -133.717512 
L 170.358769 -135.285329 
L 171.655299 -136.853146 
L 172.796825 -138.420964 
L 173.74995 -139.988781 
L 174.599437 -141.556598 
L 175.380949 -143.124416 
L 176.062115 -144.692233 
L 176.643872 -146.26005 
L 177.11131 -147.827867 
L 177.474576 -149.395685 
L 177.796485 -150.963502 
L 178.086289 -152.531319 
L 178.309999 -154.099137 
L 178.475008 -155.666954 
L 178.616456 -157.234771 
L 178.742089 -158.802588 
L 178.841785 -160.370406 
L 178.916709 -161.938223 
L 178.970519 -163.50604 
L 179.007399 -165.073857 
L 179.040986 -166.641675 
L 179.080514 -168.209492 
L 179.116553 -169.777309 
L 179.138403 -171.345127 
L 179.14864 -172.912944 
L 179.154372 -174.480761 
L 179.157246 -176.048578 
L 179.156216 -177.616396 
L 179.15374 -179.184213 
L 179.154181 -180.75203 
L 179.157327 -182.319848 
L 179.159767 -183.887665 
L 179.161744 -183.887665 
L 179.161744 -183.887665 
L 179.164184 -182.319848 
L 179.16733 -180.75203 
L 179.167771 -179.184213 
L 179.165295 -177.616396 
L 179.164266 -176.048578 
L 179.16714 -174.480761 
L 179.172872 -172.912944 
L 179.183108 -171.345127 
L 179.204958 -169.777309 
L 179.240998 -168.209492 
L 179.280526 -166.641675 
L 179.314112 -165.073857 
L 179.350992 -163.50604 
L 179.404802 -161.938223 
L 179.479727 -160.370406 
L 179.579422 -158.802588 
L 179.705056 -157.234771 
L 179.846503 -155.666954 
L 180.011512 -154.099137 
L 180.235222 -152.531319 
L 180.525026 -150.963502 
L 180.846935 -149.395685 
L 181.210201 -147.827867 
L 181.67764 -146.26005 
L 182.259396 -144.692233 
L 182.940562 -143.124416 
L 183.722075 -141.556598 
L 184.571561 -139.988781 
L 185.524687 -138.420964 
L 186.666213 -136.853146 
L 187.962742 -135.285329 
L 189.315822 -133.717512 
L 190.712749 -132.149695 
L 192.221102 -130.581877 
L 193.855581 -129.01406 
L 195.596009 -127.446243 
L 197.471051 -125.878426 
L 199.480957 -124.310608 
L 201.514515 -122.742791 
L 203.489508 -121.174974 
L 205.594727 -119.607156 
L 207.960799 -118.039339 
L 210.210891 -116.471522 
L 212.009607 -114.903705 
L 213.561998 -113.335887 
L 215.099909 -111.76807 
L 216.610085 -110.200253 
L 217.823985 -108.632435 
L 218.220756 -107.064618 
L 217.841396 -105.496801 
L 217.410847 -103.928984 
L 217.14196 -102.361166 
L 216.622287 -100.793349 
L 215.691846 -99.225532 
L 214.410862 -97.657715 
L 212.846922 -96.089897 
L 211.149527 -94.52208 
L 209.378495 -92.954263 
L 207.444604 -91.386445 
L 205.1923 -89.818628 
L 202.729784 -88.250811 
L 200.45262 -86.682994 
L 198.502529 -85.115176 
L 196.662764 -83.547359 
L 194.726342 -81.979542 
L 192.729923 -80.411724 
L 190.920213 -78.843907 
L 189.464914 -77.27609 
L 188.237699 -75.708273 
L 186.971437 -74.140455 
L 185.680393 -72.572638 
L 184.615872 -71.004821 
L 183.795185 -69.437004 
L 183.030106 -67.869186 
L 182.284847 -66.301369 
L 181.661868 -64.733552 
L 181.20689 -63.165734 
L 180.843798 -61.597917 
L 180.491447 -60.0301 
L 180.166595 -58.462283 
L 179.903512 -56.894465 
L 179.718583 -55.326648 
L 179.606022 -53.758831 
L 179.520603 -52.191013 
L 179.44022 -50.623196 
L 179.378703 -49.055379 
L 179.339855 -47.487562 
L 179.31401 -45.919744 
L 179.287864 -44.351927 
L 179.256238 -42.78411 
L 179.22912 -41.216293 
L 179.21295 -39.648475 
L 179.201833 -38.080658 
L 179.191408 -36.512841 
L 179.183523 -34.945023 
L 179.177785 -33.377206 
L 179.171315 -31.809389 
L 179.165193 -30.241572 
L 179.161894 -28.673754 
z
" style="stroke: #353535; stroke-width: 1.25"/>
    </defs>
    <g clip-path="url(#p3f177bdaf2)">
     <use xlink:href="#m5d4d23140b" x="0" y="192.243533" style="fill: #1f5c92; stroke: #353535; stroke-width: 1.25"/>
    </g>
   </g>
   <g id="matplotlib.axis_1">
    <g id="xtick_1">
     <g id="line2d_1">
      <defs>
       <path id="mb2c3389b05" d="M 0 0 
L 0 -3 
" style="stroke: #000000; stroke-width: 0.5"/>
      </defs>
      <g>
       <use xlink:href="#mb2c3389b05" x="81.510756" y="163.43218" style="stroke: #000000; stroke-width: 0.5"/>
      </g>
     </g>
     <g id="line2d_2">
      <defs>
       <path id="m252ceb8aa2" d="M 0 0 
L 0 3 
" style="stroke: #000000; stroke-width: 0.5"/>
      </defs>
      <g>
       <use xlink:href="#m252ceb8aa2" x="81.510756" y="17.90218" style="stroke: #000000; stroke-width: 0.5"/>
      </g>
     </g>
     <g id="text_1">
      <!-- Broadleaf -->
      <g transform="translate(60.672175 173.850678) scale(0.1 -0.1)">
       <defs>
        <path id="CMR17-42" d="M 333 4352 
L 333 4185 
C 774 4185 845 4185 845 3897 
L 845 451 
C 845 166 774 166 333 166 
L 333 0 
L 2534 0 
C 3354 0 3885 578 3885 1155 
C 3885 1726 3360 2214 2675 2259 
C 3290 2380 3718 2790 3718 3276 
C 3718 3808 3194 4352 2368 4352 
L 333 4352 
z
M 1248 2304 
L 1248 3936 
C 1248 4153 1261 4185 1517 4185 
L 2336 4185 
C 2970 4185 3251 3673 3251 3276 
C 3251 2790 2861 2304 2170 2304 
L 1248 2304 
z
M 1517 166 
C 1261 166 1248 198 1248 413 
L 1248 2201 
L 2432 2201 
C 3091 2201 3411 1624 3411 1161 
C 3411 698 3046 166 2349 166 
L 1517 166 
z
" transform="scale(0.015625)"/>
        <path id="CMR17-72" d="M 960 1517 
C 960 2134 1222 2713 1702 2713 
C 1747 2713 1792 2707 1837 2687 
C 1837 2687 1696 2642 1696 2475 
C 1696 2321 1818 2257 1914 2257 
C 1990 2257 2131 2302 2131 2482 
C 2131 2687 1926 2816 1709 2816 
C 1222 2816 1011 2340 947 2115 
L 941 2115 
L 941 2816 
L 198 2745 
L 198 2578 
C 576 2578 634 2540 634 2231 
L 634 443 
C 634 198 608 166 198 166 
L 198 0 
C 352 12 646 12 813 12 
C 998 12 1325 12 1498 0 
L 1498 166 
C 1037 166 960 166 960 455 
L 960 1517 
z
" transform="scale(0.015625)"/>
        <path id="CMR17-6f" d="M 2758 1356 
C 2758 2176 2163 2816 1466 2816 
C 768 2816 173 2176 173 1356 
C 173 550 768 -64 1466 -64 
C 2163 -64 2758 550 2758 1356 
z
M 1466 51 
C 1165 51 909 230 762 480 
C 602 768 582 1126 582 1408 
C 582 1676 595 2009 762 2297 
C 890 2508 1139 2713 1466 2713 
C 1754 2713 1997 2553 2150 2329 
C 2349 2028 2349 1606 2349 1408 
C 2349 1158 2336 774 2163 467 
C 1984 172 1709 51 1466 51 
z
" transform="scale(0.015625)"/>
        <path id="CMR17-61" d="M 2304 1656 
C 2304 2048 2304 2275 2035 2534 
C 1798 2751 1523 2816 1306 2816 
C 800 2816 435 2408 435 1977 
C 435 1740 627 1728 666 1728 
C 749 1728 896 1779 896 1958 
C 896 2118 774 2188 666 2188 
C 640 2188 608 2182 589 2176 
C 723 2594 1069 2713 1293 2713 
C 1613 2713 1965 2421 1965 1875 
L 1965 1632 
C 1587 1619 1133 1568 774 1373 
C 371 1147 256 822 256 576 
C 256 77 832 -64 1171 -64 
C 1523 -64 1850 135 1990 505 
C 2003 219 2182 -39 2464 -39 
C 2598 -39 2938 51 2938 563 
L 2938 926 
L 2822 926 
L 2822 557 
C 2822 161 2650 109 2566 109 
C 2304 109 2304 446 2304 732 
L 2304 1656 
z
M 1965 887 
C 1965 323 1568 38 1216 38 
C 896 38 646 278 646 576 
C 646 771 730 1114 1101 1322 
C 1408 1497 1760 1523 1965 1536 
L 1965 887 
z
" transform="scale(0.015625)"/>
        <path id="CMR17-64" d="M 1869 4345 
L 1869 4179 
C 2246 4179 2304 4141 2304 3843 
L 2304 2371 
C 2278 2403 2016 2816 1498 2816 
C 845 2816 211 2228 211 1376 
C 211 529 806 -64 1434 -64 
C 1978 -64 2259 361 2291 406 
L 2291 -64 
L 3066 -13 
L 3066 154 
C 2688 154 2630 193 2630 503 
L 2630 4416 
L 1869 4345 
z
M 2291 762 
C 2291 568 2176 393 2029 264 
C 1811 70 1594 38 1472 38 
C 1286 38 621 135 621 1369 
C 621 2636 1363 2713 1530 2713 
C 1824 2713 2061 2545 2208 2313 
C 2291 2177 2291 2157 2291 2041 
L 2291 762 
z
" transform="scale(0.015625)"/>
        <path id="CMR17-6c" d="M 979 4416 
L 218 4345 
L 218 4179 
C 595 4179 653 4141 653 3835 
L 653 439 
C 653 198 627 166 218 166 
L 218 0 
C 371 12 653 12 813 12 
C 979 12 1261 12 1414 0 
L 1414 166 
C 1005 166 979 191 979 439 
L 979 4416 
z
" transform="scale(0.015625)"/>
        <path id="CMR17-65" d="M 2438 1503 
C 2464 1529 2464 1542 2464 1606 
C 2464 2251 2118 2816 1389 2816 
C 710 2816 173 2175 173 1394 
C 173 554 781 -64 1459 -64 
C 2176 -64 2458 619 2458 755 
C 2458 800 2419 800 2406 800 
C 2362 800 2355 787 2330 709 
C 2189 270 1837 51 1504 51 
C 1229 51 954 206 781 490 
C 582 819 582 1200 582 1503 
L 2438 1503 
z
M 589 1600 
C 634 2511 1126 2713 1382 2713 
C 1818 2713 2112 2308 2118 1600 
L 589 1600 
z
" transform="scale(0.015625)"/>
        <path id="CMR17-66" d="M 979 2585 
L 1709 2585 
L 1709 2752 
L 966 2752 
L 966 3539 
C 966 4076 1235 4377 1510 4377 
C 1594 4377 1690 4363 1754 4339 
C 1702 4326 1568 4281 1568 4121 
C 1568 3955 1696 3904 1786 3904 
C 1875 3904 2003 3955 2003 4121 
C 2003 4353 1773 4480 1517 4480 
C 1152 4480 653 4211 653 3526 
L 653 2752 
L 141 2752 
L 141 2585 
L 653 2585 
L 653 441 
C 653 198 627 166 218 166 
L 218 0 
C 371 12 666 12 832 12 
C 1018 12 1344 12 1517 0 
L 1517 166 
C 1056 166 979 166 979 454 
L 979 2585 
z
" transform="scale(0.015625)"/>
       </defs>
       <use xlink:href="#CMR17-42" transform="scale(0.996264)"/>
       <use xlink:href="#CMR17-72" transform="translate(65.188754 0) scale(0.996264)"/>
       <use xlink:href="#CMR17-6f" transform="translate(100.469522 0) scale(0.996264)"/>
       <use xlink:href="#CMR17-61" transform="translate(146.159999 0) scale(0.996264)"/>
       <use xlink:href="#CMR17-64" transform="translate(191.850476 0) scale(0.996264)"/>
       <use xlink:href="#CMR17-6c" transform="translate(242.745846 0) scale(0.996264)"/>
       <use xlink:href="#CMR17-65" transform="translate(267.616905 0) scale(0.996264)"/>
       <use xlink:href="#CMR17-61" transform="translate(308.102565 0) scale(0.996264)"/>
       <use xlink:href="#CMR17-66" transform="translate(353.793042 0) scale(0.996264)"/>
      </g>
     </g>
    </g>
    <g id="xtick_2">
     <g id="line2d_3">
      <g>
       <use xlink:href="#mb2c3389b05" x="179.160756" y="163.43218" style="stroke: #000000; stroke-width: 0.5"/>
      </g>
     </g>
     <g id="line2d_4">
      <g>
       <use xlink:href="#m252ceb8aa2" x="179.160756" y="17.90218" style="stroke: #000000; stroke-width: 0.5"/>
      </g>
     </g>
     <g id="text_2">
      <!-- Conifer -->
      <g transform="translate(163.234335 173.850678) scale(0.1 -0.1)">
       <defs>
        <path id="CMR17-43" d="M 3974 4351 
C 3974 4467 3968 4473 3930 4473 
C 3904 4473 3898 4467 3853 4390 
L 3571 3849 
C 3258 4249 2874 4480 2381 4480 
C 1286 4480 294 3507 294 2179 
C 294 837 1286 -128 2387 -128 
C 3366 -128 3974 741 3974 1482 
C 3974 1547 3974 1573 3917 1573 
C 3866 1573 3866 1553 3859 1495 
C 3808 592 3168 38 2477 38 
C 1824 38 781 502 781 2179 
C 781 3862 1843 4313 2464 4313 
C 3187 4313 3712 3681 3834 2785 
C 3846 2707 3846 2695 3904 2695 
C 3974 2695 3974 2707 3974 2824 
L 3974 4351 
z
" transform="scale(0.015625)"/>
        <path id="CMR17-6e" d="M 2656 1954 
C 2656 2282 2592 2816 1837 2816 
C 1331 2816 1069 2424 973 2166 
L 966 2166 
L 966 2816 
L 211 2745 
L 211 2578 
C 589 2578 646 2540 646 2231 
L 646 443 
C 646 198 621 166 211 166 
L 211 0 
C 365 12 646 12 813 12 
C 979 12 1267 12 1421 0 
L 1421 166 
C 1011 166 986 192 986 443 
L 986 1678 
C 986 2269 1344 2713 1792 2713 
C 2266 2713 2317 2289 2317 1980 
L 2317 443 
C 2317 198 2291 166 1882 166 
L 1882 0 
C 2035 12 2317 12 2483 12 
C 2650 12 2938 12 3091 0 
L 3091 166 
C 2682 166 2656 192 2656 443 
L 2656 1954 
z
" transform="scale(0.015625)"/>
        <path id="CMR17-69" d="M 992 3961 
C 992 4102 877 4224 730 4224 
C 589 4224 467 4108 467 3961 
C 467 3820 582 3699 730 3699 
C 870 3699 992 3814 992 3961 
z
M 243 2745 
L 243 2579 
C 602 2579 653 2540 653 2231 
L 653 443 
C 653 198 627 166 218 166 
L 218 0 
C 371 12 646 12 806 12 
C 960 12 1222 12 1370 0 
L 1370 166 
C 992 166 979 205 979 436 
L 979 2816 
L 243 2745 
z
" transform="scale(0.015625)"/>
       </defs>
       <use xlink:href="#CMR17-43" transform="scale(0.996264)"/>
       <use xlink:href="#CMR17-6f" transform="translate(66.509881 0) scale(0.996264)"/>
       <use xlink:href="#CMR17-6e" transform="translate(112.200358 0) scale(0.996264)"/>
       <use xlink:href="#CMR17-69" transform="translate(163.095727 0) scale(0.996264)"/>
       <use xlink:href="#CMR17-66" transform="translate(187.966786 0) scale(0.996264)"/>
       <use xlink:href="#CMR17-65" transform="translate(215.440298 0) scale(0.996264)"/>
       <use xlink:href="#CMR17-72" transform="translate(255.925959 0) scale(0.996264)"/>
      </g>
     </g>
    </g>
    <g id="xtick_3">
     <g id="line2d_5">
      <defs>
       <path id="m56b509eced" d="M 0 0 
L 0 -1.5 
" style="stroke: #000000; stroke-width: 0.5"/>
      </defs>
      <g>
       <use xlink:href="#m56b509eced" x="42.450756" y="163.43218" style="stroke: #000000; stroke-width: 0.5"/>
      </g>
     </g>
     <g id="line2d_6">
      <defs>
       <path id="m46b4922d7d" d="M 0 0 
L 0 1.5 
" style="stroke: #000000; stroke-width: 0.5"/>
      </defs>
      <g>
       <use xlink:href="#m46b4922d7d" x="42.450756" y="17.90218" style="stroke: #000000; stroke-width: 0.5"/>
      </g>
     </g>
    </g>
    <g id="xtick_4">
     <g id="line2d_7">
      <g>
       <use xlink:href="#m56b509eced" x="61.980756" y="163.43218" style="stroke: #000000; stroke-width: 0.5"/>
      </g>
     </g>
     <g id="line2d_8">
      <g>
       <use xlink:href="#m46b4922d7d" x="61.980756" y="17.90218" style="stroke: #000000; stroke-width: 0.5"/>
      </g>
     </g>
    </g>
    <g id="xtick_5">
     <g id="line2d_9">
      <g>
       <use xlink:href="#m56b509eced" x="101.040756" y="163.43218" style="stroke: #000000; stroke-width: 0.5"/>
      </g>
     </g>
     <g id="line2d_10">
      <g>
       <use xlink:href="#m46b4922d7d" x="101.040756" y="17.90218" style="stroke: #000000; stroke-width: 0.5"/>
      </g>
     </g>
    </g>
    <g id="xtick_6">
     <g id="line2d_11">
      <g>
       <use xlink:href="#m56b509eced" x="120.570756" y="163.43218" style="stroke: #000000; stroke-width: 0.5"/>
      </g>
     </g>
     <g id="line2d_12">
      <g>
       <use xlink:href="#m46b4922d7d" x="120.570756" y="17.90218" style="stroke: #000000; stroke-width: 0.5"/>
      </g>
     </g>
    </g>
    <g id="xtick_7">
     <g id="line2d_13">
      <g>
       <use xlink:href="#m56b509eced" x="140.100756" y="163.43218" style="stroke: #000000; stroke-width: 0.5"/>
      </g>
     </g>
     <g id="line2d_14">
      <g>
       <use xlink:href="#m46b4922d7d" x="140.100756" y="17.90218" style="stroke: #000000; stroke-width: 0.5"/>
      </g>
     </g>
    </g>
    <g id="xtick_8">
     <g id="line2d_15">
      <g>
       <use xlink:href="#m56b509eced" x="159.630756" y="163.43218" style="stroke: #000000; stroke-width: 0.5"/>
      </g>
     </g>
     <g id="line2d_16">
      <g>
       <use xlink:href="#m46b4922d7d" x="159.630756" y="17.90218" style="stroke: #000000; stroke-width: 0.5"/>
      </g>
     </g>
    </g>
    <g id="xtick_9">
     <g id="line2d_17">
      <g>
       <use xlink:href="#m56b509eced" x="198.690756" y="163.43218" style="stroke: #000000; stroke-width: 0.5"/>
      </g>
     </g>
     <g id="line2d_18">
      <g>
       <use xlink:href="#m46b4922d7d" x="198.690756" y="17.90218" style="stroke: #000000; stroke-width: 0.5"/>
      </g>
     </g>
    </g>
    <g id="xtick_10">
     <g id="line2d_19">
      <g>
       <use xlink:href="#m56b509eced" x="218.220756" y="163.43218" style="stroke: #000000; stroke-width: 0.5"/>
      </g>
     </g>
     <g id="line2d_20">
      <g>
       <use xlink:href="#m46b4922d7d" x="218.220756" y="17.90218" style="stroke: #000000; stroke-width: 0.5"/>
      </g>
     </g>
    </g>
    <g id="text_3">
     <!-- Dominant Leaf Type -->
     <g transform="translate(84.811928 186.706355) scale(0.1 -0.1)">
      <defs>
       <path id="CMR17-44" d="M 333 4352 
L 333 4185 
C 774 4185 845 4185 845 3898 
L 845 453 
C 845 166 774 166 333 166 
L 333 0 
L 2368 0 
C 3398 0 4224 943 4224 2140 
C 4224 3344 3411 4352 2368 4352 
L 333 4352 
z
M 1523 166 
C 1267 166 1254 198 1254 414 
L 1254 3936 
C 1254 4153 1267 4185 1523 4185 
L 2240 4185 
C 2771 4185 3750 3873 3750 2140 
C 3750 1242 3488 879 3366 707 
C 3213 510 2848 166 2240 166 
L 1523 166 
z
" transform="scale(0.015625)"/>
       <path id="CMR17-6d" d="M 4326 1954 
C 4326 2276 4269 2816 3507 2816 
C 3072 2816 2771 2520 2656 2173 
L 2650 2173 
C 2573 2700 2195 2816 1837 2816 
C 1331 2816 1069 2424 973 2166 
L 966 2166 
L 966 2816 
L 211 2745 
L 211 2578 
C 589 2578 646 2540 646 2231 
L 646 443 
C 646 198 621 166 211 166 
L 211 0 
C 365 12 646 12 813 12 
C 979 12 1267 12 1421 0 
L 1421 166 
C 1011 166 986 192 986 443 
L 986 1678 
C 986 2269 1344 2713 1792 2713 
C 2266 2713 2317 2289 2317 1980 
L 2317 443 
C 2317 198 2291 166 1882 166 
L 1882 0 
C 2035 12 2317 12 2483 12 
C 2650 12 2938 12 3091 0 
L 3091 166 
C 2682 166 2656 192 2656 443 
L 2656 1678 
C 2656 2269 3014 2713 3462 2713 
C 3936 2713 3987 2289 3987 1980 
L 3987 443 
C 3987 198 3962 166 3552 166 
L 3552 0 
C 3706 12 3987 12 4154 12 
C 4320 12 4608 12 4762 0 
L 4762 166 
C 4352 166 4326 192 4326 443 
L 4326 1954 
z
" transform="scale(0.015625)"/>
       <path id="CMR17-74" d="M 966 2585 
L 1862 2585 
L 1862 2752 
L 966 2752 
L 966 3968 
L 851 3968 
C 838 3292 614 2700 70 2687 
L 70 2585 
L 627 2585 
L 627 778 
C 627 655 627 -64 1370 -64 
C 1747 -64 1965 308 1965 784 
L 1965 1151 
L 1850 1151 
L 1850 790 
C 1850 347 1677 51 1408 51 
C 1222 51 966 179 966 765 
L 966 2585 
z
" transform="scale(0.015625)"/>
       <path id="CMR17-4c" d="M 3469 1612 
L 3354 1612 
C 3302 981 3219 166 2125 166 
L 1530 166 
C 1274 166 1261 198 1261 414 
L 1261 3892 
C 1261 4121 1274 4185 1760 4185 
L 1901 4185 
L 1901 4352 
C 1638 4339 1331 4339 1069 4339 
C 870 4339 512 4339 326 4352 
L 326 4185 
C 768 4185 838 4185 838 3898 
L 838 453 
C 838 166 768 166 326 166 
L 326 0 
L 3315 0 
L 3469 1612 
z
" transform="scale(0.015625)"/>
       <path id="CMR17-54" d="M 3981 4332 
L 288 4332 
L 179 2924 
L 294 2924 
C 378 3981 467 4166 1453 4166 
C 1568 4166 1754 4166 1805 4159 
C 1926 4140 1926 4064 1926 3917 
L 1926 465 
C 1926 236 1907 166 1376 166 
L 1197 166 
L 1197 0 
C 1504 6 1824 12 2138 12 
C 2451 12 2771 6 3078 0 
L 3078 166 
L 2899 166 
C 2368 166 2349 236 2349 465 
L 2349 3917 
C 2349 4057 2349 4134 2464 4159 
C 2515 4166 2701 4166 2816 4166 
C 3795 4166 3891 3981 3974 2924 
L 4090 2924 
L 3981 4332 
z
" transform="scale(0.015625)"/>
       <path id="CMR17-79" d="M 2496 2183 
C 2656 2579 2944 2585 3034 2585 
L 3034 2752 
C 2912 2745 2752 2739 2630 2739 
C 2496 2739 2285 2739 2157 2752 
L 2157 2585 
C 2400 2566 2406 2384 2406 2332 
C 2406 2268 2394 2235 2362 2158 
L 1664 409 
L 902 2300 
C 870 2378 870 2423 870 2430 
C 870 2572 1018 2585 1171 2585 
L 1171 2752 
C 1018 2739 742 2739 582 2739 
C 410 2739 205 2739 64 2752 
L 64 2585 
C 410 2585 448 2553 531 2345 
L 1485 -31 
C 1197 -795 1030 -1242 627 -1242 
C 557 -1242 397 -1223 282 -1106 
C 429 -1093 493 -1002 493 -892 
C 493 -782 416 -685 288 -685 
C 147 -685 77 -782 77 -899 
C 77 -1158 339 -1344 627 -1344 
C 998 -1344 1229 -983 1357 -659 
L 2496 2183 
z
" transform="scale(0.015625)"/>
       <path id="CMR17-70" d="M 1408 -1114 
C 998 -1114 973 -1088 973 -834 
L 973 380 
C 1158 109 1427 -64 1766 -64 
C 2406 -64 3053 503 3053 1382 
C 3053 2196 2496 2816 1837 2816 
C 1453 2816 1139 2603 960 2345 
L 960 2816 
L 198 2745 
L 198 2577 
C 576 2577 634 2539 634 2228 
L 634 -834 
C 634 -1081 608 -1114 198 -1114 
L 198 -1280 
C 352 -1268 634 -1268 800 -1268 
C 966 -1268 1254 -1268 1408 -1280 
L 1408 -1114 
z
M 973 2015 
C 973 2106 973 2241 1222 2481 
C 1254 2506 1472 2700 1792 2700 
C 2259 2700 2643 2112 2643 1376 
C 2643 639 2234 38 1728 38 
C 1498 38 1248 148 1056 451 
C 973 594 973 632 973 736 
L 973 2015 
z
" transform="scale(0.015625)"/>
      </defs>
      <use xlink:href="#CMR17-44" transform="scale(0.996264)"/>
      <use xlink:href="#CMR17-6f" transform="translate(70.393556 0) scale(0.996264)"/>
      <use xlink:href="#CMR17-6d" transform="translate(116.084033 0) scale(0.996264)"/>
      <use xlink:href="#CMR17-69" transform="translate(193.003623 0) scale(0.996264)"/>
      <use xlink:href="#CMR17-6e" transform="translate(217.874681 0) scale(0.996264)"/>
      <use xlink:href="#CMR17-61" transform="translate(268.770051 0) scale(0.996264)"/>
      <use xlink:href="#CMR17-6e" transform="translate(314.460528 0) scale(0.996264)"/>
      <use xlink:href="#CMR17-74" transform="translate(362.753444 0) scale(0.996264)"/>
      <use xlink:href="#CMR17-4c" transform="translate(428.110178 0) scale(0.996264)"/>
      <use xlink:href="#CMR17-65" transform="translate(485.491586 0) scale(0.996264)"/>
      <use xlink:href="#CMR17-61" transform="translate(525.977247 0) scale(0.996264)"/>
      <use xlink:href="#CMR17-66" transform="translate(571.667724 0) scale(0.996264)"/>
      <use xlink:href="#CMR17-54" transform="translate(629.217202 0) scale(0.996264)"/>
      <use xlink:href="#CMR17-79" transform="translate(693.124629 0) scale(0.996264)"/>
      <use xlink:href="#CMR17-70" transform="translate(741.417545 0) scale(0.996264)"/>
      <use xlink:href="#CMR17-65" transform="translate(794.915353 0) scale(0.996264)"/>
     </g>
    </g>
   </g>
   <g id="matplotlib.axis_2">
    <g id="ytick_1">
     <g id="line2d_21">
      <defs>
       <path id="m649e8433d1" d="M 0 0 
L 3 0 
" style="stroke: #000000; stroke-width: 0.5"/>
      </defs>
      <g>
       <use xlink:href="#m649e8433d1" x="32.685756" y="163.43218" style="stroke: #000000; stroke-width: 0.5"/>
      </g>
     </g>
     <g id="line2d_22">
      <defs>
       <path id="mbd8a007618" d="M 0 0 
L -3 0 
" style="stroke: #000000; stroke-width: 0.5"/>
      </defs>
      <g>
       <use xlink:href="#mbd8a007618" x="227.985756" y="163.43218" style="stroke: #000000; stroke-width: 0.5"/>
      </g>
     </g>
     <g id="text_4">
      <!-- $\mathdefault{0.0}$ -->
      <g transform="translate(16.455677 166.891429) scale(0.1 -0.1)">
       <defs>
        <path id="CMR17-30" d="M 2688 2038 
C 2688 2430 2682 3099 2413 3613 
C 2176 4063 1798 4224 1466 4224 
C 1158 4224 768 4082 525 3620 
C 269 3137 243 2539 243 2038 
C 243 1671 250 1112 448 623 
C 723 -39 1216 -128 1466 -128 
C 1760 -128 2208 -7 2470 604 
C 2662 1048 2688 1568 2688 2038 
z
M 1466 -26 
C 1056 -26 813 328 723 816 
C 653 1196 653 1749 653 2109 
C 653 2604 653 3015 736 3407 
C 858 3954 1216 4121 1466 4121 
C 1728 4121 2067 3947 2189 3420 
C 2272 3054 2278 2623 2278 2109 
C 2278 1691 2278 1176 2202 797 
C 2067 96 1690 -26 1466 -26 
z
" transform="scale(0.015625)"/>
        <path id="CMMI12-3a" d="M 1178 307 
C 1178 492 1024 620 870 620 
C 685 620 557 467 557 313 
C 557 128 710 0 864 0 
C 1050 0 1178 153 1178 307 
z
" transform="scale(0.015625)"/>
       </defs>
       <use xlink:href="#CMR17-30" transform="scale(0.996264)"/>
       <use xlink:href="#CMMI12-3a" transform="translate(45.690477 0) scale(0.996264)"/>
       <use xlink:href="#CMR17-30" transform="translate(72.787654 0) scale(0.996264)"/>
      </g>
     </g>
    </g>
    <g id="ytick_2">
     <g id="line2d_23">
      <g>
       <use xlink:href="#m649e8433d1" x="32.685756" y="134.32618" style="stroke: #000000; stroke-width: 0.5"/>
      </g>
     </g>
     <g id="line2d_24">
      <g>
       <use xlink:href="#mbd8a007618" x="227.985756" y="134.32618" style="stroke: #000000; stroke-width: 0.5"/>
      </g>
     </g>
     <g id="text_5">
      <!-- $\mathdefault{0.2}$ -->
      <g transform="translate(16.455677 137.785429) scale(0.1 -0.1)">
       <defs>
        <path id="CMR17-32" d="M 2669 990 
L 2554 990 
C 2490 537 2438 460 2413 422 
C 2381 371 1920 371 1830 371 
L 602 371 
C 832 620 1280 1073 1824 1596 
C 2214 1966 2669 2400 2669 3033 
C 2669 3788 2067 4224 1395 4224 
C 691 4224 262 3603 262 3027 
C 262 2777 448 2745 525 2745 
C 589 2745 781 2783 781 3007 
C 781 3206 614 3264 525 3264 
C 486 3264 448 3257 422 3244 
C 544 3788 915 4057 1306 4057 
C 1862 4057 2227 3616 2227 3033 
C 2227 2477 1901 1998 1536 1583 
L 262 147 
L 262 0 
L 2515 0 
L 2669 990 
z
" transform="scale(0.015625)"/>
       </defs>
       <use xlink:href="#CMR17-30" transform="scale(0.996264)"/>
       <use xlink:href="#CMMI12-3a" transform="translate(45.690477 0) scale(0.996264)"/>
       <use xlink:href="#CMR17-32" transform="translate(72.787654 0) scale(0.996264)"/>
      </g>
     </g>
    </g>
    <g id="ytick_3">
     <g id="line2d_25">
      <g>
       <use xlink:href="#m649e8433d1" x="32.685756" y="105.22018" style="stroke: #000000; stroke-width: 0.5"/>
      </g>
     </g>
     <g id="line2d_26">
      <g>
       <use xlink:href="#mbd8a007618" x="227.985756" y="105.22018" style="stroke: #000000; stroke-width: 0.5"/>
      </g>
     </g>
     <g id="text_6">
      <!-- $\mathdefault{0.4}$ -->
      <g transform="translate(16.455677 108.679429) scale(0.1 -0.1)">
       <defs>
        <path id="CMR17-34" d="M 2150 4147 
C 2150 4281 2144 4288 2029 4288 
L 128 1254 
L 128 1088 
L 1779 1088 
L 1779 460 
C 1779 230 1766 166 1318 166 
L 1197 166 
L 1197 0 
C 1402 12 1747 12 1965 12 
C 2182 12 2528 12 2733 0 
L 2733 166 
L 2611 166 
C 2163 166 2150 230 2150 460 
L 2150 1088 
L 2803 1088 
L 2803 1254 
L 2150 1254 
L 2150 4147 
z
M 1798 3723 
L 1798 1254 
L 256 1254 
L 1798 3723 
z
" transform="scale(0.015625)"/>
       </defs>
       <use xlink:href="#CMR17-30" transform="scale(0.996264)"/>
       <use xlink:href="#CMMI12-3a" transform="translate(45.690477 0) scale(0.996264)"/>
       <use xlink:href="#CMR17-34" transform="translate(72.787654 0) scale(0.996264)"/>
      </g>
     </g>
    </g>
    <g id="ytick_4">
     <g id="line2d_27">
      <g>
       <use xlink:href="#m649e8433d1" x="32.685756" y="76.11418" style="stroke: #000000; stroke-width: 0.5"/>
      </g>
     </g>
     <g id="line2d_28">
      <g>
       <use xlink:href="#mbd8a007618" x="227.985756" y="76.11418" style="stroke: #000000; stroke-width: 0.5"/>
      </g>
     </g>
     <g id="text_7">
      <!-- $\mathdefault{0.6}$ -->
      <g transform="translate(16.455677 79.573429) scale(0.1 -0.1)">
       <defs>
        <path id="CMR17-36" d="M 678 2198 
C 678 3712 1395 4076 1811 4076 
C 1946 4076 2272 4049 2400 3782 
C 2298 3782 2106 3782 2106 3558 
C 2106 3385 2246 3328 2336 3328 
C 2394 3328 2566 3353 2566 3571 
C 2566 3987 2246 4224 1805 4224 
C 1043 4224 243 3411 243 2011 
C 243 257 966 -128 1478 -128 
C 2099 -128 2688 431 2688 1295 
C 2688 2101 2170 2688 1517 2688 
C 1126 2688 838 2430 678 1979 
L 678 2198 
z
M 1478 25 
C 691 25 691 1212 691 1450 
C 691 1914 909 2585 1504 2585 
C 1613 2585 1926 2585 2138 2140 
C 2253 1889 2253 1624 2253 1302 
C 2253 954 2253 696 2118 438 
C 1978 173 1773 25 1478 25 
z
" transform="scale(0.015625)"/>
       </defs>
       <use xlink:href="#CMR17-30" transform="scale(0.996264)"/>
       <use xlink:href="#CMMI12-3a" transform="translate(45.690477 0) scale(0.996264)"/>
       <use xlink:href="#CMR17-36" transform="translate(72.787654 0) scale(0.996264)"/>
      </g>
     </g>
    </g>
    <g id="ytick_5">
     <g id="line2d_29">
      <g>
       <use xlink:href="#m649e8433d1" x="32.685756" y="47.00818" style="stroke: #000000; stroke-width: 0.5"/>
      </g>
     </g>
     <g id="line2d_30">
      <g>
       <use xlink:href="#mbd8a007618" x="227.985756" y="47.00818" style="stroke: #000000; stroke-width: 0.5"/>
      </g>
     </g>
     <g id="text_8">
      <!-- $\mathdefault{0.8}$ -->
      <g transform="translate(16.455677 50.467429) scale(0.1 -0.1)">
       <defs>
        <path id="CMR17-38" d="M 1741 2289 
C 2144 2494 2554 2803 2554 3298 
C 2554 3884 1990 4224 1472 4224 
C 890 4224 378 3800 378 3215 
C 378 3054 416 2777 666 2533 
C 730 2469 998 2276 1171 2154 
C 883 2006 211 1652 211 945 
C 211 282 838 -128 1459 -128 
C 2144 -128 2720 366 2720 1022 
C 2720 1607 2330 1877 2074 2051 
L 1741 2289 
z
M 902 2855 
C 851 2887 595 3086 595 3388 
C 595 3781 998 4076 1459 4076 
C 1965 4076 2336 3716 2336 3298 
C 2336 2700 1670 2359 1638 2359 
C 1632 2359 1626 2359 1574 2398 
L 902 2855 
z
M 2080 1536 
C 2176 1466 2483 1253 2483 861 
C 2483 385 2010 25 1472 25 
C 890 25 448 443 448 951 
C 448 1459 838 1884 1280 2083 
L 2080 1536 
z
" transform="scale(0.015625)"/>
       </defs>
       <use xlink:href="#CMR17-30" transform="scale(0.996264)"/>
       <use xlink:href="#CMMI12-3a" transform="translate(45.690477 0) scale(0.996264)"/>
       <use xlink:href="#CMR17-38" transform="translate(72.787654 0) scale(0.996264)"/>
      </g>
     </g>
    </g>
    <g id="ytick_6">
     <g id="line2d_31">
      <g>
       <use xlink:href="#m649e8433d1" x="32.685756" y="17.90218" style="stroke: #000000; stroke-width: 0.5"/>
      </g>
     </g>
     <g id="line2d_32">
      <g>
       <use xlink:href="#mbd8a007618" x="227.985756" y="17.90218" style="stroke: #000000; stroke-width: 0.5"/>
      </g>
     </g>
     <g id="text_9">
      <!-- $\mathdefault{1.0}$ -->
      <g transform="translate(16.455677 21.361429) scale(0.1 -0.1)">
       <defs>
        <path id="CMR17-31" d="M 1702 4083 
C 1702 4217 1696 4224 1606 4224 
C 1357 3927 979 3833 621 3820 
C 602 3820 570 3820 563 3808 
C 557 3795 557 3782 557 3648 
C 755 3648 1088 3686 1344 3839 
L 1344 467 
C 1344 243 1331 166 781 166 
L 589 166 
L 589 0 
C 896 6 1216 12 1523 12 
C 1830 12 2150 6 2458 0 
L 2458 166 
L 2266 166 
C 1715 166 1702 236 1702 467 
L 1702 4083 
z
" transform="scale(0.015625)"/>
       </defs>
       <use xlink:href="#CMR17-31" transform="scale(0.996264)"/>
       <use xlink:href="#CMMI12-3a" transform="translate(45.690477 0) scale(0.996264)"/>
       <use xlink:href="#CMR17-30" transform="translate(72.787654 0) scale(0.996264)"/>
      </g>
     </g>
    </g>
    <g id="ytick_7">
     <g id="line2d_33">
      <defs>
       <path id="m1630988e09" d="M 0 0 
L 1.5 0 
" style="stroke: #000000; stroke-width: 0.5"/>
      </defs>
      <g>
       <use xlink:href="#m1630988e09" x="32.685756" y="156.15568" style="stroke: #000000; stroke-width: 0.5"/>
      </g>
     </g>
     <g id="line2d_34">
      <defs>
       <path id="m4dd49529d2" d="M 0 0 
L -1.5 0 
" style="stroke: #000000; stroke-width: 0.5"/>
      </defs>
      <g>
       <use xlink:href="#m4dd49529d2" x="227.985756" y="156.15568" style="stroke: #000000; stroke-width: 0.5"/>
      </g>
     </g>
    </g>
    <g id="ytick_8">
     <g id="line2d_35">
      <g>
       <use xlink:href="#m1630988e09" x="32.685756" y="148.87918" style="stroke: #000000; stroke-width: 0.5"/>
      </g>
     </g>
     <g id="line2d_36">
      <g>
       <use xlink:href="#m4dd49529d2" x="227.985756" y="148.87918" style="stroke: #000000; stroke-width: 0.5"/>
      </g>
     </g>
    </g>
    <g id="ytick_9">
     <g id="line2d_37">
      <g>
       <use xlink:href="#m1630988e09" x="32.685756" y="141.60268" style="stroke: #000000; stroke-width: 0.5"/>
      </g>
     </g>
     <g id="line2d_38">
      <g>
       <use xlink:href="#m4dd49529d2" x="227.985756" y="141.60268" style="stroke: #000000; stroke-width: 0.5"/>
      </g>
     </g>
    </g>
    <g id="ytick_10">
     <g id="line2d_39">
      <g>
       <use xlink:href="#m1630988e09" x="32.685756" y="127.04968" style="stroke: #000000; stroke-width: 0.5"/>
      </g>
     </g>
     <g id="line2d_40">
      <g>
       <use xlink:href="#m4dd49529d2" x="227.985756" y="127.04968" style="stroke: #000000; stroke-width: 0.5"/>
      </g>
     </g>
    </g>
    <g id="ytick_11">
     <g id="line2d_41">
      <g>
       <use xlink:href="#m1630988e09" x="32.685756" y="119.77318" style="stroke: #000000; stroke-width: 0.5"/>
      </g>
     </g>
     <g id="line2d_42">
      <g>
       <use xlink:href="#m4dd49529d2" x="227.985756" y="119.77318" style="stroke: #000000; stroke-width: 0.5"/>
      </g>
     </g>
    </g>
    <g id="ytick_12">
     <g id="line2d_43">
      <g>
       <use xlink:href="#m1630988e09" x="32.685756" y="112.49668" style="stroke: #000000; stroke-width: 0.5"/>
      </g>
     </g>
     <g id="line2d_44">
      <g>
       <use xlink:href="#m4dd49529d2" x="227.985756" y="112.49668" style="stroke: #000000; stroke-width: 0.5"/>
      </g>
     </g>
    </g>
    <g id="ytick_13">
     <g id="line2d_45">
      <g>
       <use xlink:href="#m1630988e09" x="32.685756" y="97.94368" style="stroke: #000000; stroke-width: 0.5"/>
      </g>
     </g>
     <g id="line2d_46">
      <g>
       <use xlink:href="#m4dd49529d2" x="227.985756" y="97.94368" style="stroke: #000000; stroke-width: 0.5"/>
      </g>
     </g>
    </g>
    <g id="ytick_14">
     <g id="line2d_47">
      <g>
       <use xlink:href="#m1630988e09" x="32.685756" y="90.66718" style="stroke: #000000; stroke-width: 0.5"/>
      </g>
     </g>
     <g id="line2d_48">
      <g>
       <use xlink:href="#m4dd49529d2" x="227.985756" y="90.66718" style="stroke: #000000; stroke-width: 0.5"/>
      </g>
     </g>
    </g>
    <g id="ytick_15">
     <g id="line2d_49">
      <g>
       <use xlink:href="#m1630988e09" x="32.685756" y="83.39068" style="stroke: #000000; stroke-width: 0.5"/>
      </g>
     </g>
     <g id="line2d_50">
      <g>
       <use xlink:href="#m4dd49529d2" x="227.985756" y="83.39068" style="stroke: #000000; stroke-width: 0.5"/>
      </g>
     </g>
    </g>
    <g id="ytick_16">
     <g id="line2d_51">
      <g>
       <use xlink:href="#m1630988e09" x="32.685756" y="68.83768" style="stroke: #000000; stroke-width: 0.5"/>
      </g>
     </g>
     <g id="line2d_52">
      <g>
       <use xlink:href="#m4dd49529d2" x="227.985756" y="68.83768" style="stroke: #000000; stroke-width: 0.5"/>
      </g>
     </g>
    </g>
    <g id="ytick_17">
     <g id="line2d_53">
      <g>
       <use xlink:href="#m1630988e09" x="32.685756" y="61.56118" style="stroke: #000000; stroke-width: 0.5"/>
      </g>
     </g>
     <g id="line2d_54">
      <g>
       <use xlink:href="#m4dd49529d2" x="227.985756" y="61.56118" style="stroke: #000000; stroke-width: 0.5"/>
      </g>
     </g>
    </g>
    <g id="ytick_18">
     <g id="line2d_55">
      <g>
       <use xlink:href="#m1630988e09" x="32.685756" y="54.28468" style="stroke: #000000; stroke-width: 0.5"/>
      </g>
     </g>
     <g id="line2d_56">
      <g>
       <use xlink:href="#m4dd49529d2" x="227.985756" y="54.28468" style="stroke: #000000; stroke-width: 0.5"/>
      </g>
     </g>
    </g>
    <g id="ytick_19">
     <g id="line2d_57">
      <g>
       <use xlink:href="#m1630988e09" x="32.685756" y="39.73168" style="stroke: #000000; stroke-width: 0.5"/>
      </g>
     </g>
     <g id="line2d_58">
      <g>
       <use xlink:href="#m4dd49529d2" x="227.985756" y="39.73168" style="stroke: #000000; stroke-width: 0.5"/>
      </g>
     </g>
    </g>
    <g id="ytick_20">
     <g id="line2d_59">
      <g>
       <use xlink:href="#m1630988e09" x="32.685756" y="32.45518" style="stroke: #000000; stroke-width: 0.5"/>
      </g>
     </g>
     <g id="line2d_60">
      <g>
       <use xlink:href="#m4dd49529d2" x="227.985756" y="32.45518" style="stroke: #000000; stroke-width: 0.5"/>
      </g>
     </g>
    </g>
    <g id="ytick_21">
     <g id="line2d_61">
      <g>
       <use xlink:href="#m1630988e09" x="32.685756" y="25.17868" style="stroke: #000000; stroke-width: 0.5"/>
      </g>
     </g>
     <g id="line2d_62">
      <g>
       <use xlink:href="#m4dd49529d2" x="227.985756" y="25.17868" style="stroke: #000000; stroke-width: 0.5"/>
      </g>
     </g>
    </g>
    <g id="text_10">
     <!-- Conifer Proportion -->
     <g transform="translate(10.518498 132.012235) rotate(-90) scale(0.1 -0.1)">
      <defs>
       <path id="CMR17-50" d="M 1267 2048 
L 2291 2048 
C 3117 2048 3718 2583 3718 3187 
C 3718 3791 3130 4352 2291 4352 
L 333 4352 
L 333 4185 
C 774 4185 845 4185 845 3899 
L 845 453 
C 845 166 774 166 333 166 
L 333 0 
C 518 12 858 12 1056 12 
C 1254 12 1594 12 1779 0 
L 1779 166 
C 1338 166 1267 166 1267 453 
L 1267 2048 
z
M 1254 2182 
L 1254 3937 
C 1254 4153 1267 4185 1523 4185 
L 2170 4185 
C 2995 4185 3232 3715 3232 3187 
C 3232 2608 2950 2182 2170 2182 
L 1254 2182 
z
" transform="scale(0.015625)"/>
      </defs>
      <use xlink:href="#CMR17-43" transform="scale(0.996264)"/>
      <use xlink:href="#CMR17-6f" transform="translate(66.509881 0) scale(0.996264)"/>
      <use xlink:href="#CMR17-6e" transform="translate(112.200358 0) scale(0.996264)"/>
      <use xlink:href="#CMR17-69" transform="translate(163.095727 0) scale(0.996264)"/>
      <use xlink:href="#CMR17-66" transform="translate(187.966786 0) scale(0.996264)"/>
      <use xlink:href="#CMR17-65" transform="translate(215.440298 0) scale(0.996264)"/>
      <use xlink:href="#CMR17-72" transform="translate(255.925959 0) scale(0.996264)"/>
      <use xlink:href="#CMR17-50" transform="translate(321.282693 0) scale(0.996264)"/>
      <use xlink:href="#CMR17-72" transform="translate(383.868993 0) scale(0.996264)"/>
      <use xlink:href="#CMR17-6f" transform="translate(419.149761 0) scale(0.996264)"/>
      <use xlink:href="#CMR17-70" transform="translate(464.840238 0) scale(0.996264)"/>
      <use xlink:href="#CMR17-6f" transform="translate(518.338047 0) scale(0.996264)"/>
      <use xlink:href="#CMR17-72" transform="translate(564.028524 0) scale(0.996264)"/>
      <use xlink:href="#CMR17-74" transform="translate(599.309292 0) scale(0.996264)"/>
      <use xlink:href="#CMR17-69" transform="translate(634.59006 0) scale(0.996264)"/>
      <use xlink:href="#CMR17-6f" transform="translate(659.461118 0) scale(0.996264)"/>
      <use xlink:href="#CMR17-6e" transform="translate(705.151595 0) scale(0.996264)"/>
     </g>
    </g>
   </g>
   <g id="line2d_63">
    <path d="M 57.743389 114.299003 
L 105.278122 114.299003 
" clip-path="url(#p3f177bdaf2)" style="fill: none; stroke-dasharray: 1.5625,0.9375; stroke-dashoffset: 0; stroke: #353535; stroke-width: 1.25"/>
   </g>
   <g id="line2d_64">
    <path d="M 50.525237 99.501662 
L 112.496274 99.501662 
" clip-path="url(#p3f177bdaf2)" style="fill: none; stroke-dasharray: 3.125,1.25; stroke-dashoffset: 0; stroke: #353535; stroke-width: 1.25"/>
   </g>
   <g id="line2d_65">
    <path d="M 56.200985 85.438255 
L 106.820526 85.438255 
" clip-path="url(#p3f177bdaf2)" style="fill: none; stroke-dasharray: 1.5625,0.9375; stroke-dashoffset: 0; stroke: #353535; stroke-width: 1.25"/>
   </g>
   <g id="line2d_66">
    <path d="M 148.121485 98.562005 
L 210.200026 98.562005 
" clip-path="url(#p3f177bdaf2)" style="fill: none; stroke-dasharray: 1.5625,0.9375; stroke-dashoffset: 0; stroke: #353535; stroke-width: 1.25"/>
   </g>
   <g id="line2d_67">
    <path d="M 140.543782 86.978571 
L 217.777729 86.978571 
" clip-path="url(#p3f177bdaf2)" style="fill: none; stroke-dasharray: 3.125,1.25; stroke-dashoffset: 0; stroke: #353535; stroke-width: 1.25"/>
   </g>
   <g id="line2d_68">
    <path d="M 148.467692 75.523212 
L 209.85382 75.523212 
" clip-path="url(#p3f177bdaf2)" style="fill: none; stroke-dasharray: 1.5625,0.9375; stroke-dashoffset: 0; stroke: #353535; stroke-width: 1.25"/>
   </g>
   <g id="patch_3">
    <path d="M 32.685756 163.43218 
L 32.685756 17.90218 
" style="fill: none; stroke: #000000; stroke-width: 0.5; stroke-linejoin: miter; stroke-linecap: square"/>
   </g>
   <g id="patch_4">
    <path d="M 227.985756 163.43218 
L 227.985756 17.90218 
" style="fill: none; stroke: #000000; stroke-width: 0.5; stroke-linejoin: miter; stroke-linecap: square"/>
   </g>
   <g id="patch_5">
    <path d="M 32.685756 163.43218 
L 227.985756 163.43218 
" style="fill: none; stroke: #000000; stroke-width: 0.5; stroke-linejoin: miter; stroke-linecap: square"/>
   </g>
   <g id="patch_6">
    <path d="M 32.685756 17.90218 
L 227.985756 17.90218 
" style="fill: none; stroke: #000000; stroke-width: 0.5; stroke-linejoin: miter; stroke-linecap: square"/>
   </g>
   <g id="text_11">
    <!-- Prediction vs. Dominant Leaf Type -->
    <g transform="translate(38.853368 11.90218) scale(0.12 -0.12)">
     <defs>
      <path id="CMR17-63" d="M 2234 2240 
C 2112 2240 1933 2240 1933 2015 
C 1933 1836 2080 1785 2163 1785 
C 2208 1785 2394 1804 2394 2028 
C 2394 2476 1958 2816 1466 2816 
C 787 2816 211 2201 211 1379 
C 211 521 813 -64 1466 -64 
C 2259 -64 2458 676 2458 747 
C 2458 773 2451 792 2406 792 
C 2362 792 2355 786 2330 702 
C 2163 180 1798 51 1523 51 
C 1114 51 621 431 621 1385 
C 621 2358 1094 2700 1472 2700 
C 1722 2700 2093 2582 2234 2240 
z
" transform="scale(0.015625)"/>
      <path id="CMR17-76" d="M 2502 2173 
C 2560 2315 2662 2572 3034 2585 
L 3034 2752 
C 2912 2745 2752 2739 2630 2739 
C 2496 2739 2285 2739 2157 2752 
L 2157 2585 
C 2317 2572 2406 2495 2406 2328 
C 2406 2270 2406 2257 2368 2167 
L 1664 379 
L 902 2308 
C 864 2392 864 2405 864 2431 
C 864 2585 1075 2585 1171 2585 
L 1171 2752 
C 1018 2739 736 2739 576 2739 
C 403 2739 205 2739 64 2752 
L 64 2585 
C 307 2585 442 2585 518 2386 
L 1446 44 
C 1485 -52 1491 -64 1549 -64 
C 1606 -64 1613 -52 1651 44 
L 2502 2173 
z
" transform="scale(0.015625)"/>
      <path id="CMR17-73" d="M 1978 2688 
C 1978 2803 1971 2809 1933 2809 
C 1907 2809 1901 2803 1824 2707 
C 1805 2681 1747 2617 1728 2592 
C 1523 2809 1235 2816 1126 2816 
C 416 2816 160 2444 160 2073 
C 160 1497 813 1363 998 1324 
C 1402 1241 1542 1216 1677 1100 
C 1760 1024 1901 883 1901 652 
C 1901 384 1747 38 1158 38 
C 602 38 403 460 288 1024 
C 269 1113 269 1120 218 1120 
C 166 1120 160 1113 160 985 
L 160 64 
C 160 -52 166 -58 205 -58 
C 237 -58 243 -52 275 0 
C 314 57 410 211 448 275 
C 576 102 800 -64 1158 -64 
C 1792 -64 2131 281 2131 780 
C 2131 1107 1958 1280 1875 1356 
C 1683 1555 1459 1600 1190 1651 
C 838 1728 390 1817 390 2208 
C 390 2374 480 2726 1126 2726 
C 1811 2726 1850 2086 1862 1881 
C 1869 1849 1901 1843 1920 1843 
C 1978 1843 1978 1862 1978 1971 
L 1978 2688 
z
" transform="scale(0.015625)"/>
      <path id="CMR17-2e" d="M 1062 262 
C 1062 422 934 524 800 524 
C 672 524 538 422 538 262 
C 538 102 666 0 800 0 
C 928 0 1062 102 1062 262 
z
" transform="scale(0.015625)"/>
     </defs>
     <use xlink:href="#CMR17-50" transform="scale(0.996264)"/>
     <use xlink:href="#CMR17-72" transform="translate(62.586301 0) scale(0.996264)"/>
     <use xlink:href="#CMR17-65" transform="translate(97.867068 0) scale(0.996264)"/>
     <use xlink:href="#CMR17-64" transform="translate(138.352729 0) scale(0.996264)"/>
     <use xlink:href="#CMR17-69" transform="translate(189.248099 0) scale(0.996264)"/>
     <use xlink:href="#CMR17-63" transform="translate(214.119157 0) scale(0.996264)"/>
     <use xlink:href="#CMR17-74" transform="translate(254.604818 0) scale(0.996264)"/>
     <use xlink:href="#CMR17-69" transform="translate(289.885585 0) scale(0.996264)"/>
     <use xlink:href="#CMR17-6f" transform="translate(314.756644 0) scale(0.996264)"/>
     <use xlink:href="#CMR17-6e" transform="translate(360.447121 0) scale(0.996264)"/>
     <use xlink:href="#CMR17-76" transform="translate(441.418457 0) scale(0.996264)"/>
     <use xlink:href="#CMR17-73" transform="translate(489.711373 0) scale(0.996264)"/>
     <use xlink:href="#CMR17-2e" transform="translate(525.512711 0) scale(0.996264)"/>
     <use xlink:href="#CMR17-44" transform="translate(590.869429 0) scale(0.996264)"/>
     <use xlink:href="#CMR17-6f" transform="translate(661.262985 0) scale(0.996264)"/>
     <use xlink:href="#CMR17-6d" transform="translate(706.953462 0) scale(0.996264)"/>
     <use xlink:href="#CMR17-69" transform="translate(783.873052 0) scale(0.996264)"/>
     <use xlink:href="#CMR17-6e" transform="translate(808.744111 0) scale(0.996264)"/>
     <use xlink:href="#CMR17-61" transform="translate(859.639481 0) scale(0.996264)"/>
     <use xlink:href="#CMR17-6e" transform="translate(905.329958 0) scale(0.996264)"/>
     <use xlink:href="#CMR17-74" transform="translate(953.622874 0) scale(0.996264)"/>
     <use xlink:href="#CMR17-4c" transform="translate(1018.979608 0) scale(0.996264)"/>
     <use xlink:href="#CMR17-65" transform="translate(1076.361016 0) scale(0.996264)"/>
     <use xlink:href="#CMR17-61" transform="translate(1116.846676 0) scale(0.996264)"/>
     <use xlink:href="#CMR17-66" transform="translate(1162.537153 0) scale(0.996264)"/>
     <use xlink:href="#CMR17-54" transform="translate(1220.086632 0) scale(0.996264)"/>
     <use xlink:href="#CMR17-79" transform="translate(1283.994059 0) scale(0.996264)"/>
     <use xlink:href="#CMR17-70" transform="translate(1332.286974 0) scale(0.996264)"/>
     <use xlink:href="#CMR17-65" transform="translate(1385.784783 0) scale(0.996264)"/>
    </g>
   </g>
  </g>
 </g>
 <defs>
  <clipPath id="p3f177bdaf2">
   <rect x="32.685756" y="17.90218" width="195.3" height="145.53"/>
  </clipPath>
 </defs>
</svg>
