<?xml version="1.0" encoding="utf-8" standalone="no"?>
<!DOCTYPE svg PUBLIC "-//W3C//DTD SVG 1.1//EN"
  "http://www.w3.org/Graphics/SVG/1.1/DTD/svg11.dtd">
<svg xmlns:xlink="http://www.w3.org/1999/xlink" width="231.585756pt" height="193.350497pt" viewBox="0 0 231.585756 193.350497" xmlns="http://www.w3.org/2000/svg" version="1.1">
 <metadata>
  <rdf:RDF xmlns:dc="http://purl.org/dc/elements/1.1/" xmlns:cc="http://creativecommons.org/ns#" xmlns:rdf="http://www.w3.org/1999/02/22-rdf-syntax-ns#">
   <cc:Work>
    <dc:type rdf:resource="http://purl.org/dc/dcmitype/StillImage"/>
    <dc:date>2024-09-21T12:13:56.657342</dc:date>
    <dc:format>image/svg+xml</dc:format>
    <dc:creator>
     <cc:Agent>
      <dc:title>Matplotlib v3.9.2, https://matplotlib.org/</dc:title>
     </cc:Agent>
    </dc:creator>
   </cc:Work>
  </rdf:RDF>
 </metadata>
 <defs>
  <style type="text/css">*{stroke-linejoin: round; stroke-linecap: butt}</style>
 </defs>
 <g id="figure_1">
  <g id="patch_1">
   <path d="M 0 193.350497 
L 231.585756 193.350497 
L 231.585756 0 
L 0 0 
z
" style="fill: #ffffff"/>
  </g>
  <g id="axes_1">
   <g id="patch_2">
    <path d="M 32.685756 163.43218 
L 227.985756 163.43218 
L 227.985756 17.90218 
L 32.685756 17.90218 
z
" style="fill: #ffffff"/>
   </g>
   <g id="PolyCollection_1">
    <defs>
     <path id="m9a38d57bb0" d="M 41.563028 -146.651526 
L 41.563028 -126.938317 
L 42.455217 -126.418837 
L 43.347405 -127.958798 
L 44.239593 -127.832206 
L 45.131781 -128.998759 
L 46.023969 -129.594627 
L 46.916158 -130.094964 
L 47.808346 -128.625078 
L 48.700534 -129.709479 
L 49.592722 -128.503156 
L 50.48491 -128.009495 
L 51.377098 -128.878142 
L 52.269287 -128.483996 
L 53.161474 -127.638568 
L 54.053663 -127.687292 
L 54.945851 -124.345429 
L 55.838039 -123.71231 
L 56.730228 -121.746385 
L 57.622415 -118.361454 
L 58.514604 -116.448544 
L 59.406792 -111.777713 
L 60.298981 -110.570741 
L 61.191169 -108.390245 
L 62.083357 -107.53168 
L 62.975546 -106.959573 
L 63.867735 -105.248608 
L 64.759921 -106.341384 
L 65.652109 -108.051719 
L 66.544299 -108.782349 
L 67.436488 -108.140013 
L 68.328673 -107.136528 
L 69.220863 -107.53168 
L 70.113051 -101.553678 
L 71.00524 -99.846427 
L 71.897429 -95.451164 
L 72.789615 -96.919786 
L 73.681804 -96.92067 
L 74.573992 -100.47476 
L 75.466182 -97.901364 
L 76.358367 -94.811367 
L 77.250556 -94.846683 
L 78.142745 -97.081982 
L 79.034934 -93.738146 
L 79.927122 -94.598317 
L 80.819311 -93.580357 
L 81.711499 -94.88653 
L 82.603687 -94.332707 
L 83.495875 -97.29276 
L 84.388063 -98.706534 
L 85.280251 -99.078647 
L 86.172441 -96.294619 
L 87.064627 -94.332088 
L 87.956815 -97.345789 
L 88.849003 -94.310766 
L 89.741191 -94.590543 
L 90.633379 -95.922364 
L 91.525567 -94.942359 
L 92.41776 -97.081056 
L 93.309948 -91.763216 
L 94.202136 -86.708207 
L 95.094319 -89.620684 
L 95.986507 -82.241614 
L 96.878695 -85.552659 
L 97.770883 -82.830347 
L 98.663076 -79.110225 
L 99.555264 -80.079812 
L 100.447452 -84.755708 
L 101.33964 -88.897299 
L 102.231828 -83.431386 
L 103.124011 -87.159454 
L 104.016199 -90.998279 
L 104.908392 -99.598979 
L 105.80058 -97.078445 
L 106.692768 -98.397738 
L 107.584956 -100.049927 
L 108.477144 -100.053257 
L 109.369332 -99.625041 
L 110.26152 -101.062373 
L 111.153708 -100.906285 
L 112.045896 -102.665306 
L 112.938084 -101.251796 
L 113.830272 -103.417603 
L 114.72246 -104.229929 
L 115.614648 -106.748784 
L 116.506836 -110.76492 
L 117.399029 -108.068504 
L 118.291217 -110.476926 
L 119.1834 -116.322543 
L 120.075588 -119.803775 
L 120.967771 -119.328905 
L 121.859964 -123.640195 
L 122.752157 -126.419493 
L 123.644345 -130.332762 
L 124.536523 -130.157908 
L 125.428721 -132.869283 
L 126.320904 -129.815126 
L 127.213097 -130.483898 
L 128.10528 -131.788116 
L 128.997473 -133.801028 
L 129.889661 -133.001247 
L 130.781854 -132.691524 
L 131.674037 -135.061924 
L 132.56622 -137.740139 
L 133.458413 -138.055889 
L 134.350596 -141.249298 
L 135.242789 -144.135371 
L 136.134977 -145.989199 
L 137.027171 -147.571896 
L 137.919354 -149.072157 
L 138.811547 -149.745543 
L 139.70373 -150.454627 
L 140.595913 -151.454649 
L 141.488111 -151.347759 
L 142.380294 -151.503881 
L 143.272487 -151.530991 
L 144.16467 -152.30756 
L 145.056863 -152.660314 
L 145.949046 -152.622071 
L 146.841239 -153.4295 
L 147.733427 -154.20357 
L 148.62561 -153.827934 
L 149.517803 -154.551653 
L 150.409986 -154.337049 
L 151.302179 -155.184492 
L 152.194362 -155.397274 
L 153.086555 -155.736735 
L 153.978743 -156.234576 
L 154.870936 -156.967744 
L 155.763119 -157.801778 
L 156.655302 -158.695908 
L 157.547495 -158.983121 
L 158.439678 -159.594722 
L 159.331871 -159.87169 
L 160.224059 -159.313436 
L 161.116252 -159.513591 
L 162.008435 -159.416637 
L 162.900628 -159.578228 
L 163.792811 -159.915948 
L 164.684994 -159.905942 
L 165.577187 -160.09994 
L 166.469375 -160.764696 
L 167.361568 -161.969095 
L 168.253751 -162.558385 
L 169.145944 -163.468583 
L 170.038127 -163.283206 
L 170.93032 -164.566719 
L 171.822503 -164.476869 
L 172.714691 -164.170169 
L 173.606884 -164.128363 
L 174.499067 -164.338042 
L 175.39126 -165.382955 
L 176.283443 -165.361674 
L 177.175641 -165.745362 
L 178.067819 -166.6366 
L 178.960017 -166.487871 
L 179.8522 -166.292504 
L 180.744383 -166.288014 
L 181.636576 -166.246186 
L 182.528759 -166.887729 
L 183.420952 -167.12073 
L 184.31314 -167.400092 
L 185.205333 -167.785272 
L 186.097516 -166.844493 
L 186.989709 -167.182625 
L 187.881897 -166.927011 
L 188.774075 -166.799247 
L 189.666273 -167.058313 
L 190.558456 -166.886674 
L 191.450649 -167.38358 
L 192.342832 -167.075358 
L 193.235026 -166.885415 
L 194.127208 -167.209653 
L 195.019402 -167.120987 
L 195.911585 -166.40408 
L 196.803773 -167.272474 
L 197.695966 -167.225115 
L 198.588149 -168.742078 
L 199.480342 -169.33275 
L 200.37253 -169.766107 
L 201.264708 -169.732637 
L 202.156906 -169.846302 
L 203.049099 -170.397578 
L 203.941282 -170.870444 
L 204.833465 -171.007661 
L 205.725658 -171.34888 
L 206.617851 -171.066004 
L 207.510034 -170.935759 
L 208.402217 -170.880111 
L 209.29441 -170.753801 
L 210.186608 -170.935679 
L 211.078786 -172.416442 
L 211.970974 -172.834005 
L 212.863162 -172.667489 
L 213.75534 -172.214317 
L 214.647538 -171.840135 
L 215.539731 -175.448317 
L 216.431914 -175.448317 
L 217.324097 -175.448317 
L 218.21629 -175.448317 
L 219.108483 -175.448317 
L 219.108483 -175.448317 
L 219.108483 -175.448317 
L 218.21629 -175.448317 
L 217.324097 -175.448317 
L 216.431914 -175.448317 
L 215.539731 -175.448317 
L 214.647538 -175.448317 
L 213.75534 -175.448317 
L 212.863162 -175.448317 
L 211.970974 -175.448317 
L 211.078786 -175.448317 
L 210.186608 -175.448317 
L 209.29441 -175.448317 
L 208.402217 -175.448317 
L 207.510034 -174.907413 
L 206.617851 -174.948214 
L 205.725658 -174.968099 
L 204.833465 -174.971169 
L 203.941282 -174.986317 
L 203.049099 -174.57163 
L 202.156906 -174.549983 
L 201.264708 -174.199266 
L 200.37253 -174.561337 
L 199.480342 -173.831317 
L 198.588149 -173.849086 
L 197.695966 -172.732117 
L 196.803773 -173.036549 
L 195.911585 -172.400568 
L 195.019402 -172.447698 
L 194.127208 -172.687585 
L 193.235026 -172.731757 
L 192.342832 -172.702836 
L 191.450649 -172.895159 
L 190.558456 -172.608707 
L 189.666273 -172.552556 
L 188.774075 -172.580731 
L 187.881897 -172.649663 
L 186.989709 -172.622492 
L 186.097516 -172.322374 
L 185.205333 -172.778648 
L 184.31314 -172.619744 
L 183.420952 -172.311894 
L 182.528759 -172.214317 
L 181.636576 -171.914864 
L 180.744383 -171.602131 
L 179.8522 -171.795225 
L 178.960017 -171.899164 
L 178.067819 -171.672465 
L 177.175641 -171.143954 
L 176.283443 -170.789601 
L 175.39126 -170.770567 
L 174.499067 -170.156796 
L 173.606884 -169.77242 
L 172.714691 -169.54606 
L 171.822503 -169.879142 
L 170.93032 -169.750281 
L 170.038127 -168.582125 
L 169.145944 -168.65565 
L 168.253751 -167.954902 
L 167.361568 -167.445304 
L 166.469375 -166.329896 
L 165.577187 -165.867303 
L 164.684994 -165.996252 
L 163.792811 -165.355877 
L 162.900628 -164.995886 
L 162.008435 -164.881333 
L 161.116252 -165.001042 
L 160.224059 -165.002245 
L 159.331871 -165.235948 
L 158.439678 -164.734588 
L 157.547495 -164.747629 
L 156.655302 -163.962925 
L 155.763119 -163.340996 
L 154.870936 -162.327296 
L 153.978743 -161.493883 
L 153.086555 -161.296291 
L 152.194362 -160.824791 
L 151.302179 -160.775934 
L 150.409986 -159.761375 
L 149.517803 -160.104922 
L 148.62561 -159.925489 
L 147.733427 -160.036704 
L 146.841239 -159.35962 
L 145.949046 -159.108237 
L 145.056863 -158.997662 
L 144.16467 -158.381893 
L 143.272487 -158.05001 
L 142.380294 -158.09942 
L 141.488111 -158.472905 
L 140.595913 -157.985013 
L 139.70373 -157.515048 
L 138.811547 -156.960792 
L 137.919354 -156.681949 
L 137.027171 -155.550636 
L 136.134977 -154.715916 
L 135.242789 -153.345327 
L 134.350596 -151.236172 
L 133.458413 -149.830899 
L 132.56622 -149.114828 
L 131.674037 -147.80104 
L 130.781854 -146.478769 
L 129.889661 -147.565868 
L 128.997473 -148.08825 
L 128.10528 -146.894962 
L 127.213097 -146.545958 
L 126.320904 -146.767222 
L 125.428721 -149.966764 
L 124.536523 -147.364998 
L 123.644345 -149.37294 
L 122.752157 -146.342317 
L 121.859964 -146.342317 
L 120.967771 -142.415626 
L 120.075588 -143.73024 
L 119.1834 -141.867947 
L 118.291217 -138.488317 
L 117.399029 -136.505234 
L 116.506836 -137.895541 
L 115.614648 -138.225448 
L 114.72246 -135.758317 
L 113.830272 -133.876074 
L 112.938084 -133.204443 
L 112.045896 -135.255512 
L 111.153708 -134.479502 
L 110.26152 -134.264101 
L 109.369332 -133.696822 
L 108.477144 -132.948405 
L 107.584956 -134.600344 
L 106.692768 -133.121222 
L 105.80058 -133.006957 
L 104.908392 -136.329257 
L 104.016199 -129.145262 
L 103.124011 -123.479092 
L 102.231828 -125.757163 
L 101.33964 -126.938317 
L 100.447452 -124.316155 
L 99.555264 -119.818954 
L 98.663076 -119.75165 
L 97.770883 -122.205634 
L 96.878695 -123.706925 
L 95.986507 -121.400013 
L 95.094319 -125.872163 
L 94.202136 -124.000479 
L 93.309948 -127.898911 
L 92.41776 -130.201602 
L 91.525567 -128.586118 
L 90.633379 -128.71976 
L 89.741191 -128.672009 
L 88.849003 -130.283834 
L 87.956815 -129.710317 
L 87.064627 -129.251204 
L 86.172441 -127.754693 
L 85.280251 -129.884341 
L 84.388063 -129.094317 
L 83.495875 -126.938317 
L 82.603687 -124.628317 
L 81.711499 -124.793288 
L 80.819311 -122.630904 
L 79.927122 -123.277185 
L 79.034934 -122.810739 
L 78.142745 -124.736835 
L 77.250556 -124.147849 
L 76.358367 -125.037759 
L 75.466182 -125.688163 
L 74.573992 -127.554564 
L 73.681804 -124.46982 
L 72.789615 -125.758072 
L 71.897429 -122.614612 
L 71.00524 -126.415695 
L 70.113051 -126.938317 
L 69.220863 -132.271942 
L 68.328673 -133.444399 
L 67.436488 -131.871537 
L 66.544299 -133.368327 
L 65.652109 -132.360738 
L 64.759921 -130.560326 
L 63.867735 -129.57812 
L 62.975546 -130.22733 
L 62.083357 -131.161371 
L 61.191169 -131.713836 
L 60.298981 -133.143293 
L 59.406792 -133.87101 
L 58.514604 -139.614871 
L 57.622415 -140.585409 
L 56.730228 -141.052189 
L 55.838039 -142.149494 
L 54.945851 -142.868565 
L 54.053663 -144.080961 
L 53.161474 -145.170747 
L 52.269287 -145.558955 
L 51.377098 -146.342317 
L 50.48491 -144.989812 
L 49.592722 -144.849327 
L 48.700534 -146.781027 
L 47.808346 -146.342317 
L 46.916158 -147.94739 
L 46.023969 -147.556385 
L 45.131781 -148.237395 
L 44.239593 -147.11548 
L 43.347405 -147.762122 
L 42.455217 -146.342317 
L 41.563028 -146.651526 
z
" style="stroke: #0000ff; stroke-opacity: 0.1"/>
    </defs>
    <g clip-path="url(#p72ce0bb386)">
     <use xlink:href="#m9a38d57bb0" x="0" y="193.350497" style="fill: #0000ff; fill-opacity: 0.1; stroke: #0000ff; stroke-opacity: 0.1"/>
    </g>
   </g>
   <g id="matplotlib.axis_1">
    <g id="xtick_1">
     <g id="line2d_1">
      <defs>
       <path id="m5723834c75" d="M 0 0 
L 0 -3 
" style="stroke: #000000; stroke-width: 0.5"/>
      </defs>
      <g>
       <use xlink:href="#m5723834c75" x="40.112216" y="163.43218" style="stroke: #000000; stroke-width: 0.5"/>
      </g>
     </g>
     <g id="line2d_2">
      <defs>
       <path id="m32c1e2d07b" d="M 0 0 
L 0 3 
" style="stroke: #000000; stroke-width: 0.5"/>
      </defs>
      <g>
       <use xlink:href="#m32c1e2d07b" x="40.112216" y="17.90218" style="stroke: #000000; stroke-width: 0.5"/>
      </g>
     </g>
     <g id="text_1">
      <!-- $\mathdefault{0}$ -->
      <g transform="translate(37.621549 173.850678) scale(0.1 -0.1)">
       <defs>
        <path id="CMR17-30" d="M 2688 2025 
C 2688 2416 2682 3080 2413 3591 
C 2176 4039 1798 4198 1466 4198 
C 1158 4198 768 4058 525 3597 
C 269 3118 243 2524 243 2025 
C 243 1661 250 1106 448 619 
C 723 -39 1216 -128 1466 -128 
C 1760 -128 2208 -7 2470 600 
C 2662 1042 2688 1559 2688 2025 
z
M 1466 -26 
C 1056 -26 813 325 723 812 
C 653 1188 653 1738 653 2096 
C 653 2588 653 2997 736 3387 
C 858 3929 1216 4096 1466 4096 
C 1728 4096 2067 3923 2189 3400 
C 2272 3036 2278 2607 2278 2096 
C 2278 1680 2278 1169 2202 792 
C 2067 95 1690 -26 1466 -26 
z
" transform="scale(0.015625)"/>
       </defs>
       <use xlink:href="#CMR17-30" transform="scale(0.996264)"/>
      </g>
     </g>
    </g>
    <g id="xtick_2">
     <g id="line2d_3">
      <g>
       <use xlink:href="#m5723834c75" x="90.448644" y="163.43218" style="stroke: #000000; stroke-width: 0.5"/>
      </g>
     </g>
     <g id="line2d_4">
      <g>
       <use xlink:href="#m32c1e2d07b" x="90.448644" y="17.90218" style="stroke: #000000; stroke-width: 0.5"/>
      </g>
     </g>
     <g id="text_2">
      <!-- $\mathdefault{10}$ -->
      <g transform="translate(85.467309 173.850678) scale(0.1 -0.1)">
       <defs>
        <path id="CMR17-31" d="M 1702 4058 
C 1702 4192 1696 4192 1606 4192 
C 1357 3916 979 3827 621 3827 
C 602 3827 570 3827 563 3808 
C 557 3795 557 3782 557 3648 
C 755 3648 1088 3686 1344 3839 
L 1344 461 
C 1344 236 1331 160 781 160 
L 589 160 
L 589 0 
C 896 0 1216 0 1523 0 
C 1830 0 2150 0 2458 0 
L 2458 160 
L 2266 160 
C 1715 160 1702 230 1702 458 
L 1702 4058 
z
" transform="scale(0.015625)"/>
       </defs>
       <use xlink:href="#CMR17-31" transform="scale(0.996264)"/>
       <use xlink:href="#CMR17-30" transform="translate(45.690477 0) scale(0.996264)"/>
      </g>
     </g>
    </g>
    <g id="xtick_3">
     <g id="line2d_5">
      <g>
       <use xlink:href="#m5723834c75" x="140.785072" y="163.43218" style="stroke: #000000; stroke-width: 0.5"/>
      </g>
     </g>
     <g id="line2d_6">
      <g>
       <use xlink:href="#m32c1e2d07b" x="140.785072" y="17.90218" style="stroke: #000000; stroke-width: 0.5"/>
      </g>
     </g>
     <g id="text_3">
      <!-- $\mathdefault{20}$ -->
      <g transform="translate(135.803737 173.850678) scale(0.1 -0.1)">
       <defs>
        <path id="CMR17-32" d="M 2669 989 
L 2554 989 
C 2490 536 2438 459 2413 420 
C 2381 369 1920 369 1830 369 
L 602 369 
C 832 619 1280 1072 1824 1597 
C 2214 1967 2669 2402 2669 3035 
C 2669 3790 2067 4224 1395 4224 
C 691 4224 262 3604 262 3030 
C 262 2780 448 2748 525 2748 
C 589 2748 781 2787 781 3010 
C 781 3207 614 3264 525 3264 
C 486 3264 448 3258 422 3245 
C 544 3790 915 4058 1306 4058 
C 1862 4058 2227 3617 2227 3035 
C 2227 2479 1901 2000 1536 1584 
L 262 146 
L 262 0 
L 2515 0 
L 2669 989 
z
" transform="scale(0.015625)"/>
       </defs>
       <use xlink:href="#CMR17-32" transform="scale(0.996264)"/>
       <use xlink:href="#CMR17-30" transform="translate(45.690477 0) scale(0.996264)"/>
      </g>
     </g>
    </g>
    <g id="xtick_4">
     <g id="line2d_7">
      <g>
       <use xlink:href="#m5723834c75" x="191.1215" y="163.43218" style="stroke: #000000; stroke-width: 0.5"/>
      </g>
     </g>
     <g id="line2d_8">
      <g>
       <use xlink:href="#m32c1e2d07b" x="191.1215" y="17.90218" style="stroke: #000000; stroke-width: 0.5"/>
      </g>
     </g>
     <g id="text_4">
      <!-- $\mathdefault{30}$ -->
      <g transform="translate(186.140164 173.850678) scale(0.1 -0.1)">
       <defs>
        <path id="CMR17-33" d="M 1414 2157 
C 1984 2157 2234 1662 2234 1090 
C 2234 320 1824 25 1453 25 
C 1114 25 563 194 390 693 
C 422 680 454 680 486 680 
C 640 680 755 782 755 948 
C 755 1133 614 1216 486 1216 
C 378 1216 211 1165 211 926 
C 211 335 787 -128 1466 -128 
C 2176 -128 2720 430 2720 1085 
C 2720 1707 2208 2157 1600 2227 
C 2086 2328 2554 2756 2554 3329 
C 2554 3820 2048 4179 1472 4179 
C 890 4179 378 3829 378 3329 
C 378 3110 544 3072 627 3072 
C 762 3072 877 3155 877 3321 
C 877 3486 762 3569 627 3569 
C 602 3569 570 3569 544 3557 
C 730 3959 1235 4032 1459 4032 
C 1683 4032 2106 3925 2106 3320 
C 2106 3143 2080 2828 1862 2550 
C 1670 2304 1453 2304 1242 2284 
C 1210 2284 1062 2269 1037 2269 
C 992 2263 966 2257 966 2208 
C 966 2163 973 2157 1101 2157 
L 1414 2157 
z
" transform="scale(0.015625)"/>
       </defs>
       <use xlink:href="#CMR17-33" transform="scale(0.996264)"/>
       <use xlink:href="#CMR17-30" transform="translate(45.690477 0) scale(0.996264)"/>
      </g>
     </g>
    </g>
    <g id="xtick_5">
     <g id="line2d_9">
      <defs>
       <path id="m69c1a9e17a" d="M 0 0 
L 0 -1.5 
" style="stroke: #000000; stroke-width: 0.5"/>
      </defs>
      <g>
       <use xlink:href="#m69c1a9e17a" x="50.179502" y="163.43218" style="stroke: #000000; stroke-width: 0.5"/>
      </g>
     </g>
     <g id="line2d_10">
      <defs>
       <path id="m03f99e3779" d="M 0 0 
L 0 1.5 
" style="stroke: #000000; stroke-width: 0.5"/>
      </defs>
      <g>
       <use xlink:href="#m03f99e3779" x="50.179502" y="17.90218" style="stroke: #000000; stroke-width: 0.5"/>
      </g>
     </g>
    </g>
    <g id="xtick_6">
     <g id="line2d_11">
      <g>
       <use xlink:href="#m69c1a9e17a" x="60.246787" y="163.43218" style="stroke: #000000; stroke-width: 0.5"/>
      </g>
     </g>
     <g id="line2d_12">
      <g>
       <use xlink:href="#m03f99e3779" x="60.246787" y="17.90218" style="stroke: #000000; stroke-width: 0.5"/>
      </g>
     </g>
    </g>
    <g id="xtick_7">
     <g id="line2d_13">
      <g>
       <use xlink:href="#m69c1a9e17a" x="70.314073" y="163.43218" style="stroke: #000000; stroke-width: 0.5"/>
      </g>
     </g>
     <g id="line2d_14">
      <g>
       <use xlink:href="#m03f99e3779" x="70.314073" y="17.90218" style="stroke: #000000; stroke-width: 0.5"/>
      </g>
     </g>
    </g>
    <g id="xtick_8">
     <g id="line2d_15">
      <g>
       <use xlink:href="#m69c1a9e17a" x="80.381358" y="163.43218" style="stroke: #000000; stroke-width: 0.5"/>
      </g>
     </g>
     <g id="line2d_16">
      <g>
       <use xlink:href="#m03f99e3779" x="80.381358" y="17.90218" style="stroke: #000000; stroke-width: 0.5"/>
      </g>
     </g>
    </g>
    <g id="xtick_9">
     <g id="line2d_17">
      <g>
       <use xlink:href="#m69c1a9e17a" x="100.51593" y="163.43218" style="stroke: #000000; stroke-width: 0.5"/>
      </g>
     </g>
     <g id="line2d_18">
      <g>
       <use xlink:href="#m03f99e3779" x="100.51593" y="17.90218" style="stroke: #000000; stroke-width: 0.5"/>
      </g>
     </g>
    </g>
    <g id="xtick_10">
     <g id="line2d_19">
      <g>
       <use xlink:href="#m69c1a9e17a" x="110.583215" y="163.43218" style="stroke: #000000; stroke-width: 0.5"/>
      </g>
     </g>
     <g id="line2d_20">
      <g>
       <use xlink:href="#m03f99e3779" x="110.583215" y="17.90218" style="stroke: #000000; stroke-width: 0.5"/>
      </g>
     </g>
    </g>
    <g id="xtick_11">
     <g id="line2d_21">
      <g>
       <use xlink:href="#m69c1a9e17a" x="120.650501" y="163.43218" style="stroke: #000000; stroke-width: 0.5"/>
      </g>
     </g>
     <g id="line2d_22">
      <g>
       <use xlink:href="#m03f99e3779" x="120.650501" y="17.90218" style="stroke: #000000; stroke-width: 0.5"/>
      </g>
     </g>
    </g>
    <g id="xtick_12">
     <g id="line2d_23">
      <g>
       <use xlink:href="#m69c1a9e17a" x="130.717786" y="163.43218" style="stroke: #000000; stroke-width: 0.5"/>
      </g>
     </g>
     <g id="line2d_24">
      <g>
       <use xlink:href="#m03f99e3779" x="130.717786" y="17.90218" style="stroke: #000000; stroke-width: 0.5"/>
      </g>
     </g>
    </g>
    <g id="xtick_13">
     <g id="line2d_25">
      <g>
       <use xlink:href="#m69c1a9e17a" x="150.852357" y="163.43218" style="stroke: #000000; stroke-width: 0.5"/>
      </g>
     </g>
     <g id="line2d_26">
      <g>
       <use xlink:href="#m03f99e3779" x="150.852357" y="17.90218" style="stroke: #000000; stroke-width: 0.5"/>
      </g>
     </g>
    </g>
    <g id="xtick_14">
     <g id="line2d_27">
      <g>
       <use xlink:href="#m69c1a9e17a" x="160.919643" y="163.43218" style="stroke: #000000; stroke-width: 0.5"/>
      </g>
     </g>
     <g id="line2d_28">
      <g>
       <use xlink:href="#m03f99e3779" x="160.919643" y="17.90218" style="stroke: #000000; stroke-width: 0.5"/>
      </g>
     </g>
    </g>
    <g id="xtick_15">
     <g id="line2d_29">
      <g>
       <use xlink:href="#m69c1a9e17a" x="170.986928" y="163.43218" style="stroke: #000000; stroke-width: 0.5"/>
      </g>
     </g>
     <g id="line2d_30">
      <g>
       <use xlink:href="#m03f99e3779" x="170.986928" y="17.90218" style="stroke: #000000; stroke-width: 0.5"/>
      </g>
     </g>
    </g>
    <g id="xtick_16">
     <g id="line2d_31">
      <g>
       <use xlink:href="#m69c1a9e17a" x="181.054214" y="163.43218" style="stroke: #000000; stroke-width: 0.5"/>
      </g>
     </g>
     <g id="line2d_32">
      <g>
       <use xlink:href="#m03f99e3779" x="181.054214" y="17.90218" style="stroke: #000000; stroke-width: 0.5"/>
      </g>
     </g>
    </g>
    <g id="xtick_17">
     <g id="line2d_33">
      <g>
       <use xlink:href="#m69c1a9e17a" x="201.188785" y="163.43218" style="stroke: #000000; stroke-width: 0.5"/>
      </g>
     </g>
     <g id="line2d_34">
      <g>
       <use xlink:href="#m03f99e3779" x="201.188785" y="17.90218" style="stroke: #000000; stroke-width: 0.5"/>
      </g>
     </g>
    </g>
    <g id="xtick_18">
     <g id="line2d_35">
      <g>
       <use xlink:href="#m69c1a9e17a" x="211.256071" y="163.43218" style="stroke: #000000; stroke-width: 0.5"/>
      </g>
     </g>
     <g id="line2d_36">
      <g>
       <use xlink:href="#m03f99e3779" x="211.256071" y="17.90218" style="stroke: #000000; stroke-width: 0.5"/>
      </g>
     </g>
    </g>
    <g id="xtick_19">
     <g id="line2d_37">
      <g>
       <use xlink:href="#m69c1a9e17a" x="221.323356" y="163.43218" style="stroke: #000000; stroke-width: 0.5"/>
      </g>
     </g>
     <g id="line2d_38">
      <g>
       <use xlink:href="#m03f99e3779" x="221.323356" y="17.90218" style="stroke: #000000; stroke-width: 0.5"/>
      </g>
     </g>
    </g>
    <g id="text_5">
     <!-- Tree Height (m) -->
     <g transform="translate(95.037521 187.259837) scale(0.1 -0.1)">
      <defs>
       <path id="CMR17-54" d="M 3981 4326 
L 288 4326 
L 179 2918 
L 294 2918 
C 378 3976 467 4160 1453 4160 
C 1568 4160 1754 4160 1805 4154 
C 1926 4135 1926 4058 1926 3912 
L 1926 459 
C 1926 230 1907 160 1376 160 
L 1197 160 
L 1197 0 
C 1504 0 1824 0 2138 0 
C 2451 0 2771 0 3078 0 
L 3078 160 
L 2899 160 
C 2368 160 2349 230 2349 459 
L 2349 3912 
C 2349 4052 2349 4129 2464 4154 
C 2515 4160 2701 4160 2816 4160 
C 3795 4160 3891 3976 3974 2918 
L 4090 2918 
L 3981 4326 
z
" transform="scale(0.015625)"/>
       <path id="CMR17-72" d="M 960 1497 
C 960 2112 1222 2688 1702 2688 
C 1747 2688 1792 2682 1837 2662 
C 1837 2662 1696 2617 1696 2452 
C 1696 2298 1818 2234 1914 2234 
C 1990 2234 2131 2279 2131 2458 
C 2131 2663 1926 2790 1709 2790 
C 1222 2790 1011 2317 947 2093 
L 941 2093 
L 941 2790 
L 198 2720 
L 198 2554 
C 576 2554 634 2515 634 2208 
L 634 428 
C 634 184 608 153 198 153 
L 198 -13 
C 352 0 646 0 813 0 
C 998 0 1325 0 1498 -13 
L 1498 153 
C 1037 153 960 153 960 440 
L 960 1497 
z
" transform="scale(0.015625)"/>
       <path id="CMR17-65" d="M 2438 1472 
C 2464 1498 2464 1511 2464 1576 
C 2464 2238 2118 2816 1389 2816 
C 710 2816 173 2169 173 1383 
C 173 551 781 -64 1459 -64 
C 2176 -64 2458 607 2458 740 
C 2458 784 2419 784 2406 784 
C 2362 784 2355 771 2330 696 
C 2189 265 1837 51 1504 51 
C 1229 51 954 203 781 480 
C 582 803 582 1176 582 1472 
L 2438 1472 
z
M 589 1568 
C 634 2505 1126 2714 1382 2714 
C 1818 2714 2112 2297 2118 1568 
L 589 1568 
z
" transform="scale(0.015625)"/>
       <path id="CMR17-48" d="M 3590 3905 
C 3590 4192 3661 4192 4102 4192 
L 4102 4352 
C 3917 4352 3578 4352 3379 4352 
C 3181 4352 2842 4352 2656 4352 
L 2656 4192 
C 3098 4192 3168 4192 3168 3904 
L 3168 2341 
L 1261 2341 
L 1261 3904 
C 1261 4192 1331 4192 1773 4192 
L 1773 4352 
C 1587 4352 1248 4352 1050 4352 
C 851 4352 512 4352 326 4352 
L 326 4192 
C 768 4192 838 4192 838 3905 
L 838 447 
C 838 160 768 160 326 160 
L 326 0 
C 512 0 851 0 1050 0 
C 1248 0 1587 0 1773 0 
L 1773 160 
C 1331 160 1261 160 1261 446 
L 1261 2176 
L 3168 2176 
L 3168 446 
C 3168 160 3098 160 2656 160 
L 2656 0 
C 2842 0 3181 0 3379 0 
C 3578 0 3917 0 4102 0 
L 4102 160 
C 3661 160 3590 160 3590 447 
L 3590 3905 
z
" transform="scale(0.015625)"/>
       <path id="CMR17-69" d="M 992 3909 
C 992 4049 877 4170 730 4170 
C 589 4170 467 4056 467 3909 
C 467 3769 582 3648 730 3648 
C 870 3648 992 3763 992 3909 
z
M 243 2706 
L 243 2541 
C 602 2541 653 2502 653 2197 
L 653 427 
C 653 184 627 153 218 153 
L 218 -13 
C 371 0 646 0 806 0 
C 960 0 1222 0 1370 -13 
L 1370 153 
C 992 153 979 191 979 420 
L 979 2776 
L 243 2706 
z
" transform="scale(0.015625)"/>
       <path id="CMR17-67" d="M 710 1164 
C 832 1068 1043 960 1299 960 
C 1805 960 2240 1357 2240 1888 
C 2240 2054 2189 2310 1997 2509 
C 2176 2692 2438 2752 2586 2752 
C 2611 2752 2650 2752 2682 2734 
C 2656 2728 2598 2703 2598 2605 
C 2598 2527 2656 2471 2739 2471 
C 2835 2471 2886 2533 2886 2614 
C 2886 2731 2790 2854 2586 2854 
C 2330 2854 2106 2738 1926 2580 
C 1734 2753 1504 2816 1299 2816 
C 794 2816 358 2419 358 1888 
C 358 1522 570 1292 634 1228 
C 442 1004 442 743 442 711 
C 442 545 506 302 723 168 
C 390 85 128 -169 128 -486 
C 128 -943 736 -1280 1466 -1280 
C 2170 -1280 2803 -956 2803 -479 
C 2803 384 1856 384 1363 384 
C 1216 384 954 384 922 391 
C 723 423 589 602 589 826 
C 589 883 589 1024 710 1164 
z
M 1299 1068 
C 736 1068 736 1760 736 1889 
C 736 2016 736 2708 1299 2708 
C 1862 2708 1862 2016 1862 1889 
C 1862 1760 1862 1068 1299 1068 
z
M 1466 -1171 
C 826 -1171 384 -835 384 -486 
C 384 -289 493 -105 634 -4 
C 794 104 858 104 1293 104 
C 1818 104 2547 104 2547 -486 
C 2547 -835 2106 -1171 1466 -1171 
z
" transform="scale(0.015625)"/>
       <path id="CMR17-68" d="M 2656 1933 
C 2656 2259 2592 2790 1837 2790 
C 1312 2790 1056 2368 979 2157 
L 973 2157 
L 973 4396 
L 211 4326 
L 211 4160 
C 589 4160 646 4122 646 3817 
L 646 426 
C 646 184 621 153 211 153 
L 211 -13 
C 365 0 646 0 813 0 
C 979 0 1267 0 1421 -13 
L 1421 153 
C 1011 153 986 178 986 428 
L 986 1658 
C 986 2247 1344 2688 1792 2688 
C 2266 2688 2317 2266 2317 1958 
L 2317 428 
C 2317 184 2291 153 1882 153 
L 1882 -13 
C 2035 0 2317 0 2483 0 
C 2650 0 2938 0 3091 -13 
L 3091 153 
C 2682 153 2656 178 2656 428 
L 2656 1933 
z
" transform="scale(0.015625)"/>
       <path id="CMR17-74" d="M 966 2560 
L 1862 2560 
L 1862 2725 
L 966 2725 
L 966 3904 
L 851 3904 
C 838 3245 614 2668 70 2668 
L 70 2560 
L 627 2560 
L 627 771 
C 627 650 627 -64 1370 -64 
C 1747 -64 1965 306 1965 777 
L 1965 1140 
L 1850 1140 
L 1850 783 
C 1850 344 1677 51 1408 51 
C 1222 51 966 178 966 758 
L 966 2560 
z
" transform="scale(0.015625)"/>
       <path id="CMR17-28" d="M 1958 -1561 
C 1958 -1555 1958 -1542 1939 -1523 
C 1645 -1224 858 -407 858 1581 
C 858 3569 1632 4379 1946 4697 
C 1946 4704 1958 4717 1958 4736 
C 1958 4755 1939 4768 1914 4768 
C 1843 4768 1299 4296 986 3594 
C 666 2887 576 2199 576 1588 
C 576 1128 621 351 1005 -471 
C 1312 -1135 1837 -1600 1914 -1600 
C 1946 -1600 1958 -1587 1958 -1561 
z
" transform="scale(0.015625)"/>
       <path id="CMR17-6d" d="M 4326 1933 
C 4326 2252 4269 2790 3507 2790 
C 3072 2790 2771 2496 2656 2151 
L 2650 2151 
C 2573 2676 2195 2790 1837 2790 
C 1331 2790 1069 2400 973 2144 
L 966 2144 
L 966 2790 
L 211 2720 
L 211 2554 
C 589 2554 646 2515 646 2208 
L 646 428 
C 646 184 621 153 211 153 
L 211 -13 
C 365 0 646 0 813 0 
C 979 0 1267 0 1421 -13 
L 1421 153 
C 1011 153 986 178 986 428 
L 986 1658 
C 986 2247 1344 2688 1792 2688 
C 2266 2688 2317 2266 2317 1958 
L 2317 428 
C 2317 184 2291 153 1882 153 
L 1882 -13 
C 2035 0 2317 0 2483 0 
C 2650 0 2938 0 3091 -13 
L 3091 153 
C 2682 153 2656 178 2656 428 
L 2656 1658 
C 2656 2247 3014 2688 3462 2688 
C 3936 2688 3987 2266 3987 1958 
L 3987 428 
C 3987 184 3962 153 3552 153 
L 3552 -13 
C 3706 0 3987 0 4154 0 
C 4320 0 4608 0 4762 -13 
L 4762 153 
C 4352 153 4326 178 4326 428 
L 4326 1933 
z
" transform="scale(0.015625)"/>
       <path id="CMR17-29" d="M 1683 1581 
C 1683 2040 1638 2817 1254 3639 
C 947 4303 422 4768 346 4768 
C 326 4768 301 4761 301 4729 
C 301 4717 307 4710 314 4697 
C 621 4378 1402 3568 1402 1584 
C 1402 -407 627 -1217 314 -1537 
C 307 -1549 301 -1556 301 -1568 
C 301 -1600 326 -1600 346 -1600 
C 416 -1600 960 -1128 1274 -426 
C 1594 281 1683 969 1683 1581 
z
" transform="scale(0.015625)"/>
      </defs>
      <use xlink:href="#CMR17-54" transform="scale(0.996264)"/>
      <use xlink:href="#CMR17-72" transform="translate(58.702625 0) scale(0.996264)"/>
      <use xlink:href="#CMR17-65" transform="translate(93.983393 0) scale(0.996264)"/>
      <use xlink:href="#CMR17-65" transform="translate(134.469053 0) scale(0.996264)"/>
      <use xlink:href="#CMR17-48" transform="translate(205.03068 0) scale(0.996264)"/>
      <use xlink:href="#CMR17-65" transform="translate(274.10311 0) scale(0.996264)"/>
      <use xlink:href="#CMR17-69" transform="translate(314.588771 0) scale(0.996264)"/>
      <use xlink:href="#CMR17-67" transform="translate(339.459829 0) scale(0.996264)"/>
      <use xlink:href="#CMR17-68" transform="translate(385.150306 0) scale(0.996264)"/>
      <use xlink:href="#CMR17-74" transform="translate(433.443222 0) scale(0.996264)"/>
      <use xlink:href="#CMR17-28" transform="translate(498.799956 0) scale(0.996264)"/>
      <use xlink:href="#CMR17-6d" transform="translate(534.080724 0) scale(0.996264)"/>
      <use xlink:href="#CMR17-29" transform="translate(611.000314 0) scale(0.996264)"/>
     </g>
    </g>
   </g>
   <g id="matplotlib.axis_2">
    <g id="ytick_1">
     <g id="line2d_39">
      <defs>
       <path id="m96dcb25858" d="M 0 0 
L 3 0 
" style="stroke: #000000; stroke-width: 0.5"/>
      </defs>
      <g>
       <use xlink:href="#m96dcb25858" x="32.685756" y="163.43218" style="stroke: #000000; stroke-width: 0.5"/>
      </g>
     </g>
     <g id="line2d_40">
      <defs>
       <path id="ma61f55ee4a" d="M 0 0 
L -3 0 
" style="stroke: #000000; stroke-width: 0.5"/>
      </defs>
      <g>
       <use xlink:href="#ma61f55ee4a" x="227.985756" y="163.43218" style="stroke: #000000; stroke-width: 0.5"/>
      </g>
     </g>
     <g id="text_6">
      <!-- $\mathdefault{0.0}$ -->
      <g transform="translate(16.455677 166.891429) scale(0.1 -0.1)">
       <defs>
        <path id="CMMI12-3a" d="M 1178 307 
C 1178 492 1024 619 870 619 
C 685 619 557 466 557 313 
C 557 128 710 0 864 0 
C 1050 0 1178 153 1178 307 
z
" transform="scale(0.015625)"/>
       </defs>
       <use xlink:href="#CMR17-30" transform="scale(0.996264)"/>
       <use xlink:href="#CMMI12-3a" transform="translate(45.690477 0) scale(0.996264)"/>
       <use xlink:href="#CMR17-30" transform="translate(72.787654 0) scale(0.996264)"/>
      </g>
     </g>
    </g>
    <g id="ytick_2">
     <g id="line2d_41">
      <g>
       <use xlink:href="#m96dcb25858" x="32.685756" y="134.32618" style="stroke: #000000; stroke-width: 0.5"/>
      </g>
     </g>
     <g id="line2d_42">
      <g>
       <use xlink:href="#ma61f55ee4a" x="227.985756" y="134.32618" style="stroke: #000000; stroke-width: 0.5"/>
      </g>
     </g>
     <g id="text_7">
      <!-- $\mathdefault{0.2}$ -->
      <g transform="translate(16.455677 137.785429) scale(0.1 -0.1)">
       <use xlink:href="#CMR17-30" transform="scale(0.996264)"/>
       <use xlink:href="#CMMI12-3a" transform="translate(45.690477 0) scale(0.996264)"/>
       <use xlink:href="#CMR17-32" transform="translate(72.787654 0) scale(0.996264)"/>
      </g>
     </g>
    </g>
    <g id="ytick_3">
     <g id="line2d_43">
      <g>
       <use xlink:href="#m96dcb25858" x="32.685756" y="105.22018" style="stroke: #000000; stroke-width: 0.5"/>
      </g>
     </g>
     <g id="line2d_44">
      <g>
       <use xlink:href="#ma61f55ee4a" x="227.985756" y="105.22018" style="stroke: #000000; stroke-width: 0.5"/>
      </g>
     </g>
     <g id="text_8">
      <!-- $\mathdefault{0.4}$ -->
      <g transform="translate(16.455677 108.679429) scale(0.1 -0.1)">
       <defs>
        <path id="CMR17-34" d="M 2150 4122 
C 2150 4256 2144 4256 2029 4256 
L 128 1254 
L 128 1088 
L 1779 1088 
L 1779 457 
C 1779 224 1766 160 1318 160 
L 1197 160 
L 1197 0 
C 1402 0 1747 0 1965 0 
C 2182 0 2528 0 2733 0 
L 2733 160 
L 2611 160 
C 2163 160 2150 224 2150 457 
L 2150 1088 
L 2803 1088 
L 2803 1254 
L 2150 1254 
L 2150 4122 
z
M 1798 3703 
L 1798 1254 
L 256 1254 
L 1798 3703 
z
" transform="scale(0.015625)"/>
       </defs>
       <use xlink:href="#CMR17-30" transform="scale(0.996264)"/>
       <use xlink:href="#CMMI12-3a" transform="translate(45.690477 0) scale(0.996264)"/>
       <use xlink:href="#CMR17-34" transform="translate(72.787654 0) scale(0.996264)"/>
      </g>
     </g>
    </g>
    <g id="ytick_4">
     <g id="line2d_45">
      <g>
       <use xlink:href="#m96dcb25858" x="32.685756" y="76.11418" style="stroke: #000000; stroke-width: 0.5"/>
      </g>
     </g>
     <g id="line2d_46">
      <g>
       <use xlink:href="#ma61f55ee4a" x="227.985756" y="76.11418" style="stroke: #000000; stroke-width: 0.5"/>
      </g>
     </g>
     <g id="text_9">
      <!-- $\mathdefault{0.6}$ -->
      <g transform="translate(16.455677 79.573429) scale(0.1 -0.1)">
       <defs>
        <path id="CMR17-36" d="M 678 2176 
C 678 3690 1395 4032 1811 4032 
C 1946 4032 2272 4009 2400 3776 
C 2298 3776 2106 3776 2106 3553 
C 2106 3381 2246 3323 2336 3323 
C 2394 3323 2566 3348 2566 3560 
C 2566 3954 2246 4179 1805 4179 
C 1043 4179 243 3390 243 1984 
C 243 253 966 -128 1478 -128 
C 2099 -128 2688 427 2688 1283 
C 2688 2081 2170 2662 1517 2662 
C 1126 2662 838 2407 678 1960 
L 678 2176 
z
M 1478 25 
C 691 25 691 1200 691 1436 
C 691 1896 909 2560 1504 2560 
C 1613 2560 1926 2560 2138 2120 
C 2253 1870 2253 1609 2253 1289 
C 2253 944 2253 690 2118 434 
C 1978 171 1773 25 1478 25 
z
" transform="scale(0.015625)"/>
       </defs>
       <use xlink:href="#CMR17-30" transform="scale(0.996264)"/>
       <use xlink:href="#CMMI12-3a" transform="translate(45.690477 0) scale(0.996264)"/>
       <use xlink:href="#CMR17-36" transform="translate(72.787654 0) scale(0.996264)"/>
      </g>
     </g>
    </g>
    <g id="ytick_5">
     <g id="line2d_47">
      <g>
       <use xlink:href="#m96dcb25858" x="32.685756" y="47.00818" style="stroke: #000000; stroke-width: 0.5"/>
      </g>
     </g>
     <g id="line2d_48">
      <g>
       <use xlink:href="#ma61f55ee4a" x="227.985756" y="47.00818" style="stroke: #000000; stroke-width: 0.5"/>
      </g>
     </g>
     <g id="text_10">
      <!-- $\mathdefault{0.8}$ -->
      <g transform="translate(16.455677 50.467429) scale(0.1 -0.1)">
       <defs>
        <path id="CMR17-38" d="M 1741 2264 
C 2144 2467 2554 2773 2554 3263 
C 2554 3841 1990 4179 1472 4179 
C 890 4179 378 3759 378 3180 
C 378 3021 416 2747 666 2505 
C 730 2442 998 2251 1171 2130 
C 883 1983 211 1634 211 934 
C 211 279 838 -128 1459 -128 
C 2144 -128 2720 362 2720 1010 
C 2720 1590 2330 1857 2074 2029 
L 1741 2264 
z
M 902 2822 
C 851 2854 595 3051 595 3351 
C 595 3739 998 4032 1459 4032 
C 1965 4032 2336 3676 2336 3262 
C 2336 2669 1670 2331 1638 2331 
C 1632 2331 1626 2331 1574 2370 
L 902 2822 
z
M 2080 1519 
C 2176 1449 2483 1240 2483 851 
C 2483 381 2010 25 1472 25 
C 890 25 448 438 448 940 
C 448 1443 838 1862 1280 2060 
L 2080 1519 
z
" transform="scale(0.015625)"/>
       </defs>
       <use xlink:href="#CMR17-30" transform="scale(0.996264)"/>
       <use xlink:href="#CMMI12-3a" transform="translate(45.690477 0) scale(0.996264)"/>
       <use xlink:href="#CMR17-38" transform="translate(72.787654 0) scale(0.996264)"/>
      </g>
     </g>
    </g>
    <g id="ytick_6">
     <g id="line2d_49">
      <g>
       <use xlink:href="#m96dcb25858" x="32.685756" y="17.90218" style="stroke: #000000; stroke-width: 0.5"/>
      </g>
     </g>
     <g id="line2d_50">
      <g>
       <use xlink:href="#ma61f55ee4a" x="227.985756" y="17.90218" style="stroke: #000000; stroke-width: 0.5"/>
      </g>
     </g>
     <g id="text_11">
      <!-- $\mathdefault{1.0}$ -->
      <g transform="translate(16.455677 21.361429) scale(0.1 -0.1)">
       <use xlink:href="#CMR17-31" transform="scale(0.996264)"/>
       <use xlink:href="#CMMI12-3a" transform="translate(45.690477 0) scale(0.996264)"/>
       <use xlink:href="#CMR17-30" transform="translate(72.787654 0) scale(0.996264)"/>
      </g>
     </g>
    </g>
    <g id="ytick_7">
     <g id="line2d_51">
      <defs>
       <path id="mdf204663f6" d="M 0 0 
L 1.5 0 
" style="stroke: #000000; stroke-width: 0.5"/>
      </defs>
      <g>
       <use xlink:href="#mdf204663f6" x="32.685756" y="156.15568" style="stroke: #000000; stroke-width: 0.5"/>
      </g>
     </g>
     <g id="line2d_52">
      <defs>
       <path id="m7a4e2522b3" d="M 0 0 
L -1.5 0 
" style="stroke: #000000; stroke-width: 0.5"/>
      </defs>
      <g>
       <use xlink:href="#m7a4e2522b3" x="227.985756" y="156.15568" style="stroke: #000000; stroke-width: 0.5"/>
      </g>
     </g>
    </g>
    <g id="ytick_8">
     <g id="line2d_53">
      <g>
       <use xlink:href="#mdf204663f6" x="32.685756" y="148.87918" style="stroke: #000000; stroke-width: 0.5"/>
      </g>
     </g>
     <g id="line2d_54">
      <g>
       <use xlink:href="#m7a4e2522b3" x="227.985756" y="148.87918" style="stroke: #000000; stroke-width: 0.5"/>
      </g>
     </g>
    </g>
    <g id="ytick_9">
     <g id="line2d_55">
      <g>
       <use xlink:href="#mdf204663f6" x="32.685756" y="141.60268" style="stroke: #000000; stroke-width: 0.5"/>
      </g>
     </g>
     <g id="line2d_56">
      <g>
       <use xlink:href="#m7a4e2522b3" x="227.985756" y="141.60268" style="stroke: #000000; stroke-width: 0.5"/>
      </g>
     </g>
    </g>
    <g id="ytick_10">
     <g id="line2d_57">
      <g>
       <use xlink:href="#mdf204663f6" x="32.685756" y="127.04968" style="stroke: #000000; stroke-width: 0.5"/>
      </g>
     </g>
     <g id="line2d_58">
      <g>
       <use xlink:href="#m7a4e2522b3" x="227.985756" y="127.04968" style="stroke: #000000; stroke-width: 0.5"/>
      </g>
     </g>
    </g>
    <g id="ytick_11">
     <g id="line2d_59">
      <g>
       <use xlink:href="#mdf204663f6" x="32.685756" y="119.77318" style="stroke: #000000; stroke-width: 0.5"/>
      </g>
     </g>
     <g id="line2d_60">
      <g>
       <use xlink:href="#m7a4e2522b3" x="227.985756" y="119.77318" style="stroke: #000000; stroke-width: 0.5"/>
      </g>
     </g>
    </g>
    <g id="ytick_12">
     <g id="line2d_61">
      <g>
       <use xlink:href="#mdf204663f6" x="32.685756" y="112.49668" style="stroke: #000000; stroke-width: 0.5"/>
      </g>
     </g>
     <g id="line2d_62">
      <g>
       <use xlink:href="#m7a4e2522b3" x="227.985756" y="112.49668" style="stroke: #000000; stroke-width: 0.5"/>
      </g>
     </g>
    </g>
    <g id="ytick_13">
     <g id="line2d_63">
      <g>
       <use xlink:href="#mdf204663f6" x="32.685756" y="97.94368" style="stroke: #000000; stroke-width: 0.5"/>
      </g>
     </g>
     <g id="line2d_64">
      <g>
       <use xlink:href="#m7a4e2522b3" x="227.985756" y="97.94368" style="stroke: #000000; stroke-width: 0.5"/>
      </g>
     </g>
    </g>
    <g id="ytick_14">
     <g id="line2d_65">
      <g>
       <use xlink:href="#mdf204663f6" x="32.685756" y="90.66718" style="stroke: #000000; stroke-width: 0.5"/>
      </g>
     </g>
     <g id="line2d_66">
      <g>
       <use xlink:href="#m7a4e2522b3" x="227.985756" y="90.66718" style="stroke: #000000; stroke-width: 0.5"/>
      </g>
     </g>
    </g>
    <g id="ytick_15">
     <g id="line2d_67">
      <g>
       <use xlink:href="#mdf204663f6" x="32.685756" y="83.39068" style="stroke: #000000; stroke-width: 0.5"/>
      </g>
     </g>
     <g id="line2d_68">
      <g>
       <use xlink:href="#m7a4e2522b3" x="227.985756" y="83.39068" style="stroke: #000000; stroke-width: 0.5"/>
      </g>
     </g>
    </g>
    <g id="ytick_16">
     <g id="line2d_69">
      <g>
       <use xlink:href="#mdf204663f6" x="32.685756" y="68.83768" style="stroke: #000000; stroke-width: 0.5"/>
      </g>
     </g>
     <g id="line2d_70">
      <g>
       <use xlink:href="#m7a4e2522b3" x="227.985756" y="68.83768" style="stroke: #000000; stroke-width: 0.5"/>
      </g>
     </g>
    </g>
    <g id="ytick_17">
     <g id="line2d_71">
      <g>
       <use xlink:href="#mdf204663f6" x="32.685756" y="61.56118" style="stroke: #000000; stroke-width: 0.5"/>
      </g>
     </g>
     <g id="line2d_72">
      <g>
       <use xlink:href="#m7a4e2522b3" x="227.985756" y="61.56118" style="stroke: #000000; stroke-width: 0.5"/>
      </g>
     </g>
    </g>
    <g id="ytick_18">
     <g id="line2d_73">
      <g>
       <use xlink:href="#mdf204663f6" x="32.685756" y="54.28468" style="stroke: #000000; stroke-width: 0.5"/>
      </g>
     </g>
     <g id="line2d_74">
      <g>
       <use xlink:href="#m7a4e2522b3" x="227.985756" y="54.28468" style="stroke: #000000; stroke-width: 0.5"/>
      </g>
     </g>
    </g>
    <g id="ytick_19">
     <g id="line2d_75">
      <g>
       <use xlink:href="#mdf204663f6" x="32.685756" y="39.73168" style="stroke: #000000; stroke-width: 0.5"/>
      </g>
     </g>
     <g id="line2d_76">
      <g>
       <use xlink:href="#m7a4e2522b3" x="227.985756" y="39.73168" style="stroke: #000000; stroke-width: 0.5"/>
      </g>
     </g>
    </g>
    <g id="ytick_20">
     <g id="line2d_77">
      <g>
       <use xlink:href="#mdf204663f6" x="32.685756" y="32.45518" style="stroke: #000000; stroke-width: 0.5"/>
      </g>
     </g>
     <g id="line2d_78">
      <g>
       <use xlink:href="#m7a4e2522b3" x="227.985756" y="32.45518" style="stroke: #000000; stroke-width: 0.5"/>
      </g>
     </g>
    </g>
    <g id="ytick_21">
     <g id="line2d_79">
      <g>
       <use xlink:href="#mdf204663f6" x="32.685756" y="25.17868" style="stroke: #000000; stroke-width: 0.5"/>
      </g>
     </g>
     <g id="line2d_80">
      <g>
       <use xlink:href="#m7a4e2522b3" x="227.985756" y="25.17868" style="stroke: #000000; stroke-width: 0.5"/>
      </g>
     </g>
    </g>
    <g id="text_12">
     <!-- F1 Score -->
     <g transform="translate(10.518498 109.706926) rotate(-90) scale(0.1 -0.1)">
      <defs>
       <path id="CMR17-46" d="M 3482 4325 
L 326 4325 
L 326 4160 
C 768 4160 838 4160 838 3874 
L 838 446 
C 838 160 768 160 326 160 
L 326 0 
C 512 0 870 0 1069 0 
C 1331 0 1638 0 1901 0 
L 1901 160 
L 1760 160 
C 1274 160 1261 223 1261 452 
L 1261 2075 
L 1837 2075 
C 2432 2075 2490 1865 2490 1332 
L 2605 1332 
L 2605 2987 
L 2490 2987 
C 2490 2450 2432 2240 1837 2240 
L 1261 2240 
L 1261 3911 
C 1261 4128 1274 4160 1530 4160 
L 2355 4160 
C 3322 4160 3430 3765 3520 2916 
L 3635 2916 
L 3482 4325 
z
" transform="scale(0.015625)"/>
       <path id="CMR17-53" d="M 2803 4290 
C 2803 4404 2797 4411 2758 4411 
C 2720 4411 2707 4385 2682 4328 
L 2490 3907 
C 2246 4257 1875 4416 1472 4416 
C 819 4416 294 3901 294 3253 
C 294 3056 339 2776 557 2510 
C 794 2218 1018 2167 1530 2033 
C 1722 1982 2042 1899 2106 1874 
C 2470 1722 2662 1341 2662 985 
C 2662 527 2336 38 1779 38 
C 1094 38 454 419 410 1311 
C 403 1413 397 1419 352 1419 
C 301 1419 294 1413 294 1285 
L 294 -1 
C 294 -115 301 -122 339 -122 
C 384 -122 397 -90 486 108 
C 493 127 493 140 614 381 
C 934 -39 1472 -128 1779 -128 
C 2477 -128 2970 451 2970 1124 
C 2970 1454 2848 1708 2778 1823 
C 2509 2230 2221 2306 1914 2382 
C 1869 2402 1856 2402 1498 2490 
C 1152 2579 1005 2624 845 2796 
C 666 2992 602 3196 602 3399 
C 602 3812 934 4263 1478 4263 
C 2157 4263 2579 3786 2675 2993 
C 2694 2878 2701 2872 2746 2872 
C 2803 2872 2803 2891 2803 2999 
L 2803 4290 
z
" transform="scale(0.015625)"/>
       <path id="CMR17-63" d="M 2234 2240 
C 2112 2240 1933 2240 1933 2017 
C 1933 1838 2080 1787 2163 1787 
C 2208 1787 2394 1807 2394 2024 
C 2394 2467 1958 2803 1466 2803 
C 787 2803 211 2178 211 1363 
C 211 516 813 -64 1466 -64 
C 2259 -64 2458 677 2458 748 
C 2458 774 2451 793 2406 793 
C 2362 793 2355 787 2330 703 
C 2163 180 1798 51 1523 51 
C 1114 51 621 427 621 1369 
C 621 2338 1094 2688 1472 2688 
C 1722 2688 2093 2573 2234 2240 
z
" transform="scale(0.015625)"/>
       <path id="CMR17-6f" d="M 2758 1356 
C 2758 2176 2163 2816 1466 2816 
C 768 2816 173 2176 173 1356 
C 173 551 768 -64 1466 -64 
C 2163 -64 2758 551 2758 1356 
z
M 1466 51 
C 1165 51 909 230 762 480 
C 602 767 582 1126 582 1408 
C 582 1677 595 2010 762 2298 
C 890 2509 1139 2714 1466 2714 
C 1754 2714 1997 2554 2150 2330 
C 2349 2029 2349 1607 2349 1408 
C 2349 1158 2336 775 2163 467 
C 1984 173 1709 51 1466 51 
z
" transform="scale(0.015625)"/>
      </defs>
      <use xlink:href="#CMR17-46" transform="scale(0.996264)"/>
      <use xlink:href="#CMR17-31" transform="translate(59.983847 0) scale(0.996264)"/>
      <use xlink:href="#CMR17-53" transform="translate(135.75029 0) scale(0.996264)"/>
      <use xlink:href="#CMR17-63" transform="translate(186.64566 0) scale(0.996264)"/>
      <use xlink:href="#CMR17-6f" transform="translate(227.13132 0) scale(0.996264)"/>
      <use xlink:href="#CMR17-72" transform="translate(272.821797 0) scale(0.996264)"/>
      <use xlink:href="#CMR17-65" transform="translate(308.102565 0) scale(0.996264)"/>
     </g>
    </g>
   </g>
   <g id="line2d_81">
    <path d="M 41.563028 55.577459 
L 42.455217 56.275762 
L 43.347405 54.806917 
L 44.239593 55.130784 
L 45.131781 53.962711 
L 46.916158 53.983998 
L 47.808346 55.32418 
L 48.700534 54.571156 
L 49.592722 56.375628 
L 50.48491 56.48968 
L 51.377098 55.63218 
L 52.269287 55.750641 
L 53.161474 56.640381 
L 54.053663 57.123031 
L 54.945851 59.40313 
L 55.838039 59.48218 
L 57.622415 63.380305 
L 58.514604 64.821688 
L 59.406792 70.164335 
L 60.298981 71.183655 
L 61.191169 72.88018 
L 62.083357 72.671535 
L 62.975546 74.364639 
L 63.867735 75.62637 
L 64.759921 74.263509 
L 65.652109 72.153008 
L 66.544299 71.70418 
L 67.436488 72.802719 
L 68.328673 72.581082 
L 69.220863 72.689945 
L 70.113051 78.693192 
L 71.00524 78.930889 
L 71.897429 83.007706 
L 72.789615 80.547544 
L 73.681804 81.631003 
L 74.573992 78.86745 
L 75.466182 80.56093 
L 76.358367 82.58218 
L 77.250556 82.58218 
L 78.142745 81.443447 
L 79.034934 84.43018 
L 79.927122 83.493166 
L 80.819311 84.649022 
L 81.711499 83.625406 
L 82.603687 82.317098 
L 83.495875 80.610229 
L 84.388063 78.243887 
L 85.280251 78.432357 
L 86.172441 79.910615 
L 87.064627 80.27218 
L 87.956815 78.657423 
L 88.849003 79.860497 
L 89.741191 80.679827 
L 90.633379 80.27218 
L 91.525567 80.679827 
L 92.41776 78.657423 
L 93.309948 82.926222 
L 94.202136 85.81618 
L 95.094319 84.94409 
L 95.986507 90.66718 
L 96.878695 87.20218 
L 97.770883 88.892424 
L 98.663076 92.532949 
L 99.555264 91.61218 
L 101.33964 84.05218 
L 102.231828 85.81618 
L 103.124011 86.0618 
L 104.016199 81.793399 
L 104.908392 74.402062 
L 105.80058 77.826297 
L 106.692768 77.073718 
L 107.584956 74.848702 
L 108.477144 74.582285 
L 109.369332 75.507805 
L 110.26152 74.972768 
L 111.153708 74.096932 
L 112.045896 73.005772 
L 112.938084 75.56501 
L 114.72246 71.518496 
L 116.506836 68.042768 
L 117.399029 69.700993 
L 118.291217 67.194599 
L 119.1834 63.579479 
L 120.075588 60.814872 
L 120.967771 61.21468 
L 121.859964 57.439232 
L 122.752157 56.358294 
L 123.644345 52.93718 
L 124.536523 53.973718 
L 125.428721 51.840006 
L 126.320904 54.696557 
L 127.213097 54.525624 
L 128.10528 53.47618 
L 128.997473 51.816251 
L 129.889661 52.702832 
L 130.781854 53.361266 
L 131.674037 51.68593 
L 132.56622 49.763777 
L 133.458413 48.934312 
L 134.350596 46.912279 
L 135.242789 44.36218 
L 136.134977 42.70843 
L 137.027171 41.899148 
L 137.919354 40.388274 
L 138.811547 40.084582 
L 140.595913 38.6039 
L 142.380294 38.3651 
L 143.272487 38.29843 
L 144.16467 38.003009 
L 145.056863 37.454903 
L 145.949046 37.331915 
L 147.733427 36.21718 
L 148.62561 36.325264 
L 149.517803 35.92485 
L 150.409986 36.231825 
L 151.302179 35.453537 
L 152.194362 34.987717 
L 153.086555 34.773464 
L 153.978743 34.344861 
L 154.870936 33.74218 
L 156.655302 31.829107 
L 158.439678 31.082255 
L 159.331871 30.797243 
L 160.224059 30.996904 
L 161.116252 30.941428 
L 162.008435 31.019942 
L 162.900628 30.956366 
L 164.684994 30.247019 
L 165.577187 30.303232 
L 166.469375 29.751951 
L 167.361568 28.63337 
L 169.145944 27.182354 
L 170.038127 27.256126 
L 170.93032 26.088242 
L 171.822503 26.013688 
L 172.714691 26.283489 
L 173.606884 26.247986 
L 174.499067 25.898334 
L 175.39126 25.284136 
L 177.175641 24.777613 
L 178.067819 24.151934 
L 178.960017 23.96593 
L 181.636576 24.11582 
L 182.528759 23.589559 
L 184.31314 23.053684 
L 185.205333 22.897489 
L 186.097516 23.472706 
L 186.989709 23.265693 
L 190.558456 23.373232 
L 191.450649 23.126334 
L 192.342832 23.32085 
L 195.019402 23.349827 
L 195.911585 23.499488 
L 196.803773 23.113998 
L 197.695966 23.142872 
L 198.588149 21.94468 
L 199.480342 21.612576 
L 200.37253 20.943105 
L 202.156906 21.017501 
L 203.941282 20.22694 
L 204.833465 20.319622 
L 205.725658 19.895741 
L 207.510034 20.10718 
L 208.402217 19.79218 
L 210.186608 20.031887 
L 211.078786 18.656221 
L 214.647538 19.06642 
L 215.539731 17.90218 
L 219.108483 17.90218 
L 219.108483 17.90218 
" clip-path="url(#p72ce0bb386)" style="fill: none; stroke: #0c5da5; stroke-width: 2; stroke-linecap: square"/>
   </g>
   <g id="patch_3">
    <path d="M 32.685756 163.43218 
L 32.685756 17.90218 
" style="fill: none; stroke: #000000; stroke-width: 0.5; stroke-linejoin: miter; stroke-linecap: square"/>
   </g>
   <g id="patch_4">
    <path d="M 227.985756 163.43218 
L 227.985756 17.90218 
" style="fill: none; stroke: #000000; stroke-width: 0.5; stroke-linejoin: miter; stroke-linecap: square"/>
   </g>
   <g id="patch_5">
    <path d="M 32.685756 163.43218 
L 227.985756 163.43218 
" style="fill: none; stroke: #000000; stroke-width: 0.5; stroke-linejoin: miter; stroke-linecap: square"/>
   </g>
   <g id="patch_6">
    <path d="M 32.685756 17.90218 
L 227.985756 17.90218 
" style="fill: none; stroke: #000000; stroke-width: 0.5; stroke-linejoin: miter; stroke-linecap: square"/>
   </g>
   <g id="text_13">
    <!-- F1 Score increases with Height -->
    <g transform="translate(51.339754 11.90218) scale(0.12 -0.12)">
     <defs>
      <path id="CMR17-6e" d="M 2656 1933 
C 2656 2259 2592 2790 1837 2790 
C 1331 2790 1069 2400 973 2144 
L 966 2144 
L 966 2790 
L 211 2720 
L 211 2554 
C 589 2554 646 2515 646 2208 
L 646 428 
C 646 184 621 153 211 153 
L 211 -13 
C 365 0 646 0 813 0 
C 979 0 1267 0 1421 -13 
L 1421 153 
C 1011 153 986 178 986 428 
L 986 1658 
C 986 2247 1344 2688 1792 2688 
C 2266 2688 2317 2266 2317 1958 
L 2317 428 
C 2317 184 2291 153 1882 153 
L 1882 -13 
C 2035 0 2317 0 2483 0 
C 2650 0 2938 0 3091 -13 
L 3091 153 
C 2682 153 2656 178 2656 428 
L 2656 1933 
z
" transform="scale(0.015625)"/>
      <path id="CMR17-61" d="M 2304 1653 
C 2304 2072 2304 2294 2035 2543 
C 1798 2752 1523 2816 1306 2816 
C 800 2816 435 2407 435 1971 
C 435 1728 627 1728 666 1728 
C 749 1728 896 1778 896 1954 
C 896 2112 774 2181 666 2181 
C 640 2181 608 2174 589 2168 
C 723 2592 1069 2714 1293 2714 
C 1613 2714 1965 2429 1965 1885 
L 1965 1600 
C 1587 1600 1133 1549 774 1357 
C 371 1133 256 813 256 570 
C 256 77 832 -64 1171 -64 
C 1523 -64 1850 139 1990 511 
C 2003 233 2182 -18 2464 -18 
C 2598 -18 2938 70 2938 567 
L 2938 920 
L 2822 920 
L 2822 562 
C 2822 178 2650 128 2566 128 
C 2304 128 2304 458 2304 738 
L 2304 1653 
z
M 1965 870 
C 1965 317 1568 38 1216 38 
C 896 38 646 275 646 570 
C 646 761 730 1100 1101 1305 
C 1408 1478 1760 1504 1965 1504 
L 1965 870 
z
" transform="scale(0.015625)"/>
      <path id="CMR17-73" d="M 1978 2697 
C 1978 2813 1971 2819 1933 2819 
C 1907 2819 1901 2813 1824 2717 
C 1805 2691 1747 2626 1728 2601 
C 1523 2819 1235 2819 1126 2819 
C 416 2819 160 2447 160 2076 
C 160 1498 813 1365 998 1325 
C 1402 1243 1542 1217 1677 1101 
C 1760 1025 1901 884 1901 654 
C 1901 384 1747 38 1158 38 
C 602 38 403 460 288 1021 
C 269 1110 269 1117 218 1117 
C 166 1117 160 1110 160 983 
L 160 63 
C 160 -51 166 -58 205 -58 
C 237 -58 243 -51 275 0 
C 314 57 410 211 448 276 
C 576 103 800 -64 1158 -64 
C 1792 -64 2131 283 2131 784 
C 2131 1112 1958 1285 1875 1362 
C 1683 1561 1459 1606 1190 1657 
C 838 1735 390 1825 390 2217 
C 390 2383 480 2737 1126 2737 
C 1811 2737 1850 2094 1862 1888 
C 1869 1856 1901 1849 1920 1849 
C 1978 1849 1978 1869 1978 1978 
L 1978 2697 
z
" transform="scale(0.015625)"/>
      <path id="CMR17-77" d="M 3725 2183 
C 3853 2560 4109 2560 4205 2560 
L 4205 2732 
C 4077 2732 3949 2732 3821 2732 
C 3699 2732 3424 2732 3315 2738 
L 3315 2560 
C 3514 2560 3622 2445 3622 2286 
C 3622 2241 3610 2184 3597 2140 
L 2995 407 
L 2342 2275 
C 2330 2319 2310 2370 2310 2395 
C 2310 2560 2528 2560 2630 2560 
L 2630 2738 
C 2483 2732 2214 2732 2061 2732 
C 1901 2732 1734 2732 1587 2738 
L 1587 2560 
C 1939 2560 1939 2547 2074 2149 
L 1485 451 
L 851 2281 
C 819 2363 819 2376 819 2395 
C 819 2560 1037 2560 1139 2560 
L 1139 2738 
C 986 2732 717 2732 557 2732 
C 416 2732 198 2732 64 2738 
L 64 2560 
C 346 2560 416 2541 486 2331 
L 1274 49 
C 1299 -33 1318 -52 1370 -52 
C 1414 -52 1440 -39 1472 56 
L 2131 1980 
L 2797 56 
C 2829 -39 2854 -52 2899 -52 
C 2950 -52 2970 -33 2995 50 
L 3725 2183 
z
" transform="scale(0.015625)"/>
     </defs>
     <use xlink:href="#CMR17-46" transform="scale(0.996264)"/>
     <use xlink:href="#CMR17-31" transform="translate(59.983847 0) scale(0.996264)"/>
     <use xlink:href="#CMR17-53" transform="translate(135.75029 0) scale(0.996264)"/>
     <use xlink:href="#CMR17-63" transform="translate(186.64566 0) scale(0.996264)"/>
     <use xlink:href="#CMR17-6f" transform="translate(227.13132 0) scale(0.996264)"/>
     <use xlink:href="#CMR17-72" transform="translate(272.821797 0) scale(0.996264)"/>
     <use xlink:href="#CMR17-65" transform="translate(308.102565 0) scale(0.996264)"/>
     <use xlink:href="#CMR17-69" transform="translate(378.664192 0) scale(0.996264)"/>
     <use xlink:href="#CMR17-6e" transform="translate(403.535251 0) scale(0.996264)"/>
     <use xlink:href="#CMR17-63" transform="translate(454.43062 0) scale(0.996264)"/>
     <use xlink:href="#CMR17-72" transform="translate(494.916281 0) scale(0.996264)"/>
     <use xlink:href="#CMR17-65" transform="translate(530.197049 0) scale(0.996264)"/>
     <use xlink:href="#CMR17-61" transform="translate(570.682709 0) scale(0.996264)"/>
     <use xlink:href="#CMR17-73" transform="translate(616.373186 0) scale(0.996264)"/>
     <use xlink:href="#CMR17-65" transform="translate(652.174524 0) scale(0.996264)"/>
     <use xlink:href="#CMR17-73" transform="translate(692.660184 0) scale(0.996264)"/>
     <use xlink:href="#CMR17-77" transform="translate(758.537488 0) scale(0.996264)"/>
     <use xlink:href="#CMR17-69" transform="translate(825.047369 0) scale(0.996264)"/>
     <use xlink:href="#CMR17-74" transform="translate(849.918427 0) scale(0.996264)"/>
     <use xlink:href="#CMR17-68" transform="translate(885.199195 0) scale(0.996264)"/>
     <use xlink:href="#CMR17-48" transform="translate(966.170531 0) scale(0.996264)"/>
     <use xlink:href="#CMR17-65" transform="translate(1035.242961 0) scale(0.996264)"/>
     <use xlink:href="#CMR17-69" transform="translate(1075.728621 0) scale(0.996264)"/>
     <use xlink:href="#CMR17-67" transform="translate(1100.59968 0) scale(0.996264)"/>
     <use xlink:href="#CMR17-68" transform="translate(1146.290157 0) scale(0.996264)"/>
     <use xlink:href="#CMR17-74" transform="translate(1194.583073 0) scale(0.996264)"/>
    </g>
   </g>
   <g id="legend_1">
    <g id="line2d_82">
     <path d="M 41.685756 135.057823 
L 51.685756 135.057823 
L 61.685756 135.057823 
" style="fill: none; stroke: #0c5da5; stroke-width: 2; stroke-linecap: square"/>
    </g>
    <g id="text_14">
     <!-- Point Estimate -->
     <g transform="translate(69.685756 138.557823) scale(0.1 -0.1)">
      <defs>
       <path id="CMR17-50" d="M 1267 2042 
L 2291 2042 
C 3117 2042 3718 2578 3718 3184 
C 3718 3791 3130 4352 2291 4352 
L 333 4352 
L 333 4186 
C 774 4186 845 4186 845 3899 
L 845 446 
C 845 160 774 160 333 160 
L 333 0 
C 518 0 858 0 1056 0 
C 1254 0 1594 0 1779 0 
L 1779 160 
C 1338 160 1267 160 1267 446 
L 1267 2042 
z
M 1254 2176 
L 1254 3938 
C 1254 4155 1267 4186 1523 4186 
L 2170 4186 
C 2995 4186 3232 3714 3232 3184 
C 3232 2604 2950 2176 2170 2176 
L 1254 2176 
z
" transform="scale(0.015625)"/>
       <path id="CMR17-45" d="M 3885 1615 
L 3770 1615 
C 3629 676 3546 166 2419 166 
L 1530 166 
C 1274 166 1261 197 1261 414 
L 1261 2176 
L 1862 2176 
C 2464 2176 2522 1960 2522 1430 
L 2637 1430 
L 2637 3081 
L 2522 3081 
C 2522 2557 2464 2342 1862 2342 
L 1261 2342 
L 1261 3913 
C 1261 4128 1274 4160 1530 4160 
L 2406 4160 
C 3398 4160 3514 3769 3603 2929 
L 3718 2929 
L 3565 4325 
L 326 4325 
L 326 4160 
C 768 4160 838 4160 838 3874 
L 838 451 
C 838 166 768 166 326 166 
L 326 0 
L 3654 0 
L 3885 1615 
z
" transform="scale(0.015625)"/>
      </defs>
      <use xlink:href="#CMR17-50" transform="scale(0.996264)"/>
      <use xlink:href="#CMR17-6f" transform="translate(59.983847 0) scale(0.996264)"/>
      <use xlink:href="#CMR17-69" transform="translate(105.674324 0) scale(0.996264)"/>
      <use xlink:href="#CMR17-6e" transform="translate(130.545382 0) scale(0.996264)"/>
      <use xlink:href="#CMR17-74" transform="translate(178.838298 0) scale(0.996264)"/>
      <use xlink:href="#CMR17-45" transform="translate(244.195032 0) scale(0.996264)"/>
      <use xlink:href="#CMR17-73" transform="translate(306.781333 0) scale(0.996264)"/>
      <use xlink:href="#CMR17-74" transform="translate(342.58267 0) scale(0.996264)"/>
      <use xlink:href="#CMR17-69" transform="translate(377.863438 0) scale(0.996264)"/>
      <use xlink:href="#CMR17-6d" transform="translate(402.734497 0) scale(0.996264)"/>
      <use xlink:href="#CMR17-61" transform="translate(479.654086 0) scale(0.996264)"/>
      <use xlink:href="#CMR17-74" transform="translate(525.344564 0) scale(0.996264)"/>
      <use xlink:href="#CMR17-65" transform="translate(560.625331 0) scale(0.996264)"/>
     </g>
    </g>
    <g id="patch_7">
     <path d="M 41.685756 152.495001 
L 61.685756 152.495001 
L 61.685756 145.495001 
L 41.685756 145.495001 
z
" style="fill: #0000ff; fill-opacity: 0.1; stroke: #0000ff; stroke-opacity: 0.1; stroke-linejoin: miter"/>
    </g>
    <g id="text_15">
     <!-- 95 \% Confidence Interval -->
     <g transform="translate(69.685756 152.495001) scale(0.1 -0.1)">
      <defs>
       <path id="CMR17-39" d="M 2253 1864 
C 2253 464 1670 31 1190 31 
C 1043 31 685 31 538 294 
C 704 268 826 357 826 518 
C 826 692 685 749 595 749 
C 538 749 365 723 365 506 
C 365 71 742 -128 1203 -128 
C 1939 -128 2688 674 2688 2073 
C 2688 3817 1971 4179 1485 4179 
C 851 4179 243 3628 243 2778 
C 243 1991 762 1408 1414 1408 
C 1952 1408 2189 1903 2253 2112 
L 2253 1864 
z
M 1427 1510 
C 1254 1510 1011 1542 813 1922 
C 678 2169 678 2461 678 2771 
C 678 3146 678 3405 858 3684 
C 947 3817 1114 4032 1485 4032 
C 2240 4032 2240 2885 2240 2632 
C 2240 2182 2035 1510 1427 1510 
z
" transform="scale(0.015625)"/>
       <path id="CMR17-35" d="M 730 3692 
C 794 3666 1056 3584 1325 3584 
C 1920 3584 2246 3911 2432 4100 
C 2432 4157 2432 4192 2394 4192 
C 2387 4192 2374 4192 2323 4163 
C 2099 4058 1837 3973 1517 3973 
C 1325 3973 1037 3999 723 4139 
C 653 4171 640 4171 634 4171 
C 602 4171 595 4164 595 4037 
L 595 2203 
C 595 2089 595 2057 659 2057 
C 691 2057 704 2070 736 2114 
C 941 2401 1222 2522 1542 2522 
C 1766 2522 2246 2382 2246 1289 
C 2246 1085 2246 715 2054 421 
C 1894 159 1645 25 1370 25 
C 947 25 518 320 403 814 
C 429 807 480 795 506 795 
C 589 795 749 840 749 1038 
C 749 1210 627 1280 506 1280 
C 358 1280 262 1190 262 1011 
C 262 454 704 -128 1382 -128 
C 2042 -128 2669 440 2669 1264 
C 2669 2030 2170 2624 1549 2624 
C 1222 2624 947 2503 730 2274 
L 730 3692 
z
" transform="scale(0.015625)"/>
       <path id="CMR17-25" d="M 4640 959 
C 4640 1698 4275 2240 3846 2240 
C 3411 2240 2970 1736 2970 959 
C 2970 183 3405 -320 3846 -320 
C 4275 -320 4640 215 4640 959 
z
M 3853 -218 
C 3686 -218 3270 -66 3270 959 
C 3270 1991 3686 2138 3853 2138 
C 4205 2138 4525 1634 4525 959 
C 4525 285 4205 -218 3853 -218 
z
M 4083 4577 
C 4128 4647 4134 4653 4134 4685 
C 4134 4761 4077 4800 4026 4800 
C 3962 4800 3936 4756 3891 4706 
C 3520 4190 3008 4134 2746 4134 
C 2106 4134 1715 4494 1594 4607 
C 1510 4682 1389 4800 1171 4800 
C 736 4800 294 4296 294 3519 
C 294 2743 730 2240 1171 2240 
C 1600 2240 1965 2778 1965 3527 
C 1965 3969 1830 4270 1811 4308 
C 2202 4064 2586 4032 2752 4032 
C 3162 4032 3456 4183 3616 4289 
L 3622 4283 
L 858 -84 
C 800 -174 800 -187 800 -206 
C 800 -276 858 -320 915 -320 
C 973 -320 992 -289 1037 -218 
L 4083 4577 
z
M 1178 2342 
C 1011 2342 595 2494 595 3519 
C 595 4551 1011 4698 1178 4698 
C 1530 4698 1850 4194 1850 3519 
C 1850 2845 1530 2342 1178 2342 
z
" transform="scale(0.015625)"/>
       <path id="CMR17-43" d="M 3974 4289 
C 3974 4403 3968 4410 3930 4410 
C 3904 4410 3898 4403 3853 4327 
L 3571 3792 
C 3258 4187 2874 4416 2381 4416 
C 1286 4416 294 3456 294 2148 
C 294 826 1286 -128 2387 -128 
C 3366 -128 3974 730 3974 1461 
C 3974 1524 3974 1550 3917 1550 
C 3866 1550 3866 1531 3859 1474 
C 3808 585 3168 38 2477 38 
C 1824 38 781 495 781 2147 
C 781 3805 1843 4250 2464 4250 
C 3187 4250 3712 3628 3834 2745 
C 3846 2668 3846 2655 3904 2655 
C 3974 2655 3974 2668 3974 2783 
L 3974 4289 
z
" transform="scale(0.015625)"/>
       <path id="CMR17-c" d="M 2554 2764 
C 2400 2764 1926 2764 1805 2739 
C 1766 2725 1754 2725 1677 2725 
L 947 2725 
L 947 3469 
C 947 4073 1434 4352 1818 4352 
C 1939 4352 2214 4320 2355 4101 
C 2291 4101 2086 4101 2086 3878 
C 2086 3725 2189 3648 2317 3648 
C 2432 3648 2547 3712 2547 3885 
C 2547 4205 2240 4454 1843 4454 
C 1338 4454 634 4168 634 3469 
L 634 2725 
L 122 2725 
L 122 2560 
L 634 2560 
L 634 427 
C 634 184 608 153 198 153 
L 198 -13 
C 352 0 634 0 794 0 
C 960 0 1242 0 1395 -13 
L 1395 153 
C 986 153 960 178 960 427 
L 960 2560 
L 1901 2560 
C 2176 2560 2227 2502 2227 2222 
L 2227 427 
C 2227 184 2202 153 1792 153 
L 1792 -13 
C 1946 0 2227 0 2387 0 
C 2554 0 2835 0 2989 -13 
L 2989 153 
C 2579 153 2554 178 2554 427 
L 2554 2764 
z
" transform="scale(0.015625)"/>
       <path id="CMR17-64" d="M 1869 4326 
L 1869 4160 
C 2246 4160 2304 4122 2304 3820 
L 2304 2345 
C 2278 2377 2016 2790 1498 2790 
C 845 2790 211 2208 211 1364 
C 211 525 806 -64 1434 -64 
C 1978 -64 2259 337 2291 380 
L 2291 -63 
L 3066 -63 
L 3066 128 
C 2688 128 2630 166 2630 473 
L 2630 4396 
L 1869 4326 
z
M 2291 755 
C 2291 563 2176 390 2029 262 
C 1811 70 1594 38 1472 38 
C 1286 38 621 134 621 1356 
C 621 2612 1363 2688 1530 2688 
C 1824 2688 2061 2522 2208 2291 
C 2291 2157 2291 2138 2291 2023 
L 2291 755 
z
" transform="scale(0.015625)"/>
       <path id="CMR17-49" d="M 1261 3905 
C 1261 4192 1338 4192 1798 4192 
L 1798 4352 
C 1594 4352 1267 4352 1050 4352 
C 832 4352 506 4352 301 4352 
L 301 4192 
C 762 4192 838 4192 838 3905 
L 838 447 
C 838 160 762 160 301 160 
L 301 0 
C 506 0 832 0 1050 0 
C 1267 0 1594 0 1798 0 
L 1798 160 
C 1338 160 1261 160 1261 447 
L 1261 3905 
z
" transform="scale(0.015625)"/>
       <path id="CMR17-76" d="M 2502 2163 
C 2560 2304 2662 2560 3034 2560 
L 3034 2726 
C 2912 2726 2752 2726 2630 2726 
C 2496 2726 2285 2726 2157 2732 
L 2157 2566 
C 2317 2553 2406 2477 2406 2311 
C 2406 2253 2406 2240 2368 2151 
L 1664 377 
L 902 2286 
C 864 2369 864 2381 864 2407 
C 864 2560 1075 2560 1171 2560 
L 1171 2732 
C 1018 2726 736 2726 576 2726 
C 403 2726 205 2726 64 2732 
L 64 2560 
C 307 2560 442 2560 518 2362 
L 1446 44 
C 1485 -51 1491 -64 1549 -64 
C 1606 -64 1613 -51 1651 44 
L 2502 2163 
z
" transform="scale(0.015625)"/>
       <path id="CMR17-6c" d="M 979 4396 
L 218 4326 
L 218 4160 
C 595 4160 653 4122 653 3817 
L 653 426 
C 653 184 627 153 218 153 
L 218 -13 
C 371 0 653 0 813 0 
C 979 0 1261 0 1414 -13 
L 1414 153 
C 1005 153 979 178 979 426 
L 979 4396 
z
" transform="scale(0.015625)"/>
      </defs>
      <use xlink:href="#CMR17-39" transform="scale(0.996264)"/>
      <use xlink:href="#CMR17-35" transform="translate(45.690477 0) scale(0.996264)"/>
      <use xlink:href="#CMR17-25" transform="translate(121.456921 0) scale(0.996264)"/>
      <use xlink:href="#CMR17-43" transform="translate(228.452477 0) scale(0.996264)"/>
      <use xlink:href="#CMR17-6f" transform="translate(294.962357 0) scale(0.996264)"/>
      <use xlink:href="#CMR17-6e" transform="translate(340.652834 0) scale(0.996264)"/>
      <use xlink:href="#CMR17-c" transform="translate(391.548204 0) scale(0.996264)"/>
      <use xlink:href="#CMR17-64" transform="translate(441.290428 0) scale(0.996264)"/>
      <use xlink:href="#CMR17-65" transform="translate(492.185797 0) scale(0.996264)"/>
      <use xlink:href="#CMR17-6e" transform="translate(532.671458 0) scale(0.996264)"/>
      <use xlink:href="#CMR17-63" transform="translate(583.566828 0) scale(0.996264)"/>
      <use xlink:href="#CMR17-65" transform="translate(624.052488 0) scale(0.996264)"/>
      <use xlink:href="#CMR17-49" transform="translate(694.614115 0) scale(0.996264)"/>
      <use xlink:href="#CMR17-6e" transform="translate(727.252524 0) scale(0.996264)"/>
      <use xlink:href="#CMR17-74" transform="translate(775.54544 0) scale(0.996264)"/>
      <use xlink:href="#CMR17-65" transform="translate(810.826208 0) scale(0.996264)"/>
      <use xlink:href="#CMR17-72" transform="translate(851.311868 0) scale(0.996264)"/>
      <use xlink:href="#CMR17-76" transform="translate(886.592636 0) scale(0.996264)"/>
      <use xlink:href="#CMR17-61" transform="translate(929.680735 0) scale(0.996264)"/>
      <use xlink:href="#CMR17-6c" transform="translate(975.371212 0) scale(0.996264)"/>
     </g>
    </g>
   </g>
  </g>
 </g>
 <defs>
  <clipPath id="p72ce0bb386">
   <rect x="32.685756" y="17.90218" width="195.3" height="145.53"/>
  </clipPath>
 </defs>
</svg>
