<?xml version="1.0" encoding="utf-8" standalone="no"?>
<!DOCTYPE svg PUBLIC "-//W3C//DTD SVG 1.1//EN"
  "http://www.w3.org/Graphics/SVG/1.1/DTD/svg11.dtd">
<svg xmlns:xlink="http://www.w3.org/1999/xlink" width="231.585756pt" height="192.243533pt" viewBox="0 0 231.585756 192.243533" xmlns="http://www.w3.org/2000/svg" version="1.1">
 <metadata>
  <rdf:RDF xmlns:dc="http://purl.org/dc/elements/1.1/" xmlns:cc="http://creativecommons.org/ns#" xmlns:rdf="http://www.w3.org/1999/02/22-rdf-syntax-ns#">
   <cc:Work>
    <dc:type rdf:resource="http://purl.org/dc/dcmitype/StillImage"/>
    <dc:date>2024-06-12T10:11:08.396355</dc:date>
    <dc:format>image/svg+xml</dc:format>
    <dc:creator>
     <cc:Agent>
      <dc:title>Matplotlib v3.8.4, https://matplotlib.org/</dc:title>
     </cc:Agent>
    </dc:creator>
   </cc:Work>
  </rdf:RDF>
 </metadata>
 <defs>
  <style type="text/css">*{stroke-linejoin: round; stroke-linecap: butt}</style>
 </defs>
 <g id="figure_1">
  <g id="patch_1">
   <path d="M 0 192.243533 
L 231.585756 192.243533 
L 231.585756 0 
L 0 0 
z
" style="fill: #ffffff"/>
  </g>
  <g id="axes_1">
   <g id="patch_2">
    <path d="M 32.685756 163.43218 
L 227.985756 163.43218 
L 227.985756 17.90218 
L 32.685756 17.90218 
z
" style="fill: #ffffff"/>
   </g>
   <g id="PolyCollection_1">
    <defs>
     <path id="mc3fbc6a893" d="M 81.512095 -16.277682 
L 81.509417 -16.277682 
L 81.507431 -17.989736 
L 81.502986 -19.70179 
L 81.493512 -21.413844 
L 81.474289 -23.125898 
L 81.437411 -24.837952 
L 81.371042 -26.550006 
L 81.25957 -28.26206 
L 81.084928 -29.974114 
L 80.828619 -31.686168 
L 80.47363 -33.398222 
L 80.006085 -35.110276 
L 79.417593 -36.82233 
L 78.709148 -38.534384 
L 77.895451 -40.246438 
L 77.006789 -41.958491 
L 76.086174 -43.670545 
L 75.181996 -45.382599 
L 74.338412 -47.094653 
L 73.586419 -48.806707 
L 72.938672 -50.518761 
L 72.390492 -52.230815 
L 71.926851 -53.942869 
L 71.531391 -55.654923 
L 71.191955 -57.366977 
L 70.899891 -59.079031 
L 70.64552 -60.791085 
L 70.415123 -62.503139 
L 70.193072 -64.215193 
L 69.968122 -65.927247 
L 69.739827 -67.639301 
L 69.521792 -69.351355 
L 69.340965 -71.063409 
L 69.232962 -72.775463 
L 69.232742 -74.487517 
L 69.361438 -76.199571 
L 69.614721 -77.911624 
L 69.960752 -79.623678 
L 70.351235 -81.335732 
L 70.739753 -83.047786 
L 71.096197 -84.75984 
L 71.40992 -86.471894 
L 71.68333 -88.183948 
L 71.923458 -89.896002 
L 72.137231 -91.608056 
L 72.330324 -93.32011 
L 72.506203 -95.032164 
L 72.664182 -96.744218 
L 72.799048 -98.456272 
L 72.904762 -100.168326 
L 72.980482 -101.88038 
L 73.034091 -103.592434 
L 73.080264 -105.304488 
L 73.134993 -107.016542 
L 73.21085 -108.728596 
L 73.315273 -110.44065 
L 73.450902 -112.152703 
L 73.616132 -113.864757 
L 73.805391 -115.576811 
L 74.009687 -117.288865 
L 74.217715 -119.000919 
L 74.417603 -120.712973 
L 74.599317 -122.425027 
L 74.757357 -124.137081 
L 74.892482 -125.849135 
L 75.011191 -127.561189 
L 75.122906 -129.273243 
L 75.236241 -130.985297 
L 75.356351 -132.697351 
L 75.484638 -134.409405 
L 75.620474 -136.121459 
L 75.763498 -137.833513 
L 75.915355 -139.545567 
L 76.080877 -141.257621 
L 76.268628 -142.969675 
L 76.489542 -144.681729 
L 76.752265 -146.393783 
L 77.056635 -148.105836 
L 77.389819 -149.81789 
L 77.729341 -151.529944 
L 78.052521 -153.241998 
L 78.346823 -154.954052 
L 78.614694 -156.666106 
L 78.870358 -158.37816 
L 79.131267 -160.090214 
L 79.409348 -161.802268 
L 79.706035 -163.514322 
L 80.012308 -165.226376 
L 80.312622 -166.93843 
L 80.59045 -168.650484 
L 80.832976 -170.362538 
L 81.033332 -172.074592 
L 81.190336 -173.786646 
L 81.306949 -175.4987 
L 81.388675 -177.210754 
L 81.442347 -178.922808 
L 81.475127 -180.634862 
L 81.493615 -182.346916 
L 81.503184 -184.058969 
L 81.507703 -185.771023 
L 81.513809 -185.771023 
L 81.513809 -185.771023 
L 81.518328 -184.058969 
L 81.527897 -182.346916 
L 81.546384 -180.634862 
L 81.579164 -178.922808 
L 81.632836 -177.210754 
L 81.714563 -175.4987 
L 81.831175 -173.786646 
L 81.98818 -172.074592 
L 82.188536 -170.362538 
L 82.431062 -168.650484 
L 82.708889 -166.93843 
L 83.009204 -165.226376 
L 83.315477 -163.514322 
L 83.612163 -161.802268 
L 83.890244 -160.090214 
L 84.151154 -158.37816 
L 84.406817 -156.666106 
L 84.674688 -154.954052 
L 84.968991 -153.241998 
L 85.29217 -151.529944 
L 85.631692 -149.81789 
L 85.964876 -148.105836 
L 86.269246 -146.393783 
L 86.53197 -144.681729 
L 86.752883 -142.969675 
L 86.940635 -141.257621 
L 87.106156 -139.545567 
L 87.258014 -137.833513 
L 87.401037 -136.121459 
L 87.536874 -134.409405 
L 87.66516 -132.697351 
L 87.78527 -130.985297 
L 87.898605 -129.273243 
L 88.010321 -127.561189 
L 88.12903 -125.849135 
L 88.264154 -124.137081 
L 88.422194 -122.425027 
L 88.603909 -120.712973 
L 88.803796 -119.000919 
L 89.011825 -117.288865 
L 89.21612 -115.576811 
L 89.40538 -113.864757 
L 89.570609 -112.152703 
L 89.706238 -110.44065 
L 89.810661 -108.728596 
L 89.886518 -107.016542 
L 89.941247 -105.304488 
L 89.98742 -103.592434 
L 90.041029 -101.88038 
L 90.11675 -100.168326 
L 90.222463 -98.456272 
L 90.35733 -96.744218 
L 90.515308 -95.032164 
L 90.691188 -93.32011 
L 90.88428 -91.608056 
L 91.098054 -89.896002 
L 91.338182 -88.183948 
L 91.611592 -86.471894 
L 91.925314 -84.75984 
L 92.281759 -83.047786 
L 92.670277 -81.335732 
L 93.060759 -79.623678 
L 93.40679 -77.911624 
L 93.660073 -76.199571 
L 93.78877 -74.487517 
L 93.788549 -72.775463 
L 93.680546 -71.063409 
L 93.49972 -69.351355 
L 93.281685 -67.639301 
L 93.053389 -65.927247 
L 92.828439 -64.215193 
L 92.606388 -62.503139 
L 92.375991 -60.791085 
L 92.121621 -59.079031 
L 91.829557 -57.366977 
L 91.49012 -55.654923 
L 91.094661 -53.942869 
L 90.63102 -52.230815 
L 90.082839 -50.518761 
L 89.435092 -48.806707 
L 88.683099 -47.094653 
L 87.839515 -45.382599 
L 86.935337 -43.670545 
L 86.014722 -41.958491 
L 85.12606 -40.246438 
L 84.312364 -38.534384 
L 83.603918 -36.82233 
L 83.015426 -35.110276 
L 82.547881 -33.398222 
L 82.192893 -31.686168 
L 81.936584 -29.974114 
L 81.761942 -28.26206 
L 81.65047 -26.550006 
L 81.5841 -24.837952 
L 81.547222 -23.125898 
L 81.528 -21.413844 
L 81.518525 -19.70179 
L 81.51408 -17.989736 
L 81.512095 -16.277682 
z
" style="stroke: #353535; stroke-width: 1.25"/>
    </defs>
    <g clip-path="url(#pfd6b3d33b0)">
     <use xlink:href="#mc3fbc6a893" x="0" y="192.243533" style="fill: #1f5c92; stroke: #353535; stroke-width: 1.25"/>
    </g>
   </g>
   <g id="PolyCollection_2">
    <defs>
     <path id="m171d81e6b1" d="M 179.161494 -37.755682 
L 179.160017 -37.755682 
L 179.158153 -39.274406 
L 179.154381 -40.793131 
L 179.149586 -42.311855 
L 179.146108 -43.83058 
L 179.144844 -45.349304 
L 179.143379 -46.868029 
L 179.139171 -48.386753 
L 179.132722 -49.905478 
L 179.125404 -51.424203 
L 179.11724 -52.942927 
L 179.107323 -54.461652 
L 179.094369 -55.980376 
L 179.077175 -57.499101 
L 179.054845 -59.017825 
L 179.02685 -60.53655 
L 178.993682 -62.055274 
L 178.959997 -63.573999 
L 178.933476 -65.092723 
L 178.912384 -66.611448 
L 178.883235 -68.130172 
L 178.842264 -69.648897 
L 178.802632 -71.167622 
L 178.768609 -72.686346 
L 178.724456 -74.205071 
L 178.660247 -75.723795 
L 178.587804 -77.24252 
L 178.522628 -78.761244 
L 178.463094 -80.279969 
L 178.39361 -81.798693 
L 178.305833 -83.317418 
L 178.211881 -84.836142 
L 178.131669 -86.354867 
L 178.063892 -87.873591 
L 177.988474 -89.392316 
L 177.903006 -90.911041 
L 177.822178 -92.429765 
L 177.741762 -93.94849 
L 177.6419 -95.467214 
L 177.521932 -96.985939 
L 177.396081 -98.504663 
L 177.272717 -100.023388 
L 177.163339 -101.542112 
L 177.08737 -103.060837 
L 177.051475 -104.579561 
L 177.02613 -106.098286 
L 176.958651 -107.61701 
L 176.817601 -109.135735 
L 176.617082 -110.65446 
L 176.394107 -112.173184 
L 176.162688 -113.691909 
L 175.90868 -115.210633 
L 175.632863 -116.729358 
L 175.351414 -118.248082 
L 175.052859 -119.766807 
L 174.695961 -121.285531 
L 174.249988 -122.804256 
L 173.74468 -124.32298 
L 173.268298 -125.841705 
L 172.881479 -127.360429 
L 172.557274 -128.879154 
L 172.234308 -130.397879 
L 171.885037 -131.916603 
L 171.502713 -133.435328 
L 171.069449 -134.954052 
L 170.561786 -136.472777 
L 169.965773 -137.991501 
L 169.277919 -139.510226 
L 168.486507 -141.02895 
L 167.581374 -142.547675 
L 166.597778 -144.066399 
L 165.572716 -145.585124 
L 164.482433 -147.103848 
L 163.321953 -148.622573 
L 162.135284 -150.141298 
L 160.849123 -151.660022 
L 159.180454 -153.178747 
L 156.799407 -154.697471 
L 153.572825 -156.216196 
L 149.684192 -157.73492 
L 145.625547 -159.253645 
L 142.146433 -160.772369 
L 140.100756 -162.291094 
L 140.159153 -163.809818 
L 142.61051 -165.328543 
L 147.250014 -166.847267 
L 153.321157 -168.365992 
L 159.803067 -169.884717 
L 165.840253 -171.403441 
L 170.8458 -172.922166 
L 174.483176 -174.44089 
L 176.765519 -175.959615 
L 178.018271 -177.478339 
L 178.643249 -178.997064 
L 178.937777 -180.515788 
L 179.070684 -182.034513 
L 179.127283 -183.553237 
L 179.149507 -185.071962 
L 179.157455 -186.590686 
L 179.159968 -188.109411 
L 179.161543 -188.109411 
L 179.161543 -188.109411 
L 179.164057 -186.590686 
L 179.172005 -185.071962 
L 179.194229 -183.553237 
L 179.250828 -182.034513 
L 179.383735 -180.515788 
L 179.678263 -178.997064 
L 180.30324 -177.478339 
L 181.555993 -175.959615 
L 183.838335 -174.44089 
L 187.475711 -172.922166 
L 192.481258 -171.403441 
L 198.518444 -169.884717 
L 205.000355 -168.365992 
L 211.071498 -166.847267 
L 215.711002 -165.328543 
L 218.162358 -163.809818 
L 218.220756 -162.291094 
L 216.175078 -160.772369 
L 212.695965 -159.253645 
L 208.637319 -157.73492 
L 204.748687 -156.216196 
L 201.522104 -154.697471 
L 199.141058 -153.178747 
L 197.472388 -151.660022 
L 196.186227 -150.141298 
L 194.999558 -148.622573 
L 193.839079 -147.103848 
L 192.748796 -145.585124 
L 191.723734 -144.066399 
L 190.740138 -142.547675 
L 189.835005 -141.02895 
L 189.043592 -139.510226 
L 188.355738 -137.991501 
L 187.759725 -136.472777 
L 187.252062 -134.954052 
L 186.818798 -133.435328 
L 186.436474 -131.916603 
L 186.087204 -130.397879 
L 185.764237 -128.879154 
L 185.440033 -127.360429 
L 185.053214 -125.841705 
L 184.576832 -124.32298 
L 184.071524 -122.804256 
L 183.62555 -121.285531 
L 183.268652 -119.766807 
L 182.970098 -118.248082 
L 182.688649 -116.729358 
L 182.412831 -115.210633 
L 182.158823 -113.691909 
L 181.927405 -112.173184 
L 181.704429 -110.65446 
L 181.50391 -109.135735 
L 181.362861 -107.61701 
L 181.295382 -106.098286 
L 181.270036 -104.579561 
L 181.234141 -103.060837 
L 181.158172 -101.542112 
L 181.048794 -100.023388 
L 180.925431 -98.504663 
L 180.799579 -96.985939 
L 180.679612 -95.467214 
L 180.579749 -93.94849 
L 180.499334 -92.429765 
L 180.418505 -90.911041 
L 180.333038 -89.392316 
L 180.25762 -87.873591 
L 180.189842 -86.354867 
L 180.10963 -84.836142 
L 180.015679 -83.317418 
L 179.927901 -81.798693 
L 179.858417 -80.279969 
L 179.798883 -78.761244 
L 179.733708 -77.24252 
L 179.661264 -75.723795 
L 179.597055 -74.205071 
L 179.552902 -72.686346 
L 179.518879 -71.167622 
L 179.479248 -69.648897 
L 179.438276 -68.130172 
L 179.409127 -66.611448 
L 179.388035 -65.092723 
L 179.361514 -63.573999 
L 179.32783 -62.055274 
L 179.294661 -60.53655 
L 179.266666 -59.017825 
L 179.244336 -57.499101 
L 179.227142 -55.980376 
L 179.214188 -54.461652 
L 179.204271 -52.942927 
L 179.196108 -51.424203 
L 179.18879 -49.905478 
L 179.18234 -48.386753 
L 179.178133 -46.868029 
L 179.176668 -45.349304 
L 179.175403 -43.83058 
L 179.171925 -42.311855 
L 179.167131 -40.793131 
L 179.163358 -39.274406 
L 179.161494 -37.755682 
z
" style="stroke: #353535; stroke-width: 1.25"/>
    </defs>
    <g clip-path="url(#pfd6b3d33b0)">
     <use xlink:href="#m171d81e6b1" x="0" y="192.243533" style="fill: #1f5c92; stroke: #353535; stroke-width: 1.25"/>
    </g>
   </g>
   <g id="matplotlib.axis_1">
    <g id="xtick_1">
     <g id="line2d_1">
      <defs>
       <path id="m656b308191" d="M 0 0 
L 0 -3 
" style="stroke: #000000; stroke-width: 0.5"/>
      </defs>
      <g>
       <use xlink:href="#m656b308191" x="81.510756" y="163.43218" style="stroke: #000000; stroke-width: 0.5"/>
      </g>
     </g>
     <g id="line2d_2">
      <defs>
       <path id="mba8ab4057c" d="M 0 0 
L 0 3 
" style="stroke: #000000; stroke-width: 0.5"/>
      </defs>
      <g>
       <use xlink:href="#mba8ab4057c" x="81.510756" y="17.90218" style="stroke: #000000; stroke-width: 0.5"/>
      </g>
     </g>
     <g id="text_1">
      <!-- Broadleaf -->
      <g transform="translate(60.672175 173.850678) scale(0.1 -0.1)">
       <defs>
        <path id="CMR17-42" d="M 333 4352 
L 333 4185 
C 774 4185 845 4185 845 3897 
L 845 451 
C 845 166 774 166 333 166 
L 333 0 
L 2534 0 
C 3354 0 3885 578 3885 1155 
C 3885 1726 3360 2214 2675 2259 
C 3290 2380 3718 2790 3718 3276 
C 3718 3808 3194 4352 2368 4352 
L 333 4352 
z
M 1248 2304 
L 1248 3936 
C 1248 4153 1261 4185 1517 4185 
L 2336 4185 
C 2970 4185 3251 3673 3251 3276 
C 3251 2790 2861 2304 2170 2304 
L 1248 2304 
z
M 1517 166 
C 1261 166 1248 198 1248 413 
L 1248 2201 
L 2432 2201 
C 3091 2201 3411 1624 3411 1161 
C 3411 698 3046 166 2349 166 
L 1517 166 
z
" transform="scale(0.015625)"/>
        <path id="CMR17-72" d="M 960 1517 
C 960 2134 1222 2713 1702 2713 
C 1747 2713 1792 2707 1837 2687 
C 1837 2687 1696 2642 1696 2475 
C 1696 2321 1818 2257 1914 2257 
C 1990 2257 2131 2302 2131 2482 
C 2131 2687 1926 2816 1709 2816 
C 1222 2816 1011 2340 947 2115 
L 941 2115 
L 941 2816 
L 198 2745 
L 198 2578 
C 576 2578 634 2540 634 2231 
L 634 443 
C 634 198 608 166 198 166 
L 198 0 
C 352 12 646 12 813 12 
C 998 12 1325 12 1498 0 
L 1498 166 
C 1037 166 960 166 960 455 
L 960 1517 
z
" transform="scale(0.015625)"/>
        <path id="CMR17-6f" d="M 2758 1356 
C 2758 2176 2163 2816 1466 2816 
C 768 2816 173 2176 173 1356 
C 173 550 768 -64 1466 -64 
C 2163 -64 2758 550 2758 1356 
z
M 1466 51 
C 1165 51 909 230 762 480 
C 602 768 582 1126 582 1408 
C 582 1676 595 2009 762 2297 
C 890 2508 1139 2713 1466 2713 
C 1754 2713 1997 2553 2150 2329 
C 2349 2028 2349 1606 2349 1408 
C 2349 1158 2336 774 2163 467 
C 1984 172 1709 51 1466 51 
z
" transform="scale(0.015625)"/>
        <path id="CMR17-61" d="M 2304 1656 
C 2304 2048 2304 2275 2035 2534 
C 1798 2751 1523 2816 1306 2816 
C 800 2816 435 2408 435 1977 
C 435 1740 627 1728 666 1728 
C 749 1728 896 1779 896 1958 
C 896 2118 774 2188 666 2188 
C 640 2188 608 2182 589 2176 
C 723 2594 1069 2713 1293 2713 
C 1613 2713 1965 2421 1965 1875 
L 1965 1632 
C 1587 1619 1133 1568 774 1373 
C 371 1147 256 822 256 576 
C 256 77 832 -64 1171 -64 
C 1523 -64 1850 135 1990 505 
C 2003 219 2182 -39 2464 -39 
C 2598 -39 2938 51 2938 563 
L 2938 926 
L 2822 926 
L 2822 557 
C 2822 161 2650 109 2566 109 
C 2304 109 2304 446 2304 732 
L 2304 1656 
z
M 1965 887 
C 1965 323 1568 38 1216 38 
C 896 38 646 278 646 576 
C 646 771 730 1114 1101 1322 
C 1408 1497 1760 1523 1965 1536 
L 1965 887 
z
" transform="scale(0.015625)"/>
        <path id="CMR17-64" d="M 1869 4345 
L 1869 4179 
C 2246 4179 2304 4141 2304 3843 
L 2304 2371 
C 2278 2403 2016 2816 1498 2816 
C 845 2816 211 2228 211 1376 
C 211 529 806 -64 1434 -64 
C 1978 -64 2259 361 2291 406 
L 2291 -64 
L 3066 -13 
L 3066 154 
C 2688 154 2630 193 2630 503 
L 2630 4416 
L 1869 4345 
z
M 2291 762 
C 2291 568 2176 393 2029 264 
C 1811 70 1594 38 1472 38 
C 1286 38 621 135 621 1369 
C 621 2636 1363 2713 1530 2713 
C 1824 2713 2061 2545 2208 2313 
C 2291 2177 2291 2157 2291 2041 
L 2291 762 
z
" transform="scale(0.015625)"/>
        <path id="CMR17-6c" d="M 979 4416 
L 218 4345 
L 218 4179 
C 595 4179 653 4141 653 3835 
L 653 439 
C 653 198 627 166 218 166 
L 218 0 
C 371 12 653 12 813 12 
C 979 12 1261 12 1414 0 
L 1414 166 
C 1005 166 979 191 979 439 
L 979 4416 
z
" transform="scale(0.015625)"/>
        <path id="CMR17-65" d="M 2438 1503 
C 2464 1529 2464 1542 2464 1606 
C 2464 2251 2118 2816 1389 2816 
C 710 2816 173 2175 173 1394 
C 173 554 781 -64 1459 -64 
C 2176 -64 2458 619 2458 755 
C 2458 800 2419 800 2406 800 
C 2362 800 2355 787 2330 709 
C 2189 270 1837 51 1504 51 
C 1229 51 954 206 781 490 
C 582 819 582 1200 582 1503 
L 2438 1503 
z
M 589 1600 
C 634 2511 1126 2713 1382 2713 
C 1818 2713 2112 2308 2118 1600 
L 589 1600 
z
" transform="scale(0.015625)"/>
        <path id="CMR17-66" d="M 979 2585 
L 1709 2585 
L 1709 2752 
L 966 2752 
L 966 3539 
C 966 4076 1235 4377 1510 4377 
C 1594 4377 1690 4363 1754 4339 
C 1702 4326 1568 4281 1568 4121 
C 1568 3955 1696 3904 1786 3904 
C 1875 3904 2003 3955 2003 4121 
C 2003 4353 1773 4480 1517 4480 
C 1152 4480 653 4211 653 3526 
L 653 2752 
L 141 2752 
L 141 2585 
L 653 2585 
L 653 441 
C 653 198 627 166 218 166 
L 218 0 
C 371 12 666 12 832 12 
C 1018 12 1344 12 1517 0 
L 1517 166 
C 1056 166 979 166 979 454 
L 979 2585 
z
" transform="scale(0.015625)"/>
       </defs>
       <use xlink:href="#CMR17-42" transform="scale(0.996264)"/>
       <use xlink:href="#CMR17-72" transform="translate(65.188754 0) scale(0.996264)"/>
       <use xlink:href="#CMR17-6f" transform="translate(100.469522 0) scale(0.996264)"/>
       <use xlink:href="#CMR17-61" transform="translate(146.159999 0) scale(0.996264)"/>
       <use xlink:href="#CMR17-64" transform="translate(191.850476 0) scale(0.996264)"/>
       <use xlink:href="#CMR17-6c" transform="translate(242.745846 0) scale(0.996264)"/>
       <use xlink:href="#CMR17-65" transform="translate(267.616905 0) scale(0.996264)"/>
       <use xlink:href="#CMR17-61" transform="translate(308.102565 0) scale(0.996264)"/>
       <use xlink:href="#CMR17-66" transform="translate(353.793042 0) scale(0.996264)"/>
      </g>
     </g>
    </g>
    <g id="xtick_2">
     <g id="line2d_3">
      <g>
       <use xlink:href="#m656b308191" x="179.160756" y="163.43218" style="stroke: #000000; stroke-width: 0.5"/>
      </g>
     </g>
     <g id="line2d_4">
      <g>
       <use xlink:href="#mba8ab4057c" x="179.160756" y="17.90218" style="stroke: #000000; stroke-width: 0.5"/>
      </g>
     </g>
     <g id="text_2">
      <!-- Conifer -->
      <g transform="translate(163.234335 173.850678) scale(0.1 -0.1)">
       <defs>
        <path id="CMR17-43" d="M 3974 4351 
C 3974 4467 3968 4473 3930 4473 
C 3904 4473 3898 4467 3853 4390 
L 3571 3849 
C 3258 4249 2874 4480 2381 4480 
C 1286 4480 294 3507 294 2179 
C 294 837 1286 -128 2387 -128 
C 3366 -128 3974 741 3974 1482 
C 3974 1547 3974 1573 3917 1573 
C 3866 1573 3866 1553 3859 1495 
C 3808 592 3168 38 2477 38 
C 1824 38 781 502 781 2179 
C 781 3862 1843 4313 2464 4313 
C 3187 4313 3712 3681 3834 2785 
C 3846 2707 3846 2695 3904 2695 
C 3974 2695 3974 2707 3974 2824 
L 3974 4351 
z
" transform="scale(0.015625)"/>
        <path id="CMR17-6e" d="M 2656 1954 
C 2656 2282 2592 2816 1837 2816 
C 1331 2816 1069 2424 973 2166 
L 966 2166 
L 966 2816 
L 211 2745 
L 211 2578 
C 589 2578 646 2540 646 2231 
L 646 443 
C 646 198 621 166 211 166 
L 211 0 
C 365 12 646 12 813 12 
C 979 12 1267 12 1421 0 
L 1421 166 
C 1011 166 986 192 986 443 
L 986 1678 
C 986 2269 1344 2713 1792 2713 
C 2266 2713 2317 2289 2317 1980 
L 2317 443 
C 2317 198 2291 166 1882 166 
L 1882 0 
C 2035 12 2317 12 2483 12 
C 2650 12 2938 12 3091 0 
L 3091 166 
C 2682 166 2656 192 2656 443 
L 2656 1954 
z
" transform="scale(0.015625)"/>
        <path id="CMR17-69" d="M 992 3961 
C 992 4102 877 4224 730 4224 
C 589 4224 467 4108 467 3961 
C 467 3820 582 3699 730 3699 
C 870 3699 992 3814 992 3961 
z
M 243 2745 
L 243 2579 
C 602 2579 653 2540 653 2231 
L 653 443 
C 653 198 627 166 218 166 
L 218 0 
C 371 12 646 12 806 12 
C 960 12 1222 12 1370 0 
L 1370 166 
C 992 166 979 205 979 436 
L 979 2816 
L 243 2745 
z
" transform="scale(0.015625)"/>
       </defs>
       <use xlink:href="#CMR17-43" transform="scale(0.996264)"/>
       <use xlink:href="#CMR17-6f" transform="translate(66.509881 0) scale(0.996264)"/>
       <use xlink:href="#CMR17-6e" transform="translate(112.200358 0) scale(0.996264)"/>
       <use xlink:href="#CMR17-69" transform="translate(163.095727 0) scale(0.996264)"/>
       <use xlink:href="#CMR17-66" transform="translate(187.966786 0) scale(0.996264)"/>
       <use xlink:href="#CMR17-65" transform="translate(215.440298 0) scale(0.996264)"/>
       <use xlink:href="#CMR17-72" transform="translate(255.925959 0) scale(0.996264)"/>
      </g>
     </g>
    </g>
    <g id="xtick_3">
     <g id="line2d_5">
      <defs>
       <path id="m6d7164a15a" d="M 0 0 
L 0 -1.5 
" style="stroke: #000000; stroke-width: 0.5"/>
      </defs>
      <g>
       <use xlink:href="#m6d7164a15a" x="42.450756" y="163.43218" style="stroke: #000000; stroke-width: 0.5"/>
      </g>
     </g>
     <g id="line2d_6">
      <defs>
       <path id="maa3d2bc8dc" d="M 0 0 
L 0 1.5 
" style="stroke: #000000; stroke-width: 0.5"/>
      </defs>
      <g>
       <use xlink:href="#maa3d2bc8dc" x="42.450756" y="17.90218" style="stroke: #000000; stroke-width: 0.5"/>
      </g>
     </g>
    </g>
    <g id="xtick_4">
     <g id="line2d_7">
      <g>
       <use xlink:href="#m6d7164a15a" x="61.980756" y="163.43218" style="stroke: #000000; stroke-width: 0.5"/>
      </g>
     </g>
     <g id="line2d_8">
      <g>
       <use xlink:href="#maa3d2bc8dc" x="61.980756" y="17.90218" style="stroke: #000000; stroke-width: 0.5"/>
      </g>
     </g>
    </g>
    <g id="xtick_5">
     <g id="line2d_9">
      <g>
       <use xlink:href="#m6d7164a15a" x="101.040756" y="163.43218" style="stroke: #000000; stroke-width: 0.5"/>
      </g>
     </g>
     <g id="line2d_10">
      <g>
       <use xlink:href="#maa3d2bc8dc" x="101.040756" y="17.90218" style="stroke: #000000; stroke-width: 0.5"/>
      </g>
     </g>
    </g>
    <g id="xtick_6">
     <g id="line2d_11">
      <g>
       <use xlink:href="#m6d7164a15a" x="120.570756" y="163.43218" style="stroke: #000000; stroke-width: 0.5"/>
      </g>
     </g>
     <g id="line2d_12">
      <g>
       <use xlink:href="#maa3d2bc8dc" x="120.570756" y="17.90218" style="stroke: #000000; stroke-width: 0.5"/>
      </g>
     </g>
    </g>
    <g id="xtick_7">
     <g id="line2d_13">
      <g>
       <use xlink:href="#m6d7164a15a" x="140.100756" y="163.43218" style="stroke: #000000; stroke-width: 0.5"/>
      </g>
     </g>
     <g id="line2d_14">
      <g>
       <use xlink:href="#maa3d2bc8dc" x="140.100756" y="17.90218" style="stroke: #000000; stroke-width: 0.5"/>
      </g>
     </g>
    </g>
    <g id="xtick_8">
     <g id="line2d_15">
      <g>
       <use xlink:href="#m6d7164a15a" x="159.630756" y="163.43218" style="stroke: #000000; stroke-width: 0.5"/>
      </g>
     </g>
     <g id="line2d_16">
      <g>
       <use xlink:href="#maa3d2bc8dc" x="159.630756" y="17.90218" style="stroke: #000000; stroke-width: 0.5"/>
      </g>
     </g>
    </g>
    <g id="xtick_9">
     <g id="line2d_17">
      <g>
       <use xlink:href="#m6d7164a15a" x="198.690756" y="163.43218" style="stroke: #000000; stroke-width: 0.5"/>
      </g>
     </g>
     <g id="line2d_18">
      <g>
       <use xlink:href="#maa3d2bc8dc" x="198.690756" y="17.90218" style="stroke: #000000; stroke-width: 0.5"/>
      </g>
     </g>
    </g>
    <g id="xtick_10">
     <g id="line2d_19">
      <g>
       <use xlink:href="#m6d7164a15a" x="218.220756" y="163.43218" style="stroke: #000000; stroke-width: 0.5"/>
      </g>
     </g>
     <g id="line2d_20">
      <g>
       <use xlink:href="#maa3d2bc8dc" x="218.220756" y="17.90218" style="stroke: #000000; stroke-width: 0.5"/>
      </g>
     </g>
    </g>
    <g id="text_3">
     <!-- Dominant Leaf Type -->
     <g transform="translate(84.811928 186.706355) scale(0.1 -0.1)">
      <defs>
       <path id="CMR17-44" d="M 333 4352 
L 333 4185 
C 774 4185 845 4185 845 3898 
L 845 453 
C 845 166 774 166 333 166 
L 333 0 
L 2368 0 
C 3398 0 4224 943 4224 2140 
C 4224 3344 3411 4352 2368 4352 
L 333 4352 
z
M 1523 166 
C 1267 166 1254 198 1254 414 
L 1254 3936 
C 1254 4153 1267 4185 1523 4185 
L 2240 4185 
C 2771 4185 3750 3873 3750 2140 
C 3750 1242 3488 879 3366 707 
C 3213 510 2848 166 2240 166 
L 1523 166 
z
" transform="scale(0.015625)"/>
       <path id="CMR17-6d" d="M 4326 1954 
C 4326 2276 4269 2816 3507 2816 
C 3072 2816 2771 2520 2656 2173 
L 2650 2173 
C 2573 2700 2195 2816 1837 2816 
C 1331 2816 1069 2424 973 2166 
L 966 2166 
L 966 2816 
L 211 2745 
L 211 2578 
C 589 2578 646 2540 646 2231 
L 646 443 
C 646 198 621 166 211 166 
L 211 0 
C 365 12 646 12 813 12 
C 979 12 1267 12 1421 0 
L 1421 166 
C 1011 166 986 192 986 443 
L 986 1678 
C 986 2269 1344 2713 1792 2713 
C 2266 2713 2317 2289 2317 1980 
L 2317 443 
C 2317 198 2291 166 1882 166 
L 1882 0 
C 2035 12 2317 12 2483 12 
C 2650 12 2938 12 3091 0 
L 3091 166 
C 2682 166 2656 192 2656 443 
L 2656 1678 
C 2656 2269 3014 2713 3462 2713 
C 3936 2713 3987 2289 3987 1980 
L 3987 443 
C 3987 198 3962 166 3552 166 
L 3552 0 
C 3706 12 3987 12 4154 12 
C 4320 12 4608 12 4762 0 
L 4762 166 
C 4352 166 4326 192 4326 443 
L 4326 1954 
z
" transform="scale(0.015625)"/>
       <path id="CMR17-74" d="M 966 2585 
L 1862 2585 
L 1862 2752 
L 966 2752 
L 966 3968 
L 851 3968 
C 838 3292 614 2700 70 2687 
L 70 2585 
L 627 2585 
L 627 778 
C 627 655 627 -64 1370 -64 
C 1747 -64 1965 308 1965 784 
L 1965 1151 
L 1850 1151 
L 1850 790 
C 1850 347 1677 51 1408 51 
C 1222 51 966 179 966 765 
L 966 2585 
z
" transform="scale(0.015625)"/>
       <path id="CMR17-4c" d="M 3469 1612 
L 3354 1612 
C 3302 981 3219 166 2125 166 
L 1530 166 
C 1274 166 1261 198 1261 414 
L 1261 3892 
C 1261 4121 1274 4185 1760 4185 
L 1901 4185 
L 1901 4352 
C 1638 4339 1331 4339 1069 4339 
C 870 4339 512 4339 326 4352 
L 326 4185 
C 768 4185 838 4185 838 3898 
L 838 453 
C 838 166 768 166 326 166 
L 326 0 
L 3315 0 
L 3469 1612 
z
" transform="scale(0.015625)"/>
       <path id="CMR17-54" d="M 3981 4332 
L 288 4332 
L 179 2924 
L 294 2924 
C 378 3981 467 4166 1453 4166 
C 1568 4166 1754 4166 1805 4159 
C 1926 4140 1926 4064 1926 3917 
L 1926 465 
C 1926 236 1907 166 1376 166 
L 1197 166 
L 1197 0 
C 1504 6 1824 12 2138 12 
C 2451 12 2771 6 3078 0 
L 3078 166 
L 2899 166 
C 2368 166 2349 236 2349 465 
L 2349 3917 
C 2349 4057 2349 4134 2464 4159 
C 2515 4166 2701 4166 2816 4166 
C 3795 4166 3891 3981 3974 2924 
L 4090 2924 
L 3981 4332 
z
" transform="scale(0.015625)"/>
       <path id="CMR17-79" d="M 2496 2183 
C 2656 2579 2944 2585 3034 2585 
L 3034 2752 
C 2912 2745 2752 2739 2630 2739 
C 2496 2739 2285 2739 2157 2752 
L 2157 2585 
C 2400 2566 2406 2384 2406 2332 
C 2406 2268 2394 2235 2362 2158 
L 1664 409 
L 902 2300 
C 870 2378 870 2423 870 2430 
C 870 2572 1018 2585 1171 2585 
L 1171 2752 
C 1018 2739 742 2739 582 2739 
C 410 2739 205 2739 64 2752 
L 64 2585 
C 410 2585 448 2553 531 2345 
L 1485 -31 
C 1197 -795 1030 -1242 627 -1242 
C 557 -1242 397 -1223 282 -1106 
C 429 -1093 493 -1002 493 -892 
C 493 -782 416 -685 288 -685 
C 147 -685 77 -782 77 -899 
C 77 -1158 339 -1344 627 -1344 
C 998 -1344 1229 -983 1357 -659 
L 2496 2183 
z
" transform="scale(0.015625)"/>
       <path id="CMR17-70" d="M 1408 -1114 
C 998 -1114 973 -1088 973 -834 
L 973 380 
C 1158 109 1427 -64 1766 -64 
C 2406 -64 3053 503 3053 1382 
C 3053 2196 2496 2816 1837 2816 
C 1453 2816 1139 2603 960 2345 
L 960 2816 
L 198 2745 
L 198 2577 
C 576 2577 634 2539 634 2228 
L 634 -834 
C 634 -1081 608 -1114 198 -1114 
L 198 -1280 
C 352 -1268 634 -1268 800 -1268 
C 966 -1268 1254 -1268 1408 -1280 
L 1408 -1114 
z
M 973 2015 
C 973 2106 973 2241 1222 2481 
C 1254 2506 1472 2700 1792 2700 
C 2259 2700 2643 2112 2643 1376 
C 2643 639 2234 38 1728 38 
C 1498 38 1248 148 1056 451 
C 973 594 973 632 973 736 
L 973 2015 
z
" transform="scale(0.015625)"/>
      </defs>
      <use xlink:href="#CMR17-44" transform="scale(0.996264)"/>
      <use xlink:href="#CMR17-6f" transform="translate(70.393556 0) scale(0.996264)"/>
      <use xlink:href="#CMR17-6d" transform="translate(116.084033 0) scale(0.996264)"/>
      <use xlink:href="#CMR17-69" transform="translate(193.003623 0) scale(0.996264)"/>
      <use xlink:href="#CMR17-6e" transform="translate(217.874681 0) scale(0.996264)"/>
      <use xlink:href="#CMR17-61" transform="translate(268.770051 0) scale(0.996264)"/>
      <use xlink:href="#CMR17-6e" transform="translate(314.460528 0) scale(0.996264)"/>
      <use xlink:href="#CMR17-74" transform="translate(362.753444 0) scale(0.996264)"/>
      <use xlink:href="#CMR17-4c" transform="translate(428.110178 0) scale(0.996264)"/>
      <use xlink:href="#CMR17-65" transform="translate(485.491586 0) scale(0.996264)"/>
      <use xlink:href="#CMR17-61" transform="translate(525.977247 0) scale(0.996264)"/>
      <use xlink:href="#CMR17-66" transform="translate(571.667724 0) scale(0.996264)"/>
      <use xlink:href="#CMR17-54" transform="translate(629.217202 0) scale(0.996264)"/>
      <use xlink:href="#CMR17-79" transform="translate(693.124629 0) scale(0.996264)"/>
      <use xlink:href="#CMR17-70" transform="translate(741.417545 0) scale(0.996264)"/>
      <use xlink:href="#CMR17-65" transform="translate(794.915353 0) scale(0.996264)"/>
     </g>
    </g>
   </g>
   <g id="matplotlib.axis_2">
    <g id="ytick_1">
     <g id="line2d_21">
      <defs>
       <path id="m15b8e7a130" d="M 0 0 
L 3 0 
" style="stroke: #000000; stroke-width: 0.5"/>
      </defs>
      <g>
       <use xlink:href="#m15b8e7a130" x="32.685756" y="163.43218" style="stroke: #000000; stroke-width: 0.5"/>
      </g>
     </g>
     <g id="line2d_22">
      <defs>
       <path id="m243e30e5ab" d="M 0 0 
L -3 0 
" style="stroke: #000000; stroke-width: 0.5"/>
      </defs>
      <g>
       <use xlink:href="#m243e30e5ab" x="227.985756" y="163.43218" style="stroke: #000000; stroke-width: 0.5"/>
      </g>
     </g>
     <g id="text_4">
      <!-- $\mathdefault{0.0}$ -->
      <g transform="translate(16.455677 166.891429) scale(0.1 -0.1)">
       <defs>
        <path id="CMR17-30" d="M 2688 2038 
C 2688 2430 2682 3099 2413 3613 
C 2176 4063 1798 4224 1466 4224 
C 1158 4224 768 4082 525 3620 
C 269 3137 243 2539 243 2038 
C 243 1671 250 1112 448 623 
C 723 -39 1216 -128 1466 -128 
C 1760 -128 2208 -7 2470 604 
C 2662 1048 2688 1568 2688 2038 
z
M 1466 -26 
C 1056 -26 813 328 723 816 
C 653 1196 653 1749 653 2109 
C 653 2604 653 3015 736 3407 
C 858 3954 1216 4121 1466 4121 
C 1728 4121 2067 3947 2189 3420 
C 2272 3054 2278 2623 2278 2109 
C 2278 1691 2278 1176 2202 797 
C 2067 96 1690 -26 1466 -26 
z
" transform="scale(0.015625)"/>
        <path id="CMMI12-3a" d="M 1178 307 
C 1178 492 1024 620 870 620 
C 685 620 557 467 557 313 
C 557 128 710 0 864 0 
C 1050 0 1178 153 1178 307 
z
" transform="scale(0.015625)"/>
       </defs>
       <use xlink:href="#CMR17-30" transform="scale(0.996264)"/>
       <use xlink:href="#CMMI12-3a" transform="translate(45.690477 0) scale(0.996264)"/>
       <use xlink:href="#CMR17-30" transform="translate(72.787654 0) scale(0.996264)"/>
      </g>
     </g>
    </g>
    <g id="ytick_2">
     <g id="line2d_23">
      <g>
       <use xlink:href="#m15b8e7a130" x="32.685756" y="134.32618" style="stroke: #000000; stroke-width: 0.5"/>
      </g>
     </g>
     <g id="line2d_24">
      <g>
       <use xlink:href="#m243e30e5ab" x="227.985756" y="134.32618" style="stroke: #000000; stroke-width: 0.5"/>
      </g>
     </g>
     <g id="text_5">
      <!-- $\mathdefault{0.2}$ -->
      <g transform="translate(16.455677 137.785429) scale(0.1 -0.1)">
       <defs>
        <path id="CMR17-32" d="M 2669 990 
L 2554 990 
C 2490 537 2438 460 2413 422 
C 2381 371 1920 371 1830 371 
L 602 371 
C 832 620 1280 1073 1824 1596 
C 2214 1966 2669 2400 2669 3033 
C 2669 3788 2067 4224 1395 4224 
C 691 4224 262 3603 262 3027 
C 262 2777 448 2745 525 2745 
C 589 2745 781 2783 781 3007 
C 781 3206 614 3264 525 3264 
C 486 3264 448 3257 422 3244 
C 544 3788 915 4057 1306 4057 
C 1862 4057 2227 3616 2227 3033 
C 2227 2477 1901 1998 1536 1583 
L 262 147 
L 262 0 
L 2515 0 
L 2669 990 
z
" transform="scale(0.015625)"/>
       </defs>
       <use xlink:href="#CMR17-30" transform="scale(0.996264)"/>
       <use xlink:href="#CMMI12-3a" transform="translate(45.690477 0) scale(0.996264)"/>
       <use xlink:href="#CMR17-32" transform="translate(72.787654 0) scale(0.996264)"/>
      </g>
     </g>
    </g>
    <g id="ytick_3">
     <g id="line2d_25">
      <g>
       <use xlink:href="#m15b8e7a130" x="32.685756" y="105.22018" style="stroke: #000000; stroke-width: 0.5"/>
      </g>
     </g>
     <g id="line2d_26">
      <g>
       <use xlink:href="#m243e30e5ab" x="227.985756" y="105.22018" style="stroke: #000000; stroke-width: 0.5"/>
      </g>
     </g>
     <g id="text_6">
      <!-- $\mathdefault{0.4}$ -->
      <g transform="translate(16.455677 108.679429) scale(0.1 -0.1)">
       <defs>
        <path id="CMR17-34" d="M 2150 4147 
C 2150 4281 2144 4288 2029 4288 
L 128 1254 
L 128 1088 
L 1779 1088 
L 1779 460 
C 1779 230 1766 166 1318 166 
L 1197 166 
L 1197 0 
C 1402 12 1747 12 1965 12 
C 2182 12 2528 12 2733 0 
L 2733 166 
L 2611 166 
C 2163 166 2150 230 2150 460 
L 2150 1088 
L 2803 1088 
L 2803 1254 
L 2150 1254 
L 2150 4147 
z
M 1798 3723 
L 1798 1254 
L 256 1254 
L 1798 3723 
z
" transform="scale(0.015625)"/>
       </defs>
       <use xlink:href="#CMR17-30" transform="scale(0.996264)"/>
       <use xlink:href="#CMMI12-3a" transform="translate(45.690477 0) scale(0.996264)"/>
       <use xlink:href="#CMR17-34" transform="translate(72.787654 0) scale(0.996264)"/>
      </g>
     </g>
    </g>
    <g id="ytick_4">
     <g id="line2d_27">
      <g>
       <use xlink:href="#m15b8e7a130" x="32.685756" y="76.11418" style="stroke: #000000; stroke-width: 0.5"/>
      </g>
     </g>
     <g id="line2d_28">
      <g>
       <use xlink:href="#m243e30e5ab" x="227.985756" y="76.11418" style="stroke: #000000; stroke-width: 0.5"/>
      </g>
     </g>
     <g id="text_7">
      <!-- $\mathdefault{0.6}$ -->
      <g transform="translate(16.455677 79.573429) scale(0.1 -0.1)">
       <defs>
        <path id="CMR17-36" d="M 678 2198 
C 678 3712 1395 4076 1811 4076 
C 1946 4076 2272 4049 2400 3782 
C 2298 3782 2106 3782 2106 3558 
C 2106 3385 2246 3328 2336 3328 
C 2394 3328 2566 3353 2566 3571 
C 2566 3987 2246 4224 1805 4224 
C 1043 4224 243 3411 243 2011 
C 243 257 966 -128 1478 -128 
C 2099 -128 2688 431 2688 1295 
C 2688 2101 2170 2688 1517 2688 
C 1126 2688 838 2430 678 1979 
L 678 2198 
z
M 1478 25 
C 691 25 691 1212 691 1450 
C 691 1914 909 2585 1504 2585 
C 1613 2585 1926 2585 2138 2140 
C 2253 1889 2253 1624 2253 1302 
C 2253 954 2253 696 2118 438 
C 1978 173 1773 25 1478 25 
z
" transform="scale(0.015625)"/>
       </defs>
       <use xlink:href="#CMR17-30" transform="scale(0.996264)"/>
       <use xlink:href="#CMMI12-3a" transform="translate(45.690477 0) scale(0.996264)"/>
       <use xlink:href="#CMR17-36" transform="translate(72.787654 0) scale(0.996264)"/>
      </g>
     </g>
    </g>
    <g id="ytick_5">
     <g id="line2d_29">
      <g>
       <use xlink:href="#m15b8e7a130" x="32.685756" y="47.00818" style="stroke: #000000; stroke-width: 0.5"/>
      </g>
     </g>
     <g id="line2d_30">
      <g>
       <use xlink:href="#m243e30e5ab" x="227.985756" y="47.00818" style="stroke: #000000; stroke-width: 0.5"/>
      </g>
     </g>
     <g id="text_8">
      <!-- $\mathdefault{0.8}$ -->
      <g transform="translate(16.455677 50.467429) scale(0.1 -0.1)">
       <defs>
        <path id="CMR17-38" d="M 1741 2289 
C 2144 2494 2554 2803 2554 3298 
C 2554 3884 1990 4224 1472 4224 
C 890 4224 378 3800 378 3215 
C 378 3054 416 2777 666 2533 
C 730 2469 998 2276 1171 2154 
C 883 2006 211 1652 211 945 
C 211 282 838 -128 1459 -128 
C 2144 -128 2720 366 2720 1022 
C 2720 1607 2330 1877 2074 2051 
L 1741 2289 
z
M 902 2855 
C 851 2887 595 3086 595 3388 
C 595 3781 998 4076 1459 4076 
C 1965 4076 2336 3716 2336 3298 
C 2336 2700 1670 2359 1638 2359 
C 1632 2359 1626 2359 1574 2398 
L 902 2855 
z
M 2080 1536 
C 2176 1466 2483 1253 2483 861 
C 2483 385 2010 25 1472 25 
C 890 25 448 443 448 951 
C 448 1459 838 1884 1280 2083 
L 2080 1536 
z
" transform="scale(0.015625)"/>
       </defs>
       <use xlink:href="#CMR17-30" transform="scale(0.996264)"/>
       <use xlink:href="#CMMI12-3a" transform="translate(45.690477 0) scale(0.996264)"/>
       <use xlink:href="#CMR17-38" transform="translate(72.787654 0) scale(0.996264)"/>
      </g>
     </g>
    </g>
    <g id="ytick_6">
     <g id="line2d_31">
      <g>
       <use xlink:href="#m15b8e7a130" x="32.685756" y="17.90218" style="stroke: #000000; stroke-width: 0.5"/>
      </g>
     </g>
     <g id="line2d_32">
      <g>
       <use xlink:href="#m243e30e5ab" x="227.985756" y="17.90218" style="stroke: #000000; stroke-width: 0.5"/>
      </g>
     </g>
     <g id="text_9">
      <!-- $\mathdefault{1.0}$ -->
      <g transform="translate(16.455677 21.361429) scale(0.1 -0.1)">
       <defs>
        <path id="CMR17-31" d="M 1702 4083 
C 1702 4217 1696 4224 1606 4224 
C 1357 3927 979 3833 621 3820 
C 602 3820 570 3820 563 3808 
C 557 3795 557 3782 557 3648 
C 755 3648 1088 3686 1344 3839 
L 1344 467 
C 1344 243 1331 166 781 166 
L 589 166 
L 589 0 
C 896 6 1216 12 1523 12 
C 1830 12 2150 6 2458 0 
L 2458 166 
L 2266 166 
C 1715 166 1702 236 1702 467 
L 1702 4083 
z
" transform="scale(0.015625)"/>
       </defs>
       <use xlink:href="#CMR17-31" transform="scale(0.996264)"/>
       <use xlink:href="#CMMI12-3a" transform="translate(45.690477 0) scale(0.996264)"/>
       <use xlink:href="#CMR17-30" transform="translate(72.787654 0) scale(0.996264)"/>
      </g>
     </g>
    </g>
    <g id="ytick_7">
     <g id="line2d_33">
      <defs>
       <path id="m102f0e73b8" d="M 0 0 
L 1.5 0 
" style="stroke: #000000; stroke-width: 0.5"/>
      </defs>
      <g>
       <use xlink:href="#m102f0e73b8" x="32.685756" y="156.15568" style="stroke: #000000; stroke-width: 0.5"/>
      </g>
     </g>
     <g id="line2d_34">
      <defs>
       <path id="mcd93178e81" d="M 0 0 
L -1.5 0 
" style="stroke: #000000; stroke-width: 0.5"/>
      </defs>
      <g>
       <use xlink:href="#mcd93178e81" x="227.985756" y="156.15568" style="stroke: #000000; stroke-width: 0.5"/>
      </g>
     </g>
    </g>
    <g id="ytick_8">
     <g id="line2d_35">
      <g>
       <use xlink:href="#m102f0e73b8" x="32.685756" y="148.87918" style="stroke: #000000; stroke-width: 0.5"/>
      </g>
     </g>
     <g id="line2d_36">
      <g>
       <use xlink:href="#mcd93178e81" x="227.985756" y="148.87918" style="stroke: #000000; stroke-width: 0.5"/>
      </g>
     </g>
    </g>
    <g id="ytick_9">
     <g id="line2d_37">
      <g>
       <use xlink:href="#m102f0e73b8" x="32.685756" y="141.60268" style="stroke: #000000; stroke-width: 0.5"/>
      </g>
     </g>
     <g id="line2d_38">
      <g>
       <use xlink:href="#mcd93178e81" x="227.985756" y="141.60268" style="stroke: #000000; stroke-width: 0.5"/>
      </g>
     </g>
    </g>
    <g id="ytick_10">
     <g id="line2d_39">
      <g>
       <use xlink:href="#m102f0e73b8" x="32.685756" y="127.04968" style="stroke: #000000; stroke-width: 0.5"/>
      </g>
     </g>
     <g id="line2d_40">
      <g>
       <use xlink:href="#mcd93178e81" x="227.985756" y="127.04968" style="stroke: #000000; stroke-width: 0.5"/>
      </g>
     </g>
    </g>
    <g id="ytick_11">
     <g id="line2d_41">
      <g>
       <use xlink:href="#m102f0e73b8" x="32.685756" y="119.77318" style="stroke: #000000; stroke-width: 0.5"/>
      </g>
     </g>
     <g id="line2d_42">
      <g>
       <use xlink:href="#mcd93178e81" x="227.985756" y="119.77318" style="stroke: #000000; stroke-width: 0.5"/>
      </g>
     </g>
    </g>
    <g id="ytick_12">
     <g id="line2d_43">
      <g>
       <use xlink:href="#m102f0e73b8" x="32.685756" y="112.49668" style="stroke: #000000; stroke-width: 0.5"/>
      </g>
     </g>
     <g id="line2d_44">
      <g>
       <use xlink:href="#mcd93178e81" x="227.985756" y="112.49668" style="stroke: #000000; stroke-width: 0.5"/>
      </g>
     </g>
    </g>
    <g id="ytick_13">
     <g id="line2d_45">
      <g>
       <use xlink:href="#m102f0e73b8" x="32.685756" y="97.94368" style="stroke: #000000; stroke-width: 0.5"/>
      </g>
     </g>
     <g id="line2d_46">
      <g>
       <use xlink:href="#mcd93178e81" x="227.985756" y="97.94368" style="stroke: #000000; stroke-width: 0.5"/>
      </g>
     </g>
    </g>
    <g id="ytick_14">
     <g id="line2d_47">
      <g>
       <use xlink:href="#m102f0e73b8" x="32.685756" y="90.66718" style="stroke: #000000; stroke-width: 0.5"/>
      </g>
     </g>
     <g id="line2d_48">
      <g>
       <use xlink:href="#mcd93178e81" x="227.985756" y="90.66718" style="stroke: #000000; stroke-width: 0.5"/>
      </g>
     </g>
    </g>
    <g id="ytick_15">
     <g id="line2d_49">
      <g>
       <use xlink:href="#m102f0e73b8" x="32.685756" y="83.39068" style="stroke: #000000; stroke-width: 0.5"/>
      </g>
     </g>
     <g id="line2d_50">
      <g>
       <use xlink:href="#mcd93178e81" x="227.985756" y="83.39068" style="stroke: #000000; stroke-width: 0.5"/>
      </g>
     </g>
    </g>
    <g id="ytick_16">
     <g id="line2d_51">
      <g>
       <use xlink:href="#m102f0e73b8" x="32.685756" y="68.83768" style="stroke: #000000; stroke-width: 0.5"/>
      </g>
     </g>
     <g id="line2d_52">
      <g>
       <use xlink:href="#mcd93178e81" x="227.985756" y="68.83768" style="stroke: #000000; stroke-width: 0.5"/>
      </g>
     </g>
    </g>
    <g id="ytick_17">
     <g id="line2d_53">
      <g>
       <use xlink:href="#m102f0e73b8" x="32.685756" y="61.56118" style="stroke: #000000; stroke-width: 0.5"/>
      </g>
     </g>
     <g id="line2d_54">
      <g>
       <use xlink:href="#mcd93178e81" x="227.985756" y="61.56118" style="stroke: #000000; stroke-width: 0.5"/>
      </g>
     </g>
    </g>
    <g id="ytick_18">
     <g id="line2d_55">
      <g>
       <use xlink:href="#m102f0e73b8" x="32.685756" y="54.28468" style="stroke: #000000; stroke-width: 0.5"/>
      </g>
     </g>
     <g id="line2d_56">
      <g>
       <use xlink:href="#mcd93178e81" x="227.985756" y="54.28468" style="stroke: #000000; stroke-width: 0.5"/>
      </g>
     </g>
    </g>
    <g id="ytick_19">
     <g id="line2d_57">
      <g>
       <use xlink:href="#m102f0e73b8" x="32.685756" y="39.73168" style="stroke: #000000; stroke-width: 0.5"/>
      </g>
     </g>
     <g id="line2d_58">
      <g>
       <use xlink:href="#mcd93178e81" x="227.985756" y="39.73168" style="stroke: #000000; stroke-width: 0.5"/>
      </g>
     </g>
    </g>
    <g id="ytick_20">
     <g id="line2d_59">
      <g>
       <use xlink:href="#m102f0e73b8" x="32.685756" y="32.45518" style="stroke: #000000; stroke-width: 0.5"/>
      </g>
     </g>
     <g id="line2d_60">
      <g>
       <use xlink:href="#mcd93178e81" x="227.985756" y="32.45518" style="stroke: #000000; stroke-width: 0.5"/>
      </g>
     </g>
    </g>
    <g id="ytick_21">
     <g id="line2d_61">
      <g>
       <use xlink:href="#m102f0e73b8" x="32.685756" y="25.17868" style="stroke: #000000; stroke-width: 0.5"/>
      </g>
     </g>
     <g id="line2d_62">
      <g>
       <use xlink:href="#mcd93178e81" x="227.985756" y="25.17868" style="stroke: #000000; stroke-width: 0.5"/>
      </g>
     </g>
    </g>
    <g id="text_10">
     <!-- Conifer Proportion -->
     <g transform="translate(10.518498 132.012235) rotate(-90) scale(0.1 -0.1)">
      <defs>
       <path id="CMR17-50" d="M 1267 2048 
L 2291 2048 
C 3117 2048 3718 2583 3718 3187 
C 3718 3791 3130 4352 2291 4352 
L 333 4352 
L 333 4185 
C 774 4185 845 4185 845 3899 
L 845 453 
C 845 166 774 166 333 166 
L 333 0 
C 518 12 858 12 1056 12 
C 1254 12 1594 12 1779 0 
L 1779 166 
C 1338 166 1267 166 1267 453 
L 1267 2048 
z
M 1254 2182 
L 1254 3937 
C 1254 4153 1267 4185 1523 4185 
L 2170 4185 
C 2995 4185 3232 3715 3232 3187 
C 3232 2608 2950 2182 2170 2182 
L 1254 2182 
z
" transform="scale(0.015625)"/>
      </defs>
      <use xlink:href="#CMR17-43" transform="scale(0.996264)"/>
      <use xlink:href="#CMR17-6f" transform="translate(66.509881 0) scale(0.996264)"/>
      <use xlink:href="#CMR17-6e" transform="translate(112.200358 0) scale(0.996264)"/>
      <use xlink:href="#CMR17-69" transform="translate(163.095727 0) scale(0.996264)"/>
      <use xlink:href="#CMR17-66" transform="translate(187.966786 0) scale(0.996264)"/>
      <use xlink:href="#CMR17-65" transform="translate(215.440298 0) scale(0.996264)"/>
      <use xlink:href="#CMR17-72" transform="translate(255.925959 0) scale(0.996264)"/>
      <use xlink:href="#CMR17-50" transform="translate(321.282693 0) scale(0.996264)"/>
      <use xlink:href="#CMR17-72" transform="translate(383.868993 0) scale(0.996264)"/>
      <use xlink:href="#CMR17-6f" transform="translate(419.149761 0) scale(0.996264)"/>
      <use xlink:href="#CMR17-70" transform="translate(464.840238 0) scale(0.996264)"/>
      <use xlink:href="#CMR17-6f" transform="translate(518.338047 0) scale(0.996264)"/>
      <use xlink:href="#CMR17-72" transform="translate(564.028524 0) scale(0.996264)"/>
      <use xlink:href="#CMR17-74" transform="translate(599.309292 0) scale(0.996264)"/>
      <use xlink:href="#CMR17-69" transform="translate(634.59006 0) scale(0.996264)"/>
      <use xlink:href="#CMR17-6f" transform="translate(659.461118 0) scale(0.996264)"/>
      <use xlink:href="#CMR17-6e" transform="translate(705.151595 0) scale(0.996264)"/>
     </g>
    </g>
   </g>
   <g id="line2d_63">
    <path d="M 69.871563 125.592164 
L 93.149948 125.592164 
" clip-path="url(#pfd6b3d33b0)" style="fill: none; stroke-dasharray: 1.5625,0.9375; stroke-dashoffset: 0; stroke: #353535; stroke-width: 1.25"/>
   </g>
   <g id="line2d_64">
    <path d="M 71.64611 104.292649 
L 91.375401 104.292649 
" clip-path="url(#pfd6b3d33b0)" style="fill: none; stroke-dasharray: 3.125,1.25; stroke-dashoffset: 0; stroke: #353535; stroke-width: 1.25"/>
   </g>
   <g id="line2d_65">
    <path d="M 73.960988 75.362775 
L 89.060523 75.362775 
" clip-path="url(#pfd6b3d33b0)" style="fill: none; stroke-dasharray: 1.5625,0.9375; stroke-dashoffset: 0; stroke: #353535; stroke-width: 1.25"/>
   </g>
   <g id="line2d_66">
    <path d="M 167.68032 49.861881 
L 190.641191 49.861881 
" clip-path="url(#pfd6b3d33b0)" style="fill: none; stroke-dasharray: 1.5625,0.9375; stroke-dashoffset: 0; stroke: #353535; stroke-width: 1.25"/>
   </g>
   <g id="line2d_67">
    <path d="M 151.613635 35.262166 
L 206.707876 35.262166 
" clip-path="url(#pfd6b3d33b0)" style="fill: none; stroke-dasharray: 3.125,1.25; stroke-dashoffset: 0; stroke: #353535; stroke-width: 1.25"/>
   </g>
   <g id="line2d_68">
    <path d="M 140.15765 28.472807 
L 218.163862 28.472807 
" clip-path="url(#pfd6b3d33b0)" style="fill: none; stroke-dasharray: 1.5625,0.9375; stroke-dashoffset: 0; stroke: #353535; stroke-width: 1.25"/>
   </g>
   <g id="patch_3">
    <path d="M 32.685756 163.43218 
L 32.685756 17.90218 
" style="fill: none; stroke: #000000; stroke-width: 0.5; stroke-linejoin: miter; stroke-linecap: square"/>
   </g>
   <g id="patch_4">
    <path d="M 227.985756 163.43218 
L 227.985756 17.90218 
" style="fill: none; stroke: #000000; stroke-width: 0.5; stroke-linejoin: miter; stroke-linecap: square"/>
   </g>
   <g id="patch_5">
    <path d="M 32.685756 163.43218 
L 227.985756 163.43218 
" style="fill: none; stroke: #000000; stroke-width: 0.5; stroke-linejoin: miter; stroke-linecap: square"/>
   </g>
   <g id="patch_6">
    <path d="M 32.685756 17.90218 
L 227.985756 17.90218 
" style="fill: none; stroke: #000000; stroke-width: 0.5; stroke-linejoin: miter; stroke-linecap: square"/>
   </g>
   <g id="text_11">
    <!-- Prediction vs. Dominant Leaf Type -->
    <g transform="translate(38.853368 11.90218) scale(0.12 -0.12)">
     <defs>
      <path id="CMR17-63" d="M 2234 2240 
C 2112 2240 1933 2240 1933 2015 
C 1933 1836 2080 1785 2163 1785 
C 2208 1785 2394 1804 2394 2028 
C 2394 2476 1958 2816 1466 2816 
C 787 2816 211 2201 211 1379 
C 211 521 813 -64 1466 -64 
C 2259 -64 2458 676 2458 747 
C 2458 773 2451 792 2406 792 
C 2362 792 2355 786 2330 702 
C 2163 180 1798 51 1523 51 
C 1114 51 621 431 621 1385 
C 621 2358 1094 2700 1472 2700 
C 1722 2700 2093 2582 2234 2240 
z
" transform="scale(0.015625)"/>
      <path id="CMR17-76" d="M 2502 2173 
C 2560 2315 2662 2572 3034 2585 
L 3034 2752 
C 2912 2745 2752 2739 2630 2739 
C 2496 2739 2285 2739 2157 2752 
L 2157 2585 
C 2317 2572 2406 2495 2406 2328 
C 2406 2270 2406 2257 2368 2167 
L 1664 379 
L 902 2308 
C 864 2392 864 2405 864 2431 
C 864 2585 1075 2585 1171 2585 
L 1171 2752 
C 1018 2739 736 2739 576 2739 
C 403 2739 205 2739 64 2752 
L 64 2585 
C 307 2585 442 2585 518 2386 
L 1446 44 
C 1485 -52 1491 -64 1549 -64 
C 1606 -64 1613 -52 1651 44 
L 2502 2173 
z
" transform="scale(0.015625)"/>
      <path id="CMR17-73" d="M 1978 2688 
C 1978 2803 1971 2809 1933 2809 
C 1907 2809 1901 2803 1824 2707 
C 1805 2681 1747 2617 1728 2592 
C 1523 2809 1235 2816 1126 2816 
C 416 2816 160 2444 160 2073 
C 160 1497 813 1363 998 1324 
C 1402 1241 1542 1216 1677 1100 
C 1760 1024 1901 883 1901 652 
C 1901 384 1747 38 1158 38 
C 602 38 403 460 288 1024 
C 269 1113 269 1120 218 1120 
C 166 1120 160 1113 160 985 
L 160 64 
C 160 -52 166 -58 205 -58 
C 237 -58 243 -52 275 0 
C 314 57 410 211 448 275 
C 576 102 800 -64 1158 -64 
C 1792 -64 2131 281 2131 780 
C 2131 1107 1958 1280 1875 1356 
C 1683 1555 1459 1600 1190 1651 
C 838 1728 390 1817 390 2208 
C 390 2374 480 2726 1126 2726 
C 1811 2726 1850 2086 1862 1881 
C 1869 1849 1901 1843 1920 1843 
C 1978 1843 1978 1862 1978 1971 
L 1978 2688 
z
" transform="scale(0.015625)"/>
      <path id="CMR17-2e" d="M 1062 262 
C 1062 422 934 524 800 524 
C 672 524 538 422 538 262 
C 538 102 666 0 800 0 
C 928 0 1062 102 1062 262 
z
" transform="scale(0.015625)"/>
     </defs>
     <use xlink:href="#CMR17-50" transform="scale(0.996264)"/>
     <use xlink:href="#CMR17-72" transform="translate(62.586301 0) scale(0.996264)"/>
     <use xlink:href="#CMR17-65" transform="translate(97.867068 0) scale(0.996264)"/>
     <use xlink:href="#CMR17-64" transform="translate(138.352729 0) scale(0.996264)"/>
     <use xlink:href="#CMR17-69" transform="translate(189.248099 0) scale(0.996264)"/>
     <use xlink:href="#CMR17-63" transform="translate(214.119157 0) scale(0.996264)"/>
     <use xlink:href="#CMR17-74" transform="translate(254.604818 0) scale(0.996264)"/>
     <use xlink:href="#CMR17-69" transform="translate(289.885585 0) scale(0.996264)"/>
     <use xlink:href="#CMR17-6f" transform="translate(314.756644 0) scale(0.996264)"/>
     <use xlink:href="#CMR17-6e" transform="translate(360.447121 0) scale(0.996264)"/>
     <use xlink:href="#CMR17-76" transform="translate(441.418457 0) scale(0.996264)"/>
     <use xlink:href="#CMR17-73" transform="translate(489.711373 0) scale(0.996264)"/>
     <use xlink:href="#CMR17-2e" transform="translate(525.512711 0) scale(0.996264)"/>
     <use xlink:href="#CMR17-44" transform="translate(590.869429 0) scale(0.996264)"/>
     <use xlink:href="#CMR17-6f" transform="translate(661.262985 0) scale(0.996264)"/>
     <use xlink:href="#CMR17-6d" transform="translate(706.953462 0) scale(0.996264)"/>
     <use xlink:href="#CMR17-69" transform="translate(783.873052 0) scale(0.996264)"/>
     <use xlink:href="#CMR17-6e" transform="translate(808.744111 0) scale(0.996264)"/>
     <use xlink:href="#CMR17-61" transform="translate(859.639481 0) scale(0.996264)"/>
     <use xlink:href="#CMR17-6e" transform="translate(905.329958 0) scale(0.996264)"/>
     <use xlink:href="#CMR17-74" transform="translate(953.622874 0) scale(0.996264)"/>
     <use xlink:href="#CMR17-4c" transform="translate(1018.979608 0) scale(0.996264)"/>
     <use xlink:href="#CMR17-65" transform="translate(1076.361016 0) scale(0.996264)"/>
     <use xlink:href="#CMR17-61" transform="translate(1116.846676 0) scale(0.996264)"/>
     <use xlink:href="#CMR17-66" transform="translate(1162.537153 0) scale(0.996264)"/>
     <use xlink:href="#CMR17-54" transform="translate(1220.086632 0) scale(0.996264)"/>
     <use xlink:href="#CMR17-79" transform="translate(1283.994059 0) scale(0.996264)"/>
     <use xlink:href="#CMR17-70" transform="translate(1332.286974 0) scale(0.996264)"/>
     <use xlink:href="#CMR17-65" transform="translate(1385.784783 0) scale(0.996264)"/>
    </g>
   </g>
  </g>
 </g>
 <defs>
  <clipPath id="pfd6b3d33b0">
   <rect x="32.685756" y="17.90218" width="195.3" height="145.53"/>
  </clipPath>
 </defs>
</svg>
