<?xml version="1.0" encoding="utf-8" standalone="no"?>
<!DOCTYPE svg PUBLIC "-//W3C//DTD SVG 1.1//EN"
  "http://www.w3.org/Graphics/SVG/1.1/DTD/svg11.dtd">
<svg xmlns:xlink="http://www.w3.org/1999/xlink" width="231.585756pt" height="192.243533pt" viewBox="0 0 231.585756 192.243533" xmlns="http://www.w3.org/2000/svg" version="1.1">
 <metadata>
  <rdf:RDF xmlns:dc="http://purl.org/dc/elements/1.1/" xmlns:cc="http://creativecommons.org/ns#" xmlns:rdf="http://www.w3.org/1999/02/22-rdf-syntax-ns#">
   <cc:Work>
    <dc:type rdf:resource="http://purl.org/dc/dcmitype/StillImage"/>
    <dc:date>2024-06-24T15:54:05.916933</dc:date>
    <dc:format>image/svg+xml</dc:format>
    <dc:creator>
     <cc:Agent>
      <dc:title>Matplotlib v3.8.4, https://matplotlib.org/</dc:title>
     </cc:Agent>
    </dc:creator>
   </cc:Work>
  </rdf:RDF>
 </metadata>
 <defs>
  <style type="text/css">*{stroke-linejoin: round; stroke-linecap: butt}</style>
 </defs>
 <g id="figure_1">
  <g id="patch_1">
   <path d="M 0 192.243533 
L 231.585756 192.243533 
L 231.585756 0 
L 0 0 
L 0 192.243533 
z
" style="fill: none"/>
  </g>
  <g id="axes_1">
   <g id="patch_2">
    <path d="M 32.685756 163.43218 
L 227.985756 163.43218 
L 227.985756 17.90218 
L 32.685756 17.90218 
L 32.685756 163.43218 
z
" style="fill: none"/>
   </g>
   <g id="PolyCollection_1">
    <defs>
     <path id="m8a369d8843" d="M 81.51533 -36.379242 
L 81.506181 -36.379242 
L 81.496699 -37.663979 
L 81.482124 -38.948716 
L 81.470414 -40.233453 
L 81.465033 -41.51819 
L 81.453597 -42.802927 
L 81.42073 -44.087664 
L 81.363554 -45.372401 
L 81.289641 -46.657138 
L 81.212309 -47.941875 
L 81.146919 -49.226612 
L 81.103362 -50.511349 
L 81.07443 -51.796086 
L 81.037299 -53.080823 
L 80.990289 -54.36556 
L 80.968065 -55.650297 
L 80.991507 -56.935034 
L 81.029867 -58.219771 
L 81.031272 -59.504508 
L 80.976138 -60.789246 
L 80.888004 -62.073983 
L 80.787481 -63.35872 
L 80.653386 -64.643457 
L 80.444828 -65.928194 
L 80.124995 -67.212931 
L 79.66149 -68.497668 
L 79.042732 -69.782405 
L 78.250328 -71.067142 
L 77.180639 -72.351879 
L 75.63365 -73.636616 
L 73.435195 -74.921353 
L 70.601014 -76.20609 
L 67.354159 -77.490827 
L 63.976231 -78.775564 
L 60.693843 -80.060301 
L 57.673527 -81.345038 
L 54.97974 -82.629775 
L 52.596148 -83.914512 
L 50.612014 -85.199249 
L 49.297189 -86.483986 
L 48.886549 -87.768723 
L 49.283341 -89.05346 
L 50.085668 -90.338197 
L 50.940102 -91.622934 
L 51.690651 -92.907671 
L 52.132348 -94.192408 
L 51.954149 -95.477145 
L 51.091375 -96.761882 
L 49.804095 -98.046619 
L 48.30814 -99.331356 
L 46.610433 -100.616093 
L 44.748407 -101.90083 
L 43.114494 -103.185567 
L 42.450756 -104.470304 
L 43.244329 -105.755041 
L 45.088772 -107.039778 
L 46.877788 -108.324515 
L 47.587746 -109.609252 
L 46.829824 -110.893989 
L 45.036274 -112.178726 
L 43.391863 -113.463463 
L 43.43 -114.7482 
L 46.305793 -116.032938 
L 51.986012 -117.317675 
L 59.085897 -118.602412 
L 65.838753 -119.887149 
L 71.17177 -121.171886 
L 74.89597 -122.456623 
L 77.305033 -123.74136 
L 78.736869 -125.026097 
L 79.453951 -126.310834 
L 79.758469 -127.595571 
L 79.952719 -128.880308 
L 80.172488 -130.165045 
L 80.401039 -131.449782 
L 80.614086 -132.734519 
L 80.808861 -134.019256 
L 80.952496 -135.303993 
L 81.01 -136.58873 
L 81.007741 -137.873467 
L 81.011934 -139.158204 
L 81.057088 -140.442941 
L 81.118908 -141.727678 
L 81.158354 -143.012415 
L 81.18016 -144.297152 
L 81.217664 -145.581889 
L 81.278655 -146.866626 
L 81.345006 -148.151363 
L 81.399915 -149.4361 
L 81.433141 -150.720837 
L 81.444308 -152.005574 
L 81.448606 -153.290311 
L 81.45929 -154.575048 
L 81.468553 -155.859785 
L 81.464796 -157.144522 
L 81.456905 -158.429259 
L 81.462042 -159.713996 
L 81.480175 -160.998733 
L 81.497698 -162.28347 
L 81.50698 -163.568207 
L 81.514531 -163.568207 
L 81.514531 -163.568207 
L 81.523813 -162.28347 
L 81.541336 -160.998733 
L 81.55947 -159.713996 
L 81.564606 -158.429259 
L 81.556715 -157.144522 
L 81.552958 -155.859785 
L 81.562221 -154.575048 
L 81.572906 -153.290311 
L 81.577204 -152.005574 
L 81.588371 -150.720837 
L 81.621596 -149.4361 
L 81.676505 -148.151363 
L 81.742856 -146.866626 
L 81.803847 -145.581889 
L 81.841351 -144.297152 
L 81.863158 -143.012415 
L 81.902603 -141.727678 
L 81.964423 -140.442941 
L 82.009577 -139.158204 
L 82.013771 -137.873467 
L 82.011512 -136.58873 
L 82.069015 -135.303993 
L 82.21265 -134.019256 
L 82.407426 -132.734519 
L 82.620473 -131.449782 
L 82.849023 -130.165045 
L 83.068792 -128.880308 
L 83.263043 -127.595571 
L 83.56756 -126.310834 
L 84.284642 -125.026097 
L 85.716479 -123.74136 
L 88.125541 -122.456623 
L 91.849741 -121.171886 
L 97.182758 -119.887149 
L 103.935614 -118.602412 
L 111.0355 -117.317675 
L 116.715718 -116.032938 
L 119.591511 -114.7482 
L 119.629648 -113.463463 
L 117.985238 -112.178726 
L 116.191687 -110.893989 
L 115.433765 -109.609252 
L 116.143724 -108.324515 
L 117.93274 -107.039778 
L 119.777183 -105.755041 
L 120.570756 -104.470304 
L 119.907018 -103.185567 
L 118.273104 -101.90083 
L 116.411079 -100.616093 
L 114.713372 -99.331356 
L 113.217416 -98.046619 
L 111.930136 -96.761882 
L 111.067362 -95.477145 
L 110.889163 -94.192408 
L 111.33086 -92.907671 
L 112.08141 -91.622934 
L 112.935843 -90.338197 
L 113.738171 -89.05346 
L 114.134962 -87.768723 
L 113.724322 -86.483986 
L 112.409497 -85.199249 
L 110.425363 -83.914512 
L 108.041771 -82.629775 
L 105.347984 -81.345038 
L 102.327669 -80.060301 
L 99.04528 -78.775564 
L 95.667352 -77.490827 
L 92.420498 -76.20609 
L 89.586317 -74.921353 
L 87.387861 -73.636616 
L 85.840872 -72.351879 
L 84.771183 -71.067142 
L 83.978779 -69.782405 
L 83.360022 -68.497668 
L 82.896516 -67.212931 
L 82.576683 -65.928194 
L 82.368125 -64.643457 
L 82.23403 -63.35872 
L 82.133507 -62.073983 
L 82.045373 -60.789246 
L 81.99024 -59.504508 
L 81.991644 -58.219771 
L 82.030004 -56.935034 
L 82.053446 -55.650297 
L 82.031223 -54.36556 
L 81.984212 -53.080823 
L 81.947081 -51.796086 
L 81.91815 -50.511349 
L 81.874592 -49.226612 
L 81.809202 -47.941875 
L 81.731871 -46.657138 
L 81.657957 -45.372401 
L 81.600781 -44.087664 
L 81.567915 -42.802927 
L 81.556478 -41.51819 
L 81.551097 -40.233453 
L 81.539388 -38.948716 
L 81.524813 -37.663979 
L 81.51533 -36.379242 
z
" style="stroke: #353535; stroke-width: 1.25"/>
    </defs>
    <g clip-path="url(#p8f27034736)">
     <use xlink:href="#m8a369d8843" x="0" y="192.243533" style="fill: #1f5c92; stroke: #353535; stroke-width: 1.25"/>
    </g>
   </g>
   <g id="PolyCollection_2">
    <defs>
     <path id="m01d8bce02f" d="M 179.161751 -47.029256 
L 179.159761 -47.029256 
L 179.157958 -48.333873 
L 179.154373 -49.638491 
L 179.148632 -50.943108 
L 179.140959 -52.247726 
L 179.132002 -53.552343 
L 179.122371 -54.85696 
L 179.112208 -56.161578 
L 179.100915 -57.466195 
L 179.087248 -58.770813 
L 179.069879 -60.07543 
L 179.048341 -61.380048 
L 179.023607 -62.684665 
L 178.996989 -63.989282 
L 178.967581 -65.2939 
L 178.930737 -66.598517 
L 178.878555 -67.903135 
L 178.801111 -69.207752 
L 178.687777 -70.51237 
L 178.526725 -71.816987 
L 178.301623 -73.121604 
L 177.992589 -74.426222 
L 177.58428 -75.730839 
L 177.068687 -77.035457 
L 176.437738 -78.340074 
L 175.67882 -79.644692 
L 174.778913 -80.949309 
L 173.73284 -82.253926 
L 172.558879 -83.558544 
L 171.319579 -84.863161 
L 170.125048 -86.167779 
L 169.10426 -87.472396 
L 168.362056 -88.777014 
L 167.941013 -90.081631 
L 167.789226 -91.386248 
L 167.750635 -92.690866 
L 167.607209 -93.995483 
L 167.159529 -95.300101 
L 166.287125 -96.604718 
L 164.94851 -97.909336 
L 163.147557 -99.213953 
L 160.936411 -100.51857 
L 158.477899 -101.823188 
L 156.084497 -103.127805 
L 154.139116 -104.432423 
L 152.940236 -105.73704 
L 152.604861 -107.041657 
L 153.078571 -108.346275 
L 154.198005 -109.650892 
L 155.745 -110.95551 
L 157.472725 -112.260127 
L 159.125792 -113.564745 
L 160.479775 -114.869362 
L 161.384764 -116.173979 
L 161.77638 -117.478597 
L 161.648258 -118.783214 
L 161.024421 -120.087832 
L 159.967619 -121.392449 
L 158.602859 -122.697067 
L 157.116247 -124.001684 
L 155.739863 -125.306301 
L 154.736306 -126.610919 
L 154.34281 -127.915536 
L 154.666847 -129.220154 
L 155.623232 -130.524771 
L 156.983464 -131.829389 
L 158.475427 -133.134006 
L 159.844477 -134.438623 
L 160.890235 -135.743241 
L 161.511824 -137.047858 
L 161.719693 -138.352476 
L 161.596124 -139.657093 
L 161.266526 -140.961711 
L 160.897608 -142.266328 
L 160.646694 -143.570945 
L 160.547115 -144.875563 
L 160.452948 -146.18018 
L 160.146661 -147.484798 
L 159.539898 -148.789415 
L 158.807568 -150.094033 
L 158.369246 -151.39865 
L 158.724317 -152.703267 
L 160.203156 -154.007885 
L 162.765429 -155.312502 
L 165.990553 -156.61712 
L 169.280463 -157.921737 
L 172.122482 -159.226355 
L 174.229354 -160.530972 
L 175.530269 -161.835589 
L 176.11862 -163.140207 
L 176.213258 -164.444824 
L 176.110483 -165.749442 
L 176.110375 -167.054059 
L 176.415785 -168.358677 
L 177.034823 -169.663294 
L 177.783141 -170.967911 
L 178.427196 -172.272529 
L 178.843397 -173.577146 
L 179.049987 -174.881764 
L 179.129707 -176.186381 
L 179.191804 -176.186381 
L 179.191804 -176.186381 
L 179.271524 -174.881764 
L 179.478115 -173.577146 
L 179.894316 -172.272529 
L 180.538371 -170.967911 
L 181.286688 -169.663294 
L 181.905726 -168.358677 
L 182.211136 -167.054059 
L 182.211028 -165.749442 
L 182.108254 -164.444824 
L 182.202891 -163.140207 
L 182.791242 -161.835589 
L 184.092158 -160.530972 
L 186.199029 -159.226355 
L 189.041049 -157.921737 
L 192.330958 -156.61712 
L 195.556083 -155.312502 
L 198.118355 -154.007885 
L 199.597194 -152.703267 
L 199.952265 -151.39865 
L 199.513943 -150.094033 
L 198.781613 -148.789415 
L 198.17485 -147.484798 
L 197.868564 -146.18018 
L 197.774397 -144.875563 
L 197.674818 -143.570945 
L 197.423903 -142.266328 
L 197.054985 -140.961711 
L 196.725388 -139.657093 
L 196.601818 -138.352476 
L 196.809688 -137.047858 
L 197.431277 -135.743241 
L 198.477035 -134.438623 
L 199.846085 -133.134006 
L 201.338047 -131.829389 
L 202.698279 -130.524771 
L 203.654665 -129.220154 
L 203.978701 -127.915536 
L 203.585205 -126.610919 
L 202.581649 -125.306301 
L 201.205264 -124.001684 
L 199.718652 -122.697067 
L 198.353892 -121.392449 
L 197.29709 -120.087832 
L 196.673253 -118.783214 
L 196.545131 -117.478597 
L 196.936747 -116.173979 
L 197.841737 -114.869362 
L 199.195719 -113.564745 
L 200.848786 -112.260127 
L 202.576511 -110.95551 
L 204.123506 -109.650892 
L 205.24294 -108.346275 
L 205.71665 -107.041657 
L 205.381276 -105.73704 
L 204.182396 -104.432423 
L 202.237015 -103.127805 
L 199.843612 -101.823188 
L 197.3851 -100.51857 
L 195.173955 -99.213953 
L 193.373002 -97.909336 
L 192.034387 -96.604718 
L 191.161982 -95.300101 
L 190.714302 -93.995483 
L 190.570876 -92.690866 
L 190.532286 -91.386248 
L 190.380498 -90.081631 
L 189.959455 -88.777014 
L 189.217252 -87.472396 
L 188.196463 -86.167779 
L 187.001932 -84.863161 
L 185.762632 -83.558544 
L 184.588671 -82.253926 
L 183.542598 -80.949309 
L 182.642691 -79.644692 
L 181.883773 -78.340074 
L 181.252825 -77.035457 
L 180.737231 -75.730839 
L 180.328922 -74.426222 
L 180.019888 -73.121604 
L 179.794787 -71.816987 
L 179.633734 -70.51237 
L 179.520401 -69.207752 
L 179.442957 -67.903135 
L 179.390775 -66.598517 
L 179.35393 -65.2939 
L 179.324523 -63.989282 
L 179.297904 -62.684665 
L 179.273171 -61.380048 
L 179.251632 -60.07543 
L 179.234264 -58.770813 
L 179.220597 -57.466195 
L 179.209304 -56.161578 
L 179.19914 -54.85696 
L 179.18951 -53.552343 
L 179.180552 -52.247726 
L 179.17288 -50.943108 
L 179.167139 -49.638491 
L 179.163554 -48.333873 
L 179.161751 -47.029256 
z
" style="stroke: #353535; stroke-width: 1.25"/>
    </defs>
    <g clip-path="url(#p8f27034736)">
     <use xlink:href="#m01d8bce02f" x="0" y="192.243533" style="fill: #1f5c92; stroke: #353535; stroke-width: 1.25"/>
    </g>
   </g>
   <g id="matplotlib.axis_1">
    <g id="xtick_1">
     <g id="line2d_1">
      <defs>
       <path id="m2a3512b4e8" d="M 0 0 
L 0 -3 
" style="stroke: #000000; stroke-width: 0.5"/>
      </defs>
      <g>
       <use xlink:href="#m2a3512b4e8" x="81.510756" y="163.43218" style="stroke: #000000; stroke-width: 0.5"/>
      </g>
     </g>
     <g id="line2d_2">
      <defs>
       <path id="m4f386c872e" d="M 0 0 
L 0 3 
" style="stroke: #000000; stroke-width: 0.5"/>
      </defs>
      <g>
       <use xlink:href="#m4f386c872e" x="81.510756" y="17.90218" style="stroke: #000000; stroke-width: 0.5"/>
      </g>
     </g>
     <g id="text_1">
      <!-- Broadleaf -->
      <g transform="translate(60.672175 173.850678) scale(0.1 -0.1)">
       <defs>
        <path id="CMR17-42" d="M 333 4352 
L 333 4185 
C 774 4185 845 4185 845 3897 
L 845 451 
C 845 166 774 166 333 166 
L 333 0 
L 2534 0 
C 3354 0 3885 578 3885 1155 
C 3885 1726 3360 2214 2675 2259 
C 3290 2380 3718 2790 3718 3276 
C 3718 3808 3194 4352 2368 4352 
L 333 4352 
z
M 1248 2304 
L 1248 3936 
C 1248 4153 1261 4185 1517 4185 
L 2336 4185 
C 2970 4185 3251 3673 3251 3276 
C 3251 2790 2861 2304 2170 2304 
L 1248 2304 
z
M 1517 166 
C 1261 166 1248 198 1248 413 
L 1248 2201 
L 2432 2201 
C 3091 2201 3411 1624 3411 1161 
C 3411 698 3046 166 2349 166 
L 1517 166 
z
" transform="scale(0.015625)"/>
        <path id="CMR17-72" d="M 960 1517 
C 960 2134 1222 2713 1702 2713 
C 1747 2713 1792 2707 1837 2687 
C 1837 2687 1696 2642 1696 2475 
C 1696 2321 1818 2257 1914 2257 
C 1990 2257 2131 2302 2131 2482 
C 2131 2687 1926 2816 1709 2816 
C 1222 2816 1011 2340 947 2115 
L 941 2115 
L 941 2816 
L 198 2745 
L 198 2578 
C 576 2578 634 2540 634 2231 
L 634 443 
C 634 198 608 166 198 166 
L 198 0 
C 352 12 646 12 813 12 
C 998 12 1325 12 1498 0 
L 1498 166 
C 1037 166 960 166 960 455 
L 960 1517 
z
" transform="scale(0.015625)"/>
        <path id="CMR17-6f" d="M 2758 1356 
C 2758 2176 2163 2816 1466 2816 
C 768 2816 173 2176 173 1356 
C 173 550 768 -64 1466 -64 
C 2163 -64 2758 550 2758 1356 
z
M 1466 51 
C 1165 51 909 230 762 480 
C 602 768 582 1126 582 1408 
C 582 1676 595 2009 762 2297 
C 890 2508 1139 2713 1466 2713 
C 1754 2713 1997 2553 2150 2329 
C 2349 2028 2349 1606 2349 1408 
C 2349 1158 2336 774 2163 467 
C 1984 172 1709 51 1466 51 
z
" transform="scale(0.015625)"/>
        <path id="CMR17-61" d="M 2304 1656 
C 2304 2048 2304 2275 2035 2534 
C 1798 2751 1523 2816 1306 2816 
C 800 2816 435 2408 435 1977 
C 435 1740 627 1728 666 1728 
C 749 1728 896 1779 896 1958 
C 896 2118 774 2188 666 2188 
C 640 2188 608 2182 589 2176 
C 723 2594 1069 2713 1293 2713 
C 1613 2713 1965 2421 1965 1875 
L 1965 1632 
C 1587 1619 1133 1568 774 1373 
C 371 1147 256 822 256 576 
C 256 77 832 -64 1171 -64 
C 1523 -64 1850 135 1990 505 
C 2003 219 2182 -39 2464 -39 
C 2598 -39 2938 51 2938 563 
L 2938 926 
L 2822 926 
L 2822 557 
C 2822 161 2650 109 2566 109 
C 2304 109 2304 446 2304 732 
L 2304 1656 
z
M 1965 887 
C 1965 323 1568 38 1216 38 
C 896 38 646 278 646 576 
C 646 771 730 1114 1101 1322 
C 1408 1497 1760 1523 1965 1536 
L 1965 887 
z
" transform="scale(0.015625)"/>
        <path id="CMR17-64" d="M 1869 4345 
L 1869 4179 
C 2246 4179 2304 4141 2304 3843 
L 2304 2371 
C 2278 2403 2016 2816 1498 2816 
C 845 2816 211 2228 211 1376 
C 211 529 806 -64 1434 -64 
C 1978 -64 2259 361 2291 406 
L 2291 -64 
L 3066 -13 
L 3066 154 
C 2688 154 2630 193 2630 503 
L 2630 4416 
L 1869 4345 
z
M 2291 762 
C 2291 568 2176 393 2029 264 
C 1811 70 1594 38 1472 38 
C 1286 38 621 135 621 1369 
C 621 2636 1363 2713 1530 2713 
C 1824 2713 2061 2545 2208 2313 
C 2291 2177 2291 2157 2291 2041 
L 2291 762 
z
" transform="scale(0.015625)"/>
        <path id="CMR17-6c" d="M 979 4416 
L 218 4345 
L 218 4179 
C 595 4179 653 4141 653 3835 
L 653 439 
C 653 198 627 166 218 166 
L 218 0 
C 371 12 653 12 813 12 
C 979 12 1261 12 1414 0 
L 1414 166 
C 1005 166 979 191 979 439 
L 979 4416 
z
" transform="scale(0.015625)"/>
        <path id="CMR17-65" d="M 2438 1503 
C 2464 1529 2464 1542 2464 1606 
C 2464 2251 2118 2816 1389 2816 
C 710 2816 173 2175 173 1394 
C 173 554 781 -64 1459 -64 
C 2176 -64 2458 619 2458 755 
C 2458 800 2419 800 2406 800 
C 2362 800 2355 787 2330 709 
C 2189 270 1837 51 1504 51 
C 1229 51 954 206 781 490 
C 582 819 582 1200 582 1503 
L 2438 1503 
z
M 589 1600 
C 634 2511 1126 2713 1382 2713 
C 1818 2713 2112 2308 2118 1600 
L 589 1600 
z
" transform="scale(0.015625)"/>
        <path id="CMR17-66" d="M 979 2585 
L 1709 2585 
L 1709 2752 
L 966 2752 
L 966 3539 
C 966 4076 1235 4377 1510 4377 
C 1594 4377 1690 4363 1754 4339 
C 1702 4326 1568 4281 1568 4121 
C 1568 3955 1696 3904 1786 3904 
C 1875 3904 2003 3955 2003 4121 
C 2003 4353 1773 4480 1517 4480 
C 1152 4480 653 4211 653 3526 
L 653 2752 
L 141 2752 
L 141 2585 
L 653 2585 
L 653 441 
C 653 198 627 166 218 166 
L 218 0 
C 371 12 666 12 832 12 
C 1018 12 1344 12 1517 0 
L 1517 166 
C 1056 166 979 166 979 454 
L 979 2585 
z
" transform="scale(0.015625)"/>
       </defs>
       <use xlink:href="#CMR17-42" transform="scale(0.996264)"/>
       <use xlink:href="#CMR17-72" transform="translate(65.188754 0) scale(0.996264)"/>
       <use xlink:href="#CMR17-6f" transform="translate(100.469522 0) scale(0.996264)"/>
       <use xlink:href="#CMR17-61" transform="translate(146.159999 0) scale(0.996264)"/>
       <use xlink:href="#CMR17-64" transform="translate(191.850476 0) scale(0.996264)"/>
       <use xlink:href="#CMR17-6c" transform="translate(242.745846 0) scale(0.996264)"/>
       <use xlink:href="#CMR17-65" transform="translate(267.616905 0) scale(0.996264)"/>
       <use xlink:href="#CMR17-61" transform="translate(308.102565 0) scale(0.996264)"/>
       <use xlink:href="#CMR17-66" transform="translate(353.793042 0) scale(0.996264)"/>
      </g>
     </g>
    </g>
    <g id="xtick_2">
     <g id="line2d_3">
      <g>
       <use xlink:href="#m2a3512b4e8" x="179.160756" y="163.43218" style="stroke: #000000; stroke-width: 0.5"/>
      </g>
     </g>
     <g id="line2d_4">
      <g>
       <use xlink:href="#m4f386c872e" x="179.160756" y="17.90218" style="stroke: #000000; stroke-width: 0.5"/>
      </g>
     </g>
     <g id="text_2">
      <!-- Conifer -->
      <g transform="translate(163.234335 173.850678) scale(0.1 -0.1)">
       <defs>
        <path id="CMR17-43" d="M 3974 4351 
C 3974 4467 3968 4473 3930 4473 
C 3904 4473 3898 4467 3853 4390 
L 3571 3849 
C 3258 4249 2874 4480 2381 4480 
C 1286 4480 294 3507 294 2179 
C 294 837 1286 -128 2387 -128 
C 3366 -128 3974 741 3974 1482 
C 3974 1547 3974 1573 3917 1573 
C 3866 1573 3866 1553 3859 1495 
C 3808 592 3168 38 2477 38 
C 1824 38 781 502 781 2179 
C 781 3862 1843 4313 2464 4313 
C 3187 4313 3712 3681 3834 2785 
C 3846 2707 3846 2695 3904 2695 
C 3974 2695 3974 2707 3974 2824 
L 3974 4351 
z
" transform="scale(0.015625)"/>
        <path id="CMR17-6e" d="M 2656 1954 
C 2656 2282 2592 2816 1837 2816 
C 1331 2816 1069 2424 973 2166 
L 966 2166 
L 966 2816 
L 211 2745 
L 211 2578 
C 589 2578 646 2540 646 2231 
L 646 443 
C 646 198 621 166 211 166 
L 211 0 
C 365 12 646 12 813 12 
C 979 12 1267 12 1421 0 
L 1421 166 
C 1011 166 986 192 986 443 
L 986 1678 
C 986 2269 1344 2713 1792 2713 
C 2266 2713 2317 2289 2317 1980 
L 2317 443 
C 2317 198 2291 166 1882 166 
L 1882 0 
C 2035 12 2317 12 2483 12 
C 2650 12 2938 12 3091 0 
L 3091 166 
C 2682 166 2656 192 2656 443 
L 2656 1954 
z
" transform="scale(0.015625)"/>
        <path id="CMR17-69" d="M 992 3961 
C 992 4102 877 4224 730 4224 
C 589 4224 467 4108 467 3961 
C 467 3820 582 3699 730 3699 
C 870 3699 992 3814 992 3961 
z
M 243 2745 
L 243 2579 
C 602 2579 653 2540 653 2231 
L 653 443 
C 653 198 627 166 218 166 
L 218 0 
C 371 12 646 12 806 12 
C 960 12 1222 12 1370 0 
L 1370 166 
C 992 166 979 205 979 436 
L 979 2816 
L 243 2745 
z
" transform="scale(0.015625)"/>
       </defs>
       <use xlink:href="#CMR17-43" transform="scale(0.996264)"/>
       <use xlink:href="#CMR17-6f" transform="translate(66.509881 0) scale(0.996264)"/>
       <use xlink:href="#CMR17-6e" transform="translate(112.200358 0) scale(0.996264)"/>
       <use xlink:href="#CMR17-69" transform="translate(163.095727 0) scale(0.996264)"/>
       <use xlink:href="#CMR17-66" transform="translate(187.966786 0) scale(0.996264)"/>
       <use xlink:href="#CMR17-65" transform="translate(215.440298 0) scale(0.996264)"/>
       <use xlink:href="#CMR17-72" transform="translate(255.925959 0) scale(0.996264)"/>
      </g>
     </g>
    </g>
    <g id="xtick_3">
     <g id="line2d_5">
      <defs>
       <path id="m3ac8b04e52" d="M 0 0 
L 0 -1.5 
" style="stroke: #000000; stroke-width: 0.5"/>
      </defs>
      <g>
       <use xlink:href="#m3ac8b04e52" x="42.450756" y="163.43218" style="stroke: #000000; stroke-width: 0.5"/>
      </g>
     </g>
     <g id="line2d_6">
      <defs>
       <path id="md404e34d39" d="M 0 0 
L 0 1.5 
" style="stroke: #000000; stroke-width: 0.5"/>
      </defs>
      <g>
       <use xlink:href="#md404e34d39" x="42.450756" y="17.90218" style="stroke: #000000; stroke-width: 0.5"/>
      </g>
     </g>
    </g>
    <g id="xtick_4">
     <g id="line2d_7">
      <g>
       <use xlink:href="#m3ac8b04e52" x="61.980756" y="163.43218" style="stroke: #000000; stroke-width: 0.5"/>
      </g>
     </g>
     <g id="line2d_8">
      <g>
       <use xlink:href="#md404e34d39" x="61.980756" y="17.90218" style="stroke: #000000; stroke-width: 0.5"/>
      </g>
     </g>
    </g>
    <g id="xtick_5">
     <g id="line2d_9">
      <g>
       <use xlink:href="#m3ac8b04e52" x="101.040756" y="163.43218" style="stroke: #000000; stroke-width: 0.5"/>
      </g>
     </g>
     <g id="line2d_10">
      <g>
       <use xlink:href="#md404e34d39" x="101.040756" y="17.90218" style="stroke: #000000; stroke-width: 0.5"/>
      </g>
     </g>
    </g>
    <g id="xtick_6">
     <g id="line2d_11">
      <g>
       <use xlink:href="#m3ac8b04e52" x="120.570756" y="163.43218" style="stroke: #000000; stroke-width: 0.5"/>
      </g>
     </g>
     <g id="line2d_12">
      <g>
       <use xlink:href="#md404e34d39" x="120.570756" y="17.90218" style="stroke: #000000; stroke-width: 0.5"/>
      </g>
     </g>
    </g>
    <g id="xtick_7">
     <g id="line2d_13">
      <g>
       <use xlink:href="#m3ac8b04e52" x="140.100756" y="163.43218" style="stroke: #000000; stroke-width: 0.5"/>
      </g>
     </g>
     <g id="line2d_14">
      <g>
       <use xlink:href="#md404e34d39" x="140.100756" y="17.90218" style="stroke: #000000; stroke-width: 0.5"/>
      </g>
     </g>
    </g>
    <g id="xtick_8">
     <g id="line2d_15">
      <g>
       <use xlink:href="#m3ac8b04e52" x="159.630756" y="163.43218" style="stroke: #000000; stroke-width: 0.5"/>
      </g>
     </g>
     <g id="line2d_16">
      <g>
       <use xlink:href="#md404e34d39" x="159.630756" y="17.90218" style="stroke: #000000; stroke-width: 0.5"/>
      </g>
     </g>
    </g>
    <g id="xtick_9">
     <g id="line2d_17">
      <g>
       <use xlink:href="#m3ac8b04e52" x="198.690756" y="163.43218" style="stroke: #000000; stroke-width: 0.5"/>
      </g>
     </g>
     <g id="line2d_18">
      <g>
       <use xlink:href="#md404e34d39" x="198.690756" y="17.90218" style="stroke: #000000; stroke-width: 0.5"/>
      </g>
     </g>
    </g>
    <g id="xtick_10">
     <g id="line2d_19">
      <g>
       <use xlink:href="#m3ac8b04e52" x="218.220756" y="163.43218" style="stroke: #000000; stroke-width: 0.5"/>
      </g>
     </g>
     <g id="line2d_20">
      <g>
       <use xlink:href="#md404e34d39" x="218.220756" y="17.90218" style="stroke: #000000; stroke-width: 0.5"/>
      </g>
     </g>
    </g>
    <g id="text_3">
     <!-- Dominant Leaf Type -->
     <g transform="translate(84.811928 186.706355) scale(0.1 -0.1)">
      <defs>
       <path id="CMR17-44" d="M 333 4352 
L 333 4185 
C 774 4185 845 4185 845 3898 
L 845 453 
C 845 166 774 166 333 166 
L 333 0 
L 2368 0 
C 3398 0 4224 943 4224 2140 
C 4224 3344 3411 4352 2368 4352 
L 333 4352 
z
M 1523 166 
C 1267 166 1254 198 1254 414 
L 1254 3936 
C 1254 4153 1267 4185 1523 4185 
L 2240 4185 
C 2771 4185 3750 3873 3750 2140 
C 3750 1242 3488 879 3366 707 
C 3213 510 2848 166 2240 166 
L 1523 166 
z
" transform="scale(0.015625)"/>
       <path id="CMR17-6d" d="M 4326 1954 
C 4326 2276 4269 2816 3507 2816 
C 3072 2816 2771 2520 2656 2173 
L 2650 2173 
C 2573 2700 2195 2816 1837 2816 
C 1331 2816 1069 2424 973 2166 
L 966 2166 
L 966 2816 
L 211 2745 
L 211 2578 
C 589 2578 646 2540 646 2231 
L 646 443 
C 646 198 621 166 211 166 
L 211 0 
C 365 12 646 12 813 12 
C 979 12 1267 12 1421 0 
L 1421 166 
C 1011 166 986 192 986 443 
L 986 1678 
C 986 2269 1344 2713 1792 2713 
C 2266 2713 2317 2289 2317 1980 
L 2317 443 
C 2317 198 2291 166 1882 166 
L 1882 0 
C 2035 12 2317 12 2483 12 
C 2650 12 2938 12 3091 0 
L 3091 166 
C 2682 166 2656 192 2656 443 
L 2656 1678 
C 2656 2269 3014 2713 3462 2713 
C 3936 2713 3987 2289 3987 1980 
L 3987 443 
C 3987 198 3962 166 3552 166 
L 3552 0 
C 3706 12 3987 12 4154 12 
C 4320 12 4608 12 4762 0 
L 4762 166 
C 4352 166 4326 192 4326 443 
L 4326 1954 
z
" transform="scale(0.015625)"/>
       <path id="CMR17-74" d="M 966 2585 
L 1862 2585 
L 1862 2752 
L 966 2752 
L 966 3968 
L 851 3968 
C 838 3292 614 2700 70 2687 
L 70 2585 
L 627 2585 
L 627 778 
C 627 655 627 -64 1370 -64 
C 1747 -64 1965 308 1965 784 
L 1965 1151 
L 1850 1151 
L 1850 790 
C 1850 347 1677 51 1408 51 
C 1222 51 966 179 966 765 
L 966 2585 
z
" transform="scale(0.015625)"/>
       <path id="CMR17-4c" d="M 3469 1612 
L 3354 1612 
C 3302 981 3219 166 2125 166 
L 1530 166 
C 1274 166 1261 198 1261 414 
L 1261 3892 
C 1261 4121 1274 4185 1760 4185 
L 1901 4185 
L 1901 4352 
C 1638 4339 1331 4339 1069 4339 
C 870 4339 512 4339 326 4352 
L 326 4185 
C 768 4185 838 4185 838 3898 
L 838 453 
C 838 166 768 166 326 166 
L 326 0 
L 3315 0 
L 3469 1612 
z
" transform="scale(0.015625)"/>
       <path id="CMR17-54" d="M 3981 4332 
L 288 4332 
L 179 2924 
L 294 2924 
C 378 3981 467 4166 1453 4166 
C 1568 4166 1754 4166 1805 4159 
C 1926 4140 1926 4064 1926 3917 
L 1926 465 
C 1926 236 1907 166 1376 166 
L 1197 166 
L 1197 0 
C 1504 6 1824 12 2138 12 
C 2451 12 2771 6 3078 0 
L 3078 166 
L 2899 166 
C 2368 166 2349 236 2349 465 
L 2349 3917 
C 2349 4057 2349 4134 2464 4159 
C 2515 4166 2701 4166 2816 4166 
C 3795 4166 3891 3981 3974 2924 
L 4090 2924 
L 3981 4332 
z
" transform="scale(0.015625)"/>
       <path id="CMR17-79" d="M 2496 2183 
C 2656 2579 2944 2585 3034 2585 
L 3034 2752 
C 2912 2745 2752 2739 2630 2739 
C 2496 2739 2285 2739 2157 2752 
L 2157 2585 
C 2400 2566 2406 2384 2406 2332 
C 2406 2268 2394 2235 2362 2158 
L 1664 409 
L 902 2300 
C 870 2378 870 2423 870 2430 
C 870 2572 1018 2585 1171 2585 
L 1171 2752 
C 1018 2739 742 2739 582 2739 
C 410 2739 205 2739 64 2752 
L 64 2585 
C 410 2585 448 2553 531 2345 
L 1485 -31 
C 1197 -795 1030 -1242 627 -1242 
C 557 -1242 397 -1223 282 -1106 
C 429 -1093 493 -1002 493 -892 
C 493 -782 416 -685 288 -685 
C 147 -685 77 -782 77 -899 
C 77 -1158 339 -1344 627 -1344 
C 998 -1344 1229 -983 1357 -659 
L 2496 2183 
z
" transform="scale(0.015625)"/>
       <path id="CMR17-70" d="M 1408 -1114 
C 998 -1114 973 -1088 973 -834 
L 973 380 
C 1158 109 1427 -64 1766 -64 
C 2406 -64 3053 503 3053 1382 
C 3053 2196 2496 2816 1837 2816 
C 1453 2816 1139 2603 960 2345 
L 960 2816 
L 198 2745 
L 198 2577 
C 576 2577 634 2539 634 2228 
L 634 -834 
C 634 -1081 608 -1114 198 -1114 
L 198 -1280 
C 352 -1268 634 -1268 800 -1268 
C 966 -1268 1254 -1268 1408 -1280 
L 1408 -1114 
z
M 973 2015 
C 973 2106 973 2241 1222 2481 
C 1254 2506 1472 2700 1792 2700 
C 2259 2700 2643 2112 2643 1376 
C 2643 639 2234 38 1728 38 
C 1498 38 1248 148 1056 451 
C 973 594 973 632 973 736 
L 973 2015 
z
" transform="scale(0.015625)"/>
      </defs>
      <use xlink:href="#CMR17-44" transform="scale(0.996264)"/>
      <use xlink:href="#CMR17-6f" transform="translate(70.393556 0) scale(0.996264)"/>
      <use xlink:href="#CMR17-6d" transform="translate(116.084033 0) scale(0.996264)"/>
      <use xlink:href="#CMR17-69" transform="translate(193.003623 0) scale(0.996264)"/>
      <use xlink:href="#CMR17-6e" transform="translate(217.874681 0) scale(0.996264)"/>
      <use xlink:href="#CMR17-61" transform="translate(268.770051 0) scale(0.996264)"/>
      <use xlink:href="#CMR17-6e" transform="translate(314.460528 0) scale(0.996264)"/>
      <use xlink:href="#CMR17-74" transform="translate(362.753444 0) scale(0.996264)"/>
      <use xlink:href="#CMR17-4c" transform="translate(428.110178 0) scale(0.996264)"/>
      <use xlink:href="#CMR17-65" transform="translate(485.491586 0) scale(0.996264)"/>
      <use xlink:href="#CMR17-61" transform="translate(525.977247 0) scale(0.996264)"/>
      <use xlink:href="#CMR17-66" transform="translate(571.667724 0) scale(0.996264)"/>
      <use xlink:href="#CMR17-54" transform="translate(629.217202 0) scale(0.996264)"/>
      <use xlink:href="#CMR17-79" transform="translate(693.124629 0) scale(0.996264)"/>
      <use xlink:href="#CMR17-70" transform="translate(741.417545 0) scale(0.996264)"/>
      <use xlink:href="#CMR17-65" transform="translate(794.915353 0) scale(0.996264)"/>
     </g>
    </g>
   </g>
   <g id="matplotlib.axis_2">
    <g id="ytick_1">
     <g id="line2d_21">
      <defs>
       <path id="mcbede3e835" d="M 0 0 
L 3 0 
" style="stroke: #000000; stroke-width: 0.5"/>
      </defs>
      <g>
       <use xlink:href="#mcbede3e835" x="32.685756" y="163.43218" style="stroke: #000000; stroke-width: 0.5"/>
      </g>
     </g>
     <g id="line2d_22">
      <defs>
       <path id="md13dc8c551" d="M 0 0 
L -3 0 
" style="stroke: #000000; stroke-width: 0.5"/>
      </defs>
      <g>
       <use xlink:href="#md13dc8c551" x="227.985756" y="163.43218" style="stroke: #000000; stroke-width: 0.5"/>
      </g>
     </g>
     <g id="text_4">
      <!-- $\mathdefault{0.0}$ -->
      <g transform="translate(16.455677 166.891429) scale(0.1 -0.1)">
       <defs>
        <path id="CMR17-30" d="M 2688 2038 
C 2688 2430 2682 3099 2413 3613 
C 2176 4063 1798 4224 1466 4224 
C 1158 4224 768 4082 525 3620 
C 269 3137 243 2539 243 2038 
C 243 1671 250 1112 448 623 
C 723 -39 1216 -128 1466 -128 
C 1760 -128 2208 -7 2470 604 
C 2662 1048 2688 1568 2688 2038 
z
M 1466 -26 
C 1056 -26 813 328 723 816 
C 653 1196 653 1749 653 2109 
C 653 2604 653 3015 736 3407 
C 858 3954 1216 4121 1466 4121 
C 1728 4121 2067 3947 2189 3420 
C 2272 3054 2278 2623 2278 2109 
C 2278 1691 2278 1176 2202 797 
C 2067 96 1690 -26 1466 -26 
z
" transform="scale(0.015625)"/>
        <path id="CMMI12-3a" d="M 1178 307 
C 1178 492 1024 620 870 620 
C 685 620 557 467 557 313 
C 557 128 710 0 864 0 
C 1050 0 1178 153 1178 307 
z
" transform="scale(0.015625)"/>
       </defs>
       <use xlink:href="#CMR17-30" transform="scale(0.996264)"/>
       <use xlink:href="#CMMI12-3a" transform="translate(45.690477 0) scale(0.996264)"/>
       <use xlink:href="#CMR17-30" transform="translate(72.787654 0) scale(0.996264)"/>
      </g>
     </g>
    </g>
    <g id="ytick_2">
     <g id="line2d_23">
      <g>
       <use xlink:href="#mcbede3e835" x="32.685756" y="134.32618" style="stroke: #000000; stroke-width: 0.5"/>
      </g>
     </g>
     <g id="line2d_24">
      <g>
       <use xlink:href="#md13dc8c551" x="227.985756" y="134.32618" style="stroke: #000000; stroke-width: 0.5"/>
      </g>
     </g>
     <g id="text_5">
      <!-- $\mathdefault{0.2}$ -->
      <g transform="translate(16.455677 137.785429) scale(0.1 -0.1)">
       <defs>
        <path id="CMR17-32" d="M 2669 990 
L 2554 990 
C 2490 537 2438 460 2413 422 
C 2381 371 1920 371 1830 371 
L 602 371 
C 832 620 1280 1073 1824 1596 
C 2214 1966 2669 2400 2669 3033 
C 2669 3788 2067 4224 1395 4224 
C 691 4224 262 3603 262 3027 
C 262 2777 448 2745 525 2745 
C 589 2745 781 2783 781 3007 
C 781 3206 614 3264 525 3264 
C 486 3264 448 3257 422 3244 
C 544 3788 915 4057 1306 4057 
C 1862 4057 2227 3616 2227 3033 
C 2227 2477 1901 1998 1536 1583 
L 262 147 
L 262 0 
L 2515 0 
L 2669 990 
z
" transform="scale(0.015625)"/>
       </defs>
       <use xlink:href="#CMR17-30" transform="scale(0.996264)"/>
       <use xlink:href="#CMMI12-3a" transform="translate(45.690477 0) scale(0.996264)"/>
       <use xlink:href="#CMR17-32" transform="translate(72.787654 0) scale(0.996264)"/>
      </g>
     </g>
    </g>
    <g id="ytick_3">
     <g id="line2d_25">
      <g>
       <use xlink:href="#mcbede3e835" x="32.685756" y="105.22018" style="stroke: #000000; stroke-width: 0.5"/>
      </g>
     </g>
     <g id="line2d_26">
      <g>
       <use xlink:href="#md13dc8c551" x="227.985756" y="105.22018" style="stroke: #000000; stroke-width: 0.5"/>
      </g>
     </g>
     <g id="text_6">
      <!-- $\mathdefault{0.4}$ -->
      <g transform="translate(16.455677 108.679429) scale(0.1 -0.1)">
       <defs>
        <path id="CMR17-34" d="M 2150 4147 
C 2150 4281 2144 4288 2029 4288 
L 128 1254 
L 128 1088 
L 1779 1088 
L 1779 460 
C 1779 230 1766 166 1318 166 
L 1197 166 
L 1197 0 
C 1402 12 1747 12 1965 12 
C 2182 12 2528 12 2733 0 
L 2733 166 
L 2611 166 
C 2163 166 2150 230 2150 460 
L 2150 1088 
L 2803 1088 
L 2803 1254 
L 2150 1254 
L 2150 4147 
z
M 1798 3723 
L 1798 1254 
L 256 1254 
L 1798 3723 
z
" transform="scale(0.015625)"/>
       </defs>
       <use xlink:href="#CMR17-30" transform="scale(0.996264)"/>
       <use xlink:href="#CMMI12-3a" transform="translate(45.690477 0) scale(0.996264)"/>
       <use xlink:href="#CMR17-34" transform="translate(72.787654 0) scale(0.996264)"/>
      </g>
     </g>
    </g>
    <g id="ytick_4">
     <g id="line2d_27">
      <g>
       <use xlink:href="#mcbede3e835" x="32.685756" y="76.11418" style="stroke: #000000; stroke-width: 0.5"/>
      </g>
     </g>
     <g id="line2d_28">
      <g>
       <use xlink:href="#md13dc8c551" x="227.985756" y="76.11418" style="stroke: #000000; stroke-width: 0.5"/>
      </g>
     </g>
     <g id="text_7">
      <!-- $\mathdefault{0.6}$ -->
      <g transform="translate(16.455677 79.573429) scale(0.1 -0.1)">
       <defs>
        <path id="CMR17-36" d="M 678 2198 
C 678 3712 1395 4076 1811 4076 
C 1946 4076 2272 4049 2400 3782 
C 2298 3782 2106 3782 2106 3558 
C 2106 3385 2246 3328 2336 3328 
C 2394 3328 2566 3353 2566 3571 
C 2566 3987 2246 4224 1805 4224 
C 1043 4224 243 3411 243 2011 
C 243 257 966 -128 1478 -128 
C 2099 -128 2688 431 2688 1295 
C 2688 2101 2170 2688 1517 2688 
C 1126 2688 838 2430 678 1979 
L 678 2198 
z
M 1478 25 
C 691 25 691 1212 691 1450 
C 691 1914 909 2585 1504 2585 
C 1613 2585 1926 2585 2138 2140 
C 2253 1889 2253 1624 2253 1302 
C 2253 954 2253 696 2118 438 
C 1978 173 1773 25 1478 25 
z
" transform="scale(0.015625)"/>
       </defs>
       <use xlink:href="#CMR17-30" transform="scale(0.996264)"/>
       <use xlink:href="#CMMI12-3a" transform="translate(45.690477 0) scale(0.996264)"/>
       <use xlink:href="#CMR17-36" transform="translate(72.787654 0) scale(0.996264)"/>
      </g>
     </g>
    </g>
    <g id="ytick_5">
     <g id="line2d_29">
      <g>
       <use xlink:href="#mcbede3e835" x="32.685756" y="47.00818" style="stroke: #000000; stroke-width: 0.5"/>
      </g>
     </g>
     <g id="line2d_30">
      <g>
       <use xlink:href="#md13dc8c551" x="227.985756" y="47.00818" style="stroke: #000000; stroke-width: 0.5"/>
      </g>
     </g>
     <g id="text_8">
      <!-- $\mathdefault{0.8}$ -->
      <g transform="translate(16.455677 50.467429) scale(0.1 -0.1)">
       <defs>
        <path id="CMR17-38" d="M 1741 2289 
C 2144 2494 2554 2803 2554 3298 
C 2554 3884 1990 4224 1472 4224 
C 890 4224 378 3800 378 3215 
C 378 3054 416 2777 666 2533 
C 730 2469 998 2276 1171 2154 
C 883 2006 211 1652 211 945 
C 211 282 838 -128 1459 -128 
C 2144 -128 2720 366 2720 1022 
C 2720 1607 2330 1877 2074 2051 
L 1741 2289 
z
M 902 2855 
C 851 2887 595 3086 595 3388 
C 595 3781 998 4076 1459 4076 
C 1965 4076 2336 3716 2336 3298 
C 2336 2700 1670 2359 1638 2359 
C 1632 2359 1626 2359 1574 2398 
L 902 2855 
z
M 2080 1536 
C 2176 1466 2483 1253 2483 861 
C 2483 385 2010 25 1472 25 
C 890 25 448 443 448 951 
C 448 1459 838 1884 1280 2083 
L 2080 1536 
z
" transform="scale(0.015625)"/>
       </defs>
       <use xlink:href="#CMR17-30" transform="scale(0.996264)"/>
       <use xlink:href="#CMMI12-3a" transform="translate(45.690477 0) scale(0.996264)"/>
       <use xlink:href="#CMR17-38" transform="translate(72.787654 0) scale(0.996264)"/>
      </g>
     </g>
    </g>
    <g id="ytick_6">
     <g id="line2d_31">
      <g>
       <use xlink:href="#mcbede3e835" x="32.685756" y="17.90218" style="stroke: #000000; stroke-width: 0.5"/>
      </g>
     </g>
     <g id="line2d_32">
      <g>
       <use xlink:href="#md13dc8c551" x="227.985756" y="17.90218" style="stroke: #000000; stroke-width: 0.5"/>
      </g>
     </g>
     <g id="text_9">
      <!-- $\mathdefault{1.0}$ -->
      <g transform="translate(16.455677 21.361429) scale(0.1 -0.1)">
       <defs>
        <path id="CMR17-31" d="M 1702 4083 
C 1702 4217 1696 4224 1606 4224 
C 1357 3927 979 3833 621 3820 
C 602 3820 570 3820 563 3808 
C 557 3795 557 3782 557 3648 
C 755 3648 1088 3686 1344 3839 
L 1344 467 
C 1344 243 1331 166 781 166 
L 589 166 
L 589 0 
C 896 6 1216 12 1523 12 
C 1830 12 2150 6 2458 0 
L 2458 166 
L 2266 166 
C 1715 166 1702 236 1702 467 
L 1702 4083 
z
" transform="scale(0.015625)"/>
       </defs>
       <use xlink:href="#CMR17-31" transform="scale(0.996264)"/>
       <use xlink:href="#CMMI12-3a" transform="translate(45.690477 0) scale(0.996264)"/>
       <use xlink:href="#CMR17-30" transform="translate(72.787654 0) scale(0.996264)"/>
      </g>
     </g>
    </g>
    <g id="ytick_7">
     <g id="line2d_33">
      <defs>
       <path id="ma8ac6bbc37" d="M 0 0 
L 1.5 0 
" style="stroke: #000000; stroke-width: 0.5"/>
      </defs>
      <g>
       <use xlink:href="#ma8ac6bbc37" x="32.685756" y="156.15568" style="stroke: #000000; stroke-width: 0.5"/>
      </g>
     </g>
     <g id="line2d_34">
      <defs>
       <path id="m159d6e4e8a" d="M 0 0 
L -1.5 0 
" style="stroke: #000000; stroke-width: 0.5"/>
      </defs>
      <g>
       <use xlink:href="#m159d6e4e8a" x="227.985756" y="156.15568" style="stroke: #000000; stroke-width: 0.5"/>
      </g>
     </g>
    </g>
    <g id="ytick_8">
     <g id="line2d_35">
      <g>
       <use xlink:href="#ma8ac6bbc37" x="32.685756" y="148.87918" style="stroke: #000000; stroke-width: 0.5"/>
      </g>
     </g>
     <g id="line2d_36">
      <g>
       <use xlink:href="#m159d6e4e8a" x="227.985756" y="148.87918" style="stroke: #000000; stroke-width: 0.5"/>
      </g>
     </g>
    </g>
    <g id="ytick_9">
     <g id="line2d_37">
      <g>
       <use xlink:href="#ma8ac6bbc37" x="32.685756" y="141.60268" style="stroke: #000000; stroke-width: 0.5"/>
      </g>
     </g>
     <g id="line2d_38">
      <g>
       <use xlink:href="#m159d6e4e8a" x="227.985756" y="141.60268" style="stroke: #000000; stroke-width: 0.5"/>
      </g>
     </g>
    </g>
    <g id="ytick_10">
     <g id="line2d_39">
      <g>
       <use xlink:href="#ma8ac6bbc37" x="32.685756" y="127.04968" style="stroke: #000000; stroke-width: 0.5"/>
      </g>
     </g>
     <g id="line2d_40">
      <g>
       <use xlink:href="#m159d6e4e8a" x="227.985756" y="127.04968" style="stroke: #000000; stroke-width: 0.5"/>
      </g>
     </g>
    </g>
    <g id="ytick_11">
     <g id="line2d_41">
      <g>
       <use xlink:href="#ma8ac6bbc37" x="32.685756" y="119.77318" style="stroke: #000000; stroke-width: 0.5"/>
      </g>
     </g>
     <g id="line2d_42">
      <g>
       <use xlink:href="#m159d6e4e8a" x="227.985756" y="119.77318" style="stroke: #000000; stroke-width: 0.5"/>
      </g>
     </g>
    </g>
    <g id="ytick_12">
     <g id="line2d_43">
      <g>
       <use xlink:href="#ma8ac6bbc37" x="32.685756" y="112.49668" style="stroke: #000000; stroke-width: 0.5"/>
      </g>
     </g>
     <g id="line2d_44">
      <g>
       <use xlink:href="#m159d6e4e8a" x="227.985756" y="112.49668" style="stroke: #000000; stroke-width: 0.5"/>
      </g>
     </g>
    </g>
    <g id="ytick_13">
     <g id="line2d_45">
      <g>
       <use xlink:href="#ma8ac6bbc37" x="32.685756" y="97.94368" style="stroke: #000000; stroke-width: 0.5"/>
      </g>
     </g>
     <g id="line2d_46">
      <g>
       <use xlink:href="#m159d6e4e8a" x="227.985756" y="97.94368" style="stroke: #000000; stroke-width: 0.5"/>
      </g>
     </g>
    </g>
    <g id="ytick_14">
     <g id="line2d_47">
      <g>
       <use xlink:href="#ma8ac6bbc37" x="32.685756" y="90.66718" style="stroke: #000000; stroke-width: 0.5"/>
      </g>
     </g>
     <g id="line2d_48">
      <g>
       <use xlink:href="#m159d6e4e8a" x="227.985756" y="90.66718" style="stroke: #000000; stroke-width: 0.5"/>
      </g>
     </g>
    </g>
    <g id="ytick_15">
     <g id="line2d_49">
      <g>
       <use xlink:href="#ma8ac6bbc37" x="32.685756" y="83.39068" style="stroke: #000000; stroke-width: 0.5"/>
      </g>
     </g>
     <g id="line2d_50">
      <g>
       <use xlink:href="#m159d6e4e8a" x="227.985756" y="83.39068" style="stroke: #000000; stroke-width: 0.5"/>
      </g>
     </g>
    </g>
    <g id="ytick_16">
     <g id="line2d_51">
      <g>
       <use xlink:href="#ma8ac6bbc37" x="32.685756" y="68.83768" style="stroke: #000000; stroke-width: 0.5"/>
      </g>
     </g>
     <g id="line2d_52">
      <g>
       <use xlink:href="#m159d6e4e8a" x="227.985756" y="68.83768" style="stroke: #000000; stroke-width: 0.5"/>
      </g>
     </g>
    </g>
    <g id="ytick_17">
     <g id="line2d_53">
      <g>
       <use xlink:href="#ma8ac6bbc37" x="32.685756" y="61.56118" style="stroke: #000000; stroke-width: 0.5"/>
      </g>
     </g>
     <g id="line2d_54">
      <g>
       <use xlink:href="#m159d6e4e8a" x="227.985756" y="61.56118" style="stroke: #000000; stroke-width: 0.5"/>
      </g>
     </g>
    </g>
    <g id="ytick_18">
     <g id="line2d_55">
      <g>
       <use xlink:href="#ma8ac6bbc37" x="32.685756" y="54.28468" style="stroke: #000000; stroke-width: 0.5"/>
      </g>
     </g>
     <g id="line2d_56">
      <g>
       <use xlink:href="#m159d6e4e8a" x="227.985756" y="54.28468" style="stroke: #000000; stroke-width: 0.5"/>
      </g>
     </g>
    </g>
    <g id="ytick_19">
     <g id="line2d_57">
      <g>
       <use xlink:href="#ma8ac6bbc37" x="32.685756" y="39.73168" style="stroke: #000000; stroke-width: 0.5"/>
      </g>
     </g>
     <g id="line2d_58">
      <g>
       <use xlink:href="#m159d6e4e8a" x="227.985756" y="39.73168" style="stroke: #000000; stroke-width: 0.5"/>
      </g>
     </g>
    </g>
    <g id="ytick_20">
     <g id="line2d_59">
      <g>
       <use xlink:href="#ma8ac6bbc37" x="32.685756" y="32.45518" style="stroke: #000000; stroke-width: 0.5"/>
      </g>
     </g>
     <g id="line2d_60">
      <g>
       <use xlink:href="#m159d6e4e8a" x="227.985756" y="32.45518" style="stroke: #000000; stroke-width: 0.5"/>
      </g>
     </g>
    </g>
    <g id="ytick_21">
     <g id="line2d_61">
      <g>
       <use xlink:href="#ma8ac6bbc37" x="32.685756" y="25.17868" style="stroke: #000000; stroke-width: 0.5"/>
      </g>
     </g>
     <g id="line2d_62">
      <g>
       <use xlink:href="#m159d6e4e8a" x="227.985756" y="25.17868" style="stroke: #000000; stroke-width: 0.5"/>
      </g>
     </g>
    </g>
    <g id="text_10">
     <!-- Conifer Proportion -->
     <g transform="translate(10.518498 132.012235) rotate(-90) scale(0.1 -0.1)">
      <defs>
       <path id="CMR17-50" d="M 1267 2048 
L 2291 2048 
C 3117 2048 3718 2583 3718 3187 
C 3718 3791 3130 4352 2291 4352 
L 333 4352 
L 333 4185 
C 774 4185 845 4185 845 3899 
L 845 453 
C 845 166 774 166 333 166 
L 333 0 
C 518 12 858 12 1056 12 
C 1254 12 1594 12 1779 0 
L 1779 166 
C 1338 166 1267 166 1267 453 
L 1267 2048 
z
M 1254 2182 
L 1254 3937 
C 1254 4153 1267 4185 1523 4185 
L 2170 4185 
C 2995 4185 3232 3715 3232 3187 
C 3232 2608 2950 2182 2170 2182 
L 1254 2182 
z
" transform="scale(0.015625)"/>
      </defs>
      <use xlink:href="#CMR17-43" transform="scale(0.996264)"/>
      <use xlink:href="#CMR17-6f" transform="translate(66.509881 0) scale(0.996264)"/>
      <use xlink:href="#CMR17-6e" transform="translate(112.200358 0) scale(0.996264)"/>
      <use xlink:href="#CMR17-69" transform="translate(163.095727 0) scale(0.996264)"/>
      <use xlink:href="#CMR17-66" transform="translate(187.966786 0) scale(0.996264)"/>
      <use xlink:href="#CMR17-65" transform="translate(215.440298 0) scale(0.996264)"/>
      <use xlink:href="#CMR17-72" transform="translate(255.925959 0) scale(0.996264)"/>
      <use xlink:href="#CMR17-50" transform="translate(321.282693 0) scale(0.996264)"/>
      <use xlink:href="#CMR17-72" transform="translate(383.868993 0) scale(0.996264)"/>
      <use xlink:href="#CMR17-6f" transform="translate(419.149761 0) scale(0.996264)"/>
      <use xlink:href="#CMR17-70" transform="translate(464.840238 0) scale(0.996264)"/>
      <use xlink:href="#CMR17-6f" transform="translate(518.338047 0) scale(0.996264)"/>
      <use xlink:href="#CMR17-72" transform="translate(564.028524 0) scale(0.996264)"/>
      <use xlink:href="#CMR17-74" transform="translate(599.309292 0) scale(0.996264)"/>
      <use xlink:href="#CMR17-69" transform="translate(634.59006 0) scale(0.996264)"/>
      <use xlink:href="#CMR17-6f" transform="translate(659.461118 0) scale(0.996264)"/>
      <use xlink:href="#CMR17-6e" transform="translate(705.151595 0) scale(0.996264)"/>
     </g>
    </g>
   </g>
   <g id="line2d_63">
    <path d="M 49.176162 103.537097 
L 113.845349 103.537097 
" clip-path="url(#p8f27034736)" style="fill: none; stroke-dasharray: 1.5625,0.9375; stroke-dashoffset: 0; stroke: #353535; stroke-width: 1.25"/>
   </g>
   <g id="line2d_64">
    <path d="M 46.674604 91.676001 
L 116.346908 91.676001 
" clip-path="url(#p8f27034736)" style="fill: none; stroke-dasharray: 3.125,1.25; stroke-dashoffset: 0; stroke: #353535; stroke-width: 1.25"/>
   </g>
   <g id="line2d_65">
    <path d="M 47.051819 81.725843 
L 115.969692 81.725843 
" clip-path="url(#p8f27034736)" style="fill: none; stroke-dasharray: 1.5625,0.9375; stroke-dashoffset: 0; stroke: #353535; stroke-width: 1.25"/>
   </g>
   <g id="line2d_66">
    <path d="M 152.806569 85.986526 
L 205.514942 85.986526 
" clip-path="url(#p8f27034736)" style="fill: none; stroke-dasharray: 1.5625,0.9375; stroke-dashoffset: 0; stroke: #353535; stroke-width: 1.25"/>
   </g>
   <g id="line2d_67">
    <path d="M 157.417334 68.506077 
L 200.904177 68.506077 
" clip-path="url(#p8f27034736)" style="fill: none; stroke-dasharray: 3.125,1.25; stroke-dashoffset: 0; stroke: #353535; stroke-width: 1.25"/>
   </g>
   <g id="line2d_68">
    <path d="M 161.277881 51.326768 
L 197.043631 51.326768 
" clip-path="url(#p8f27034736)" style="fill: none; stroke-dasharray: 1.5625,0.9375; stroke-dashoffset: 0; stroke: #353535; stroke-width: 1.25"/>
   </g>
   <g id="patch_3">
    <path d="M 32.685756 163.43218 
L 32.685756 17.90218 
" style="fill: none; stroke: #000000; stroke-width: 0.5; stroke-linejoin: miter; stroke-linecap: square"/>
   </g>
   <g id="patch_4">
    <path d="M 227.985756 163.43218 
L 227.985756 17.90218 
" style="fill: none; stroke: #000000; stroke-width: 0.5; stroke-linejoin: miter; stroke-linecap: square"/>
   </g>
   <g id="patch_5">
    <path d="M 32.685756 163.43218 
L 227.985756 163.43218 
" style="fill: none; stroke: #000000; stroke-width: 0.5; stroke-linejoin: miter; stroke-linecap: square"/>
   </g>
   <g id="patch_6">
    <path d="M 32.685756 17.90218 
L 227.985756 17.90218 
" style="fill: none; stroke: #000000; stroke-width: 0.5; stroke-linejoin: miter; stroke-linecap: square"/>
   </g>
   <g id="text_11">
    <!-- Prediction vs. Dominant Leaf Type -->
    <g transform="translate(38.853368 11.90218) scale(0.12 -0.12)">
     <defs>
      <path id="CMR17-63" d="M 2234 2240 
C 2112 2240 1933 2240 1933 2015 
C 1933 1836 2080 1785 2163 1785 
C 2208 1785 2394 1804 2394 2028 
C 2394 2476 1958 2816 1466 2816 
C 787 2816 211 2201 211 1379 
C 211 521 813 -64 1466 -64 
C 2259 -64 2458 676 2458 747 
C 2458 773 2451 792 2406 792 
C 2362 792 2355 786 2330 702 
C 2163 180 1798 51 1523 51 
C 1114 51 621 431 621 1385 
C 621 2358 1094 2700 1472 2700 
C 1722 2700 2093 2582 2234 2240 
z
" transform="scale(0.015625)"/>
      <path id="CMR17-76" d="M 2502 2173 
C 2560 2315 2662 2572 3034 2585 
L 3034 2752 
C 2912 2745 2752 2739 2630 2739 
C 2496 2739 2285 2739 2157 2752 
L 2157 2585 
C 2317 2572 2406 2495 2406 2328 
C 2406 2270 2406 2257 2368 2167 
L 1664 379 
L 902 2308 
C 864 2392 864 2405 864 2431 
C 864 2585 1075 2585 1171 2585 
L 1171 2752 
C 1018 2739 736 2739 576 2739 
C 403 2739 205 2739 64 2752 
L 64 2585 
C 307 2585 442 2585 518 2386 
L 1446 44 
C 1485 -52 1491 -64 1549 -64 
C 1606 -64 1613 -52 1651 44 
L 2502 2173 
z
" transform="scale(0.015625)"/>
      <path id="CMR17-73" d="M 1978 2688 
C 1978 2803 1971 2809 1933 2809 
C 1907 2809 1901 2803 1824 2707 
C 1805 2681 1747 2617 1728 2592 
C 1523 2809 1235 2816 1126 2816 
C 416 2816 160 2444 160 2073 
C 160 1497 813 1363 998 1324 
C 1402 1241 1542 1216 1677 1100 
C 1760 1024 1901 883 1901 652 
C 1901 384 1747 38 1158 38 
C 602 38 403 460 288 1024 
C 269 1113 269 1120 218 1120 
C 166 1120 160 1113 160 985 
L 160 64 
C 160 -52 166 -58 205 -58 
C 237 -58 243 -52 275 0 
C 314 57 410 211 448 275 
C 576 102 800 -64 1158 -64 
C 1792 -64 2131 281 2131 780 
C 2131 1107 1958 1280 1875 1356 
C 1683 1555 1459 1600 1190 1651 
C 838 1728 390 1817 390 2208 
C 390 2374 480 2726 1126 2726 
C 1811 2726 1850 2086 1862 1881 
C 1869 1849 1901 1843 1920 1843 
C 1978 1843 1978 1862 1978 1971 
L 1978 2688 
z
" transform="scale(0.015625)"/>
      <path id="CMR17-2e" d="M 1062 262 
C 1062 422 934 524 800 524 
C 672 524 538 422 538 262 
C 538 102 666 0 800 0 
C 928 0 1062 102 1062 262 
z
" transform="scale(0.015625)"/>
     </defs>
     <use xlink:href="#CMR17-50" transform="scale(0.996264)"/>
     <use xlink:href="#CMR17-72" transform="translate(62.586301 0) scale(0.996264)"/>
     <use xlink:href="#CMR17-65" transform="translate(97.867068 0) scale(0.996264)"/>
     <use xlink:href="#CMR17-64" transform="translate(138.352729 0) scale(0.996264)"/>
     <use xlink:href="#CMR17-69" transform="translate(189.248099 0) scale(0.996264)"/>
     <use xlink:href="#CMR17-63" transform="translate(214.119157 0) scale(0.996264)"/>
     <use xlink:href="#CMR17-74" transform="translate(254.604818 0) scale(0.996264)"/>
     <use xlink:href="#CMR17-69" transform="translate(289.885585 0) scale(0.996264)"/>
     <use xlink:href="#CMR17-6f" transform="translate(314.756644 0) scale(0.996264)"/>
     <use xlink:href="#CMR17-6e" transform="translate(360.447121 0) scale(0.996264)"/>
     <use xlink:href="#CMR17-76" transform="translate(441.418457 0) scale(0.996264)"/>
     <use xlink:href="#CMR17-73" transform="translate(489.711373 0) scale(0.996264)"/>
     <use xlink:href="#CMR17-2e" transform="translate(525.512711 0) scale(0.996264)"/>
     <use xlink:href="#CMR17-44" transform="translate(590.869429 0) scale(0.996264)"/>
     <use xlink:href="#CMR17-6f" transform="translate(661.262985 0) scale(0.996264)"/>
     <use xlink:href="#CMR17-6d" transform="translate(706.953462 0) scale(0.996264)"/>
     <use xlink:href="#CMR17-69" transform="translate(783.873052 0) scale(0.996264)"/>
     <use xlink:href="#CMR17-6e" transform="translate(808.744111 0) scale(0.996264)"/>
     <use xlink:href="#CMR17-61" transform="translate(859.639481 0) scale(0.996264)"/>
     <use xlink:href="#CMR17-6e" transform="translate(905.329958 0) scale(0.996264)"/>
     <use xlink:href="#CMR17-74" transform="translate(953.622874 0) scale(0.996264)"/>
     <use xlink:href="#CMR17-4c" transform="translate(1018.979608 0) scale(0.996264)"/>
     <use xlink:href="#CMR17-65" transform="translate(1076.361016 0) scale(0.996264)"/>
     <use xlink:href="#CMR17-61" transform="translate(1116.846676 0) scale(0.996264)"/>
     <use xlink:href="#CMR17-66" transform="translate(1162.537153 0) scale(0.996264)"/>
     <use xlink:href="#CMR17-54" transform="translate(1220.086632 0) scale(0.996264)"/>
     <use xlink:href="#CMR17-79" transform="translate(1283.994059 0) scale(0.996264)"/>
     <use xlink:href="#CMR17-70" transform="translate(1332.286974 0) scale(0.996264)"/>
     <use xlink:href="#CMR17-65" transform="translate(1385.784783 0) scale(0.996264)"/>
    </g>
   </g>
  </g>
 </g>
 <defs>
  <clipPath id="p8f27034736">
   <rect x="32.685756" y="17.90218" width="195.3" height="145.53"/>
  </clipPath>
 </defs>
</svg>
